<?xml version="1.0" encoding="UTF-8"?>
<svg xmlns="http://www.w3.org/2000/svg" width="20" height="20" viewBox="0 0 20 20" fill="none">
  <g clip-path="url(#clip0_451_93)">
    <path d="M10 20C15.5228 20 20 15.5228 20 10C20 4.47715 15.5228 0 10 0C4.47715 0 0 4.47715 0 10C0 15.5228 4.47715 20 10 20Z" fill="#8247E5"></path>
    <g clip-path="url(#clip1_451_93)">
      <path d="M13.5729 7.71883C13.3177 7.573 12.9896 7.573 12.6979 7.71883L10.6562 8.92196L9.27083 9.68758L7.26562 10.8907C7.01042 11.0365 6.68229 11.0365 6.39062 10.8907L4.82292 9.94279C4.56771 9.79696 4.38542 9.50529 4.38542 9.17716V7.35425C4.38542 7.06258 4.53125 6.77091 4.82292 6.58862L6.39062 5.67716C6.64583 5.53133 6.97396 5.53133 7.26562 5.67716L8.83333 6.62508C9.08854 6.77091 9.27083 7.06258 9.27083 7.39071V8.59383L10.6562 7.79175V6.55216C10.6562 6.2605 10.5104 5.96883 10.2187 5.78654L7.30208 4.073C7.04688 3.92716 6.71875 3.92716 6.42708 4.073L3.4375 5.823C3.14583 5.96883 3 6.2605 3 6.55216V9.97925C3 10.2709 3.14583 10.5626 3.4375 10.7449L6.39062 12.4584C6.64583 12.6042 6.97396 12.6042 7.26562 12.4584L9.27083 11.2917L10.6562 10.4897L12.6615 9.323C12.9167 9.17716 13.2448 9.17716 13.5365 9.323L15.1042 10.2345C15.3594 10.3803 15.5417 10.672 15.5417 11.0001V12.823C15.5417 13.1147 15.3958 13.4063 15.1042 13.5886L13.5729 14.5001C13.3177 14.6459 12.9896 14.6459 12.6979 14.5001L11.1302 13.5886C10.875 13.4428 10.6927 13.1511 10.6927 12.823V11.6563L9.30729 12.4584V13.6615C9.30729 13.9532 9.45312 14.2449 9.74479 14.4272L12.6979 16.1407C12.9531 16.2865 13.2812 16.2865 13.5729 16.1407L16.526 14.4272C16.7812 14.2813 16.9635 13.9897 16.9635 13.6615V10.198C16.9635 9.90633 16.8177 9.61466 16.526 9.43237L13.5729 7.71883Z" fill="white"></path>
    </g>
  </g>
  <defs>
    <clipPath id="clip0_451_93">
      <rect width="20" height="20" fill="white"></rect>
    </clipPath>
    <clipPath id="clip1_451_93">
      <rect width="14" height="12.2135" fill="white" transform="translate(3 4)"></rect>
    </clipPath>
  </defs>
</svg>
