<?xml version="1.0" encoding="UTF-8"?>
<svg xmlns="http://www.w3.org/2000/svg" width="20" height="20" viewBox="0 0 20 20" fill="none">
  <g clip-path="url(#clip0_451_63)">
    <path d="M10 20C15.5228 20 20 15.5228 20 10C20 4.47715 15.5228 0 10 0C4.47715 0 0 4.47715 0 10C0 15.5228 4.47715 20 10 20Z" fill="url(#paint0_linear_451_63)"></path>
    <path d="M5.95017 12.1788C6.02358 12.1054 6.12315 12.0642 6.22694 12.0642H15.8038C15.9783 12.0642 16.0656 12.2751 15.9422 12.3985L14.0498 14.2893C13.9764 14.3627 13.8769 14.4039 13.7731 14.4039H4.19617C4.0217 14.4039 3.93438 14.193 4.05779 14.0696L5.95017 12.1788Z" fill="white"></path>
    <path d="M5.95017 5.11458C6.02358 5.04121 6.12315 5 6.22694 5H15.8038C15.9783 5 16.0656 5.21096 15.9422 5.33428L14.0498 7.22515C13.9764 7.2985 13.8769 7.33972 13.7731 7.33972H4.19617C4.0217 7.33972 3.93438 7.12877 4.05779 7.00546L5.95017 5.11458Z" fill="white"></path>
    <path d="M14.0498 8.62409C13.9764 8.55074 13.8769 8.50952 13.7731 8.50952H4.19617C4.0217 8.50952 3.93438 8.72049 4.05779 8.84378L5.95017 10.7347C6.02358 10.808 6.12315 10.8492 6.22694 10.8492H15.8038C15.9783 10.8492 16.0656 10.6383 15.9422 10.515L14.0498 8.62409Z" fill="white"></path>
  </g>
  <defs>
    <linearGradient id="paint0_linear_451_63" x1="13.5212" y1="-52.05" x2="-31.7406" y2="-35.1466" gradientUnits="userSpaceOnUse">
      <stop stop-color="#00FFA3"></stop>
      <stop offset="1" stop-color="#DC1FFF"></stop>
    </linearGradient>
    <clipPath id="clip0_451_63">
      <rect width="20" height="20" fill="white"></rect>
    </clipPath>
  </defs>
</svg>
