<?xml version="1.0" encoding="UTF-8"?>
<svg xmlns="http://www.w3.org/2000/svg" width="20" height="20" viewBox="0 0 20 20" fill="none">
  <circle cx="10" cy="10" r="10" fill="#F0B90B"></circle>
  <g clip-path="url(#clip0_2901_1749)">
    <path d="M16.2235 10.0051C16.2118 10.0145 16.1991 10.0231 16.1885 10.0337C15.7487 10.4731 15.3092 10.9127 14.8696 11.3522C14.8551 11.3668 14.8401 11.3808 14.8292 11.3914C14.3622 10.9243 13.8974 10.4595 13.4375 9.99962C13.8964 9.54079 14.361 9.0762 14.8298 8.60742C14.8348 8.61177 14.8479 8.62205 14.8597 8.63377C15.3102 9.08444 15.7605 9.53524 16.211 9.98591C16.2146 9.98947 16.2194 9.99175 16.2236 9.99465C16.2235 9.99809 16.2235 10.0016 16.2235 10.0051Z" fill="white"></path>
    <path d="M7.5769 8.98957C7.10875 8.5215 6.64469 8.05748 6.17969 7.59252C6.19543 7.56439 9.9338 3.82009 9.98924 3.77783C11.2621 5.05054 12.5344 6.32275 13.8078 7.59608C13.7922 7.62422 12.4832 8.93923 12.4146 8.99234C11.6099 8.18767 10.8046 7.38241 9.99442 6.57218C9.18501 7.38154 8.3798 8.18671 7.5769 8.98957Z" fill="white"></path>
    <path d="M7.57001 11.0001C8.37801 11.808 9.18227 12.6123 9.99026 13.4202C10.0862 13.3328 10.1724 13.241 10.2618 13.1527C10.3517 13.0637 10.4407 12.9739 10.5301 12.8845C10.6195 12.7951 10.709 12.7057 10.7984 12.6163C10.8878 12.5269 10.9772 12.4375 11.0666 12.3481C11.1573 12.2574 11.2479 12.1668 11.3385 12.0762C11.428 11.9868 11.5174 11.8973 11.6068 11.8079C11.6962 11.7185 11.7856 11.6291 11.875 11.5397C11.9644 11.4503 12.0538 11.3609 12.1433 11.2715C12.2325 11.1822 12.3218 11.093 12.416 10.9988C12.8843 11.4664 13.3494 11.931 13.8101 12.3911C12.5345 13.6667 11.2614 14.9397 9.99324 16.2078C8.72555 14.9401 7.45251 13.667 6.17578 12.3903C6.63528 11.932 7.10078 11.4679 7.57001 11.0001Z" fill="white"></path>
    <path d="M9.99139 11.4057C9.52265 10.9369 9.05048 10.4648 8.58203 9.99641C9.05015 9.52829 9.52224 9.0562 9.9901 8.58838L11.3994 9.99769C10.9311 10.466 10.459 10.9381 9.99139 11.4057Z" fill="white"></path>
    <path d="M3.77734 9.99389L5.16283 8.6084L6.54982 9.99538C6.08986 10.4554 5.62502 10.9204 5.16449 11.381C4.70653 10.9231 4.24165 10.4582 3.77734 9.99389Z" fill="white"></path>
  </g>
  <defs>
    <clipPath id="clip0_2901_1749">
      <rect width="14" height="14" fill="white" transform="translate(3 3)"></rect>
    </clipPath>
  </defs>
</svg>
