<svg width="54" height="54" viewBox="0 0 54 54" fill="none" xmlns="http://www.w3.org/2000/svg">
  <path d="M4.05 27C1.81325 27 -0.0310973 28.8233 0.303173 31.0349C0.893618 34.9415 2.33705 38.688 4.55032 42.0004C7.51712 46.4405 11.7339 49.9012 16.6675 51.9447C21.6012 53.9883 27.0299 54.523 32.2674 53.4812C37.5049 52.4394 42.3159 49.8679 46.0919 46.0919C49.8679 42.3159 52.4394 37.5049 53.4812 32.2674C54.523 27.03 53.9883 21.6012 51.9447 16.6675C49.9012 11.7339 46.4405 7.51712 42.0004 4.55032C38.688 2.33705 34.9415 0.893619 31.0349 0.303173C28.8233 -0.031097 27 1.81325 27 4.05V4.05C27 6.28675 28.8336 8.05661 31.0191 8.53228C33.3214 9.03333 35.5215 9.96303 37.5003 11.2852C40.6084 13.362 43.0308 16.3138 44.4613 19.7673C45.8918 23.2208 46.2661 27.021 45.5368 30.6872C44.8076 34.3534 43.0075 37.7211 40.3643 40.3643C37.7211 43.0075 34.3534 44.8076 30.6872 45.5368C27.021 46.2661 23.2208 45.8918 19.7673 44.4613C16.3138 43.0308 13.362 40.6084 11.2852 37.5003C9.96303 35.5215 9.03333 33.3214 8.53228 31.0191C8.05661 28.8336 6.28675 27 4.05 27V27Z" fill="#76DBA1"/>
</svg>
