<svg width="557" height="298" viewBox="0 0 557 298" fill="none" xmlns="http://www.w3.org/2000/svg">
<rect x="86.791" y="84.4312" width="132.233" height="132.233" transform="rotate(15 86.791 84.4312)" fill="#101010"/>
<path d="M93.7834 155.168C94.0298 154.248 94.4521 153.481 95.0504 152.866C95.6597 152.245 96.3699 151.827 97.1809 151.614C98.0031 151.394 98.8537 151.402 99.7329 151.638C100.762 151.913 101.591 152.423 102.221 153.166C102.851 153.909 103.193 154.794 103.248 155.823L101.124 155.254C101.033 154.751 100.824 154.336 100.497 154.01C100.178 153.685 99.7688 153.456 99.2676 153.321C98.7313 153.178 98.2175 153.179 97.7261 153.325C97.2459 153.464 96.8249 153.734 96.4631 154.135C96.1102 154.538 95.8499 155.051 95.6825 155.676C95.5174 156.292 95.4858 156.868 95.5876 157.402C95.7006 157.93 95.929 158.379 96.2728 158.748C96.6279 159.111 97.0735 159.365 97.6098 159.508C98.111 159.643 98.5805 159.649 99.0183 159.527C99.4673 159.398 99.8572 159.139 100.188 158.749L102.311 159.318C101.747 160.191 101.007 160.792 100.09 161.12C99.1836 161.442 98.2119 161.464 97.1745 161.186C96.2953 160.95 95.5535 160.536 94.949 159.944C94.3557 159.345 93.9493 158.628 93.7299 157.794C93.5192 156.963 93.537 156.087 93.7834 155.168Z" fill="white"/>
<path d="M106.31 163.676C105.606 163.488 105.015 163.162 104.536 162.699C104.06 162.227 103.736 161.657 103.567 160.989C103.406 160.324 103.427 159.612 103.63 158.853C103.833 158.095 104.175 157.469 104.656 156.975C105.146 156.485 105.718 156.16 106.373 156C107.031 155.832 107.711 155.842 108.415 156.031C109.118 156.219 109.712 156.55 110.198 157.025C110.686 157.491 111.014 158.057 111.184 158.725C111.363 159.394 111.35 160.109 111.147 160.868C110.943 161.626 110.593 162.25 110.094 162.739C109.605 163.229 109.027 163.558 108.361 163.724C107.705 163.883 107.022 163.867 106.31 163.676ZM106.747 162.043C107.081 162.132 107.415 162.135 107.748 162.052C108.093 161.963 108.397 161.777 108.661 161.493C108.926 161.21 109.121 160.832 109.248 160.359C109.437 159.653 109.397 159.064 109.128 158.59C108.871 158.109 108.478 157.799 107.951 157.657C107.423 157.516 106.928 157.589 106.464 157.876C106.012 158.157 105.692 158.65 105.503 159.355C105.314 160.06 105.339 160.651 105.579 161.127C105.83 161.596 106.22 161.901 106.747 162.043Z" fill="white"/>
<path d="M114.668 156.887C114.343 156.8 114.098 156.624 113.933 156.36C113.78 156.089 113.745 155.798 113.829 155.485C113.913 155.173 114.087 154.942 114.353 154.793C114.631 154.638 114.932 154.604 115.257 154.691C115.582 154.778 115.822 154.957 115.975 155.228C116.14 155.492 116.181 155.781 116.097 156.093C116.013 156.406 115.833 156.639 115.555 156.795C115.29 156.944 114.994 156.974 114.668 156.887ZM115.342 158.015L113.354 165.434L111.508 164.939L113.496 157.52L115.342 158.015Z" fill="white"/>
<path d="M121.24 159.482C122.11 159.715 122.738 160.185 123.124 160.891C123.512 161.588 123.572 162.437 123.304 163.437L122.138 167.789L120.291 167.294L121.389 163.196C121.547 162.607 121.523 162.117 121.316 161.727C121.113 161.328 120.76 161.061 120.259 160.927C119.749 160.79 119.302 160.843 118.917 161.084C118.543 161.319 118.277 161.731 118.119 162.32L117.021 166.418L115.175 165.923L117.163 158.504L119.009 158.999L118.761 159.923C119.093 159.667 119.473 159.501 119.899 159.424C120.336 159.34 120.782 159.359 121.24 159.482Z" fill="white"/>
<path d="M136.428 161.598L133.924 170.946L132.078 170.451L133.707 164.371L129.612 169.79L128.214 169.416L127.363 162.672L125.734 168.751L123.888 168.257L126.393 158.909L128.49 159.471L129.555 167.206L134.345 161.04L136.428 161.598Z" fill="#707070"/>
<path d="M138.956 172.425C138.253 172.236 137.662 171.91 137.183 171.447C136.706 170.975 136.383 170.405 136.213 169.738C136.052 169.072 136.073 168.36 136.276 167.602C136.48 166.843 136.822 166.217 137.303 165.724C137.792 165.233 138.365 164.908 139.02 164.748C139.678 164.58 140.358 164.59 141.061 164.779C141.765 164.967 142.359 165.299 142.845 165.773C143.332 166.239 143.661 166.805 143.831 167.473C144.009 168.143 143.997 168.857 143.793 169.616C143.59 170.375 143.239 170.998 142.741 171.487C142.252 171.977 141.673 172.306 141.007 172.472C140.352 172.631 139.668 172.615 138.956 172.425ZM139.394 170.791C139.728 170.88 140.062 170.884 140.395 170.801C140.739 170.711 141.043 170.525 141.308 170.241C141.572 169.958 141.768 169.58 141.895 169.107C142.084 168.402 142.044 167.812 141.775 167.338C141.517 166.858 141.125 166.547 140.597 166.405C140.07 166.264 139.574 166.337 139.111 166.624C138.659 166.905 138.338 167.398 138.149 168.103C137.96 168.809 137.986 169.399 138.226 169.875C138.477 170.344 138.866 170.649 139.394 170.791Z" fill="#707070"/>
<path d="M147.37 174.678C146.667 174.49 146.075 174.164 145.597 173.701C145.12 173.229 144.797 172.659 144.627 171.991C144.466 171.326 144.487 170.614 144.691 169.855C144.894 169.097 145.236 168.471 145.717 167.977C146.206 167.487 146.779 167.162 147.434 167.002C148.092 166.834 148.772 166.844 149.476 167.033C150.179 167.221 150.773 167.553 151.259 168.027C151.746 168.493 152.075 169.059 152.245 169.727C152.424 170.396 152.411 171.111 152.208 171.87C152.004 172.628 151.654 173.252 151.155 173.741C150.666 174.231 150.087 174.56 149.421 174.726C148.766 174.885 148.082 174.869 147.37 174.678ZM147.808 173.045C148.142 173.134 148.475 173.137 148.809 173.054C149.153 172.965 149.457 172.779 149.722 172.495C149.986 172.212 150.182 171.834 150.309 171.361C150.498 170.656 150.458 170.066 150.189 169.592C149.931 169.112 149.539 168.801 149.011 168.659C148.484 168.518 147.988 168.591 147.525 168.878C147.073 169.159 146.752 169.652 146.563 170.357C146.374 171.062 146.4 171.653 146.64 172.129C146.891 172.598 147.28 172.903 147.808 173.045Z" fill="#707070"/>
<path d="M158.627 169.499C159.497 169.732 160.125 170.202 160.511 170.908C160.899 171.605 160.959 172.454 160.691 173.454L159.525 177.806L157.679 177.311L158.777 173.213C158.934 172.624 158.91 172.134 158.704 171.744C158.5 171.345 158.147 171.078 157.646 170.944C157.136 170.807 156.689 170.86 156.303 171.101C155.93 171.336 155.664 171.748 155.506 172.337L154.408 176.435L152.562 175.94L154.549 168.521L156.396 169.016L156.148 169.94C156.48 169.685 156.86 169.518 157.285 169.441C157.723 169.357 158.17 169.376 158.627 169.499Z" fill="#707070"/>
<path d="M169.109 176.227C169.038 176.495 168.955 176.731 168.863 176.936L163.522 175.505C163.422 176.052 163.494 176.521 163.738 176.912C163.982 177.302 164.342 177.561 164.816 177.689C165.502 177.872 166.07 177.704 166.52 177.184L168.512 177.717C168.11 178.375 167.547 178.856 166.825 179.16C166.105 179.455 165.31 179.486 164.44 179.253C163.736 179.064 163.145 178.738 162.666 178.275C162.199 177.805 161.884 177.238 161.723 176.573C161.571 175.91 161.597 175.199 161.8 174.44C162.006 173.673 162.34 173.04 162.803 172.542C163.266 172.044 163.817 171.713 164.454 171.549C165.092 171.385 165.771 171.4 166.492 171.593C167.187 171.779 167.766 172.097 168.23 172.546C168.702 172.998 169.012 173.545 169.161 174.188C169.32 174.824 169.303 175.504 169.109 176.227ZM167.341 175.179C167.461 174.694 167.392 174.264 167.135 173.889C166.88 173.505 166.51 173.248 166.027 173.119C165.57 172.996 165.144 173.035 164.751 173.236C164.369 173.43 164.076 173.768 163.872 174.249L167.341 175.179Z" fill="#707070"/>
<path d="M172.944 174.684C173.287 174.355 173.677 174.129 174.115 174.008C174.562 173.888 175.031 173.894 175.524 174.026L174.996 175.995L174.508 175.864C173.928 175.708 173.451 175.729 173.078 175.926C172.714 176.125 172.44 176.568 172.255 177.255L171.265 180.951L169.419 180.457L171.407 173.038L173.253 173.532L172.944 174.684Z" fill="#707070"/>
<rect x="423.398" y="-109.908" width="132.233" height="132.233" transform="rotate(15 423.398 -109.908)" fill="#101010"/>
<rect x="352.266" y="155.564" width="132.233" height="132.233" transform="rotate(15 352.266 155.564)" fill="#101010"/>
<path d="M359.26 226.3C359.506 225.381 359.929 224.614 360.527 223.999C361.136 223.377 361.846 222.96 362.657 222.747C363.48 222.527 364.33 222.535 365.209 222.77C366.238 223.046 367.068 223.555 367.698 224.298C368.328 225.041 368.67 225.927 368.724 226.956L366.601 226.387C366.509 225.884 366.3 225.469 365.973 225.142C365.655 224.818 365.245 224.589 364.744 224.454C364.208 224.311 363.694 224.312 363.203 224.457C362.722 224.597 362.301 224.867 361.94 225.267C361.587 225.67 361.327 226.184 361.159 226.809C360.994 227.425 360.962 228 361.064 228.535C361.177 229.063 361.406 229.511 361.749 229.881C362.104 230.244 362.55 230.498 363.086 230.641C363.588 230.776 364.057 230.782 364.495 230.66C364.944 230.531 365.334 230.272 365.664 229.882L367.788 230.451C367.224 231.324 366.483 231.925 365.566 232.253C364.66 232.575 363.688 232.597 362.651 232.319C361.772 232.083 361.03 231.669 360.426 231.077C359.832 230.477 359.426 229.761 359.206 228.927C358.996 228.095 359.014 227.22 359.26 226.3Z" fill="white"/>
<path d="M371.786 234.809C371.083 234.621 370.492 234.295 370.013 233.832C369.536 233.359 369.213 232.79 369.043 232.122C368.882 231.457 368.903 230.745 369.107 229.986C369.31 229.227 369.652 228.601 370.133 228.108C370.622 227.617 371.195 227.292 371.85 227.133C372.508 226.965 373.188 226.975 373.891 227.163C374.595 227.352 375.189 227.683 375.674 228.158C376.162 228.623 376.491 229.19 376.661 229.857C376.839 230.527 376.827 231.242 376.623 232C376.42 232.759 376.069 233.383 375.571 233.871C375.081 234.362 374.503 234.691 373.837 234.856C373.182 235.016 372.498 235 371.786 234.809ZM372.224 233.175C372.558 233.265 372.892 233.268 373.225 233.185C373.569 233.096 373.874 232.909 374.138 232.626C374.402 232.343 374.598 231.965 374.725 231.492C374.914 230.786 374.874 230.197 374.605 229.723C374.347 229.242 373.955 228.931 373.427 228.79C372.9 228.649 372.404 228.722 371.941 229.009C371.489 229.29 371.168 229.783 370.979 230.488C370.79 231.193 370.816 231.784 371.056 232.26C371.307 232.729 371.696 233.034 372.224 233.175Z" fill="white"/>
<path d="M380.145 228.02C379.82 227.933 379.575 227.757 379.41 227.493C379.257 227.222 379.222 226.931 379.305 226.618C379.389 226.306 379.564 226.075 379.83 225.926C380.107 225.771 380.408 225.737 380.734 225.824C381.059 225.911 381.298 226.09 381.452 226.361C381.617 226.625 381.657 226.913 381.574 227.226C381.49 227.538 381.309 227.772 381.032 227.928C380.766 228.076 380.47 228.107 380.145 228.02ZM380.818 229.148L378.83 236.567L376.984 236.072L378.972 228.653L380.818 229.148Z" fill="white"/>
<path d="M386.716 230.615C387.587 230.848 388.215 231.318 388.601 232.024C388.989 232.721 389.049 233.569 388.781 234.569L387.614 238.922L385.768 238.427L386.866 234.329C387.024 233.74 387 233.25 386.793 232.86C386.589 232.461 386.237 232.194 385.736 232.06C385.225 231.923 384.778 231.975 384.393 232.217C384.019 232.451 383.753 232.863 383.595 233.453L382.497 237.551L380.651 237.056L382.639 229.637L384.485 230.132L384.238 231.056C384.57 230.8 384.949 230.634 385.375 230.557C385.812 230.473 386.259 230.492 386.716 230.615Z" fill="white"/>
<path d="M401.905 232.731L399.4 242.078L397.554 241.584L399.183 235.504L395.088 240.923L393.69 240.548L392.84 233.804L391.211 239.884L389.365 239.389L391.869 230.042L393.966 230.604L395.032 238.339L399.821 232.173L401.905 232.731Z" fill="#707070"/>
<path d="M404.433 243.557C403.729 243.369 403.138 243.043 402.659 242.58C402.183 242.108 401.859 241.538 401.69 240.87C401.528 240.205 401.55 239.493 401.753 238.734C401.956 237.975 402.298 237.349 402.779 236.856C403.269 236.366 403.841 236.041 404.497 235.881C405.154 235.713 405.834 235.723 406.538 235.911C407.241 236.1 407.836 236.431 408.321 236.906C408.809 237.372 409.138 237.938 409.307 238.605C409.486 239.275 409.473 239.99 409.27 240.748C409.067 241.507 408.716 242.131 408.218 242.619C407.728 243.11 407.15 243.439 406.484 243.605C405.829 243.764 405.145 243.748 404.433 243.557ZM404.871 241.924C405.205 242.013 405.538 242.016 405.871 241.933C406.216 241.844 406.52 241.657 406.784 241.374C407.049 241.091 407.245 240.713 407.371 240.24C407.56 239.534 407.52 238.945 407.252 238.471C406.994 237.99 406.601 237.68 406.074 237.538C405.546 237.397 405.051 237.47 404.588 237.757C404.136 238.038 403.815 238.531 403.626 239.236C403.437 239.941 403.462 240.532 403.703 241.008C403.954 241.477 404.343 241.782 404.871 241.924Z" fill="#707070"/>
<path d="M412.847 245.811C412.143 245.623 411.552 245.297 411.073 244.834C410.596 244.361 410.273 243.792 410.104 243.124C409.943 242.459 409.964 241.747 410.167 240.988C410.37 240.229 410.713 239.603 411.193 239.11C411.683 238.619 412.255 238.294 412.911 238.135C413.568 237.967 414.249 237.977 414.952 238.165C415.655 238.354 416.25 238.685 416.735 239.16C417.223 239.625 417.551 240.192 417.721 240.859C417.9 241.529 417.887 242.244 417.684 243.002C417.481 243.761 417.13 244.385 416.632 244.873C416.142 245.364 415.564 245.692 414.898 245.858C414.243 246.018 413.559 246.002 412.847 245.811ZM413.285 244.177C413.619 244.267 413.952 244.27 414.285 244.187C414.63 244.098 414.934 243.911 415.198 243.628C415.463 243.345 415.659 242.967 415.785 242.494C415.974 241.788 415.934 241.199 415.666 240.725C415.408 240.244 415.015 239.933 414.488 239.792C413.96 239.651 413.465 239.724 413.002 240.011C412.549 240.292 412.229 240.785 412.04 241.49C411.851 242.195 411.877 242.786 412.116 243.262C412.368 243.731 412.757 244.036 413.285 244.177Z" fill="#707070"/>
<path d="M424.103 240.632C424.974 240.865 425.602 241.335 425.987 242.041C426.375 242.738 426.435 243.587 426.167 244.586L425.001 248.939L423.155 248.444L424.253 244.346C424.411 243.757 424.387 243.267 424.18 242.877C423.976 242.478 423.623 242.211 423.122 242.077C422.613 241.94 422.165 241.993 421.78 242.234C421.406 242.469 421.14 242.881 420.983 243.47L419.885 247.568L418.038 247.073L420.026 239.654L421.872 240.149L421.625 241.073C421.957 240.817 422.336 240.651 422.762 240.574C423.199 240.49 423.646 240.509 424.103 240.632Z" fill="#707070"/>
<path d="M434.586 247.36C434.514 247.627 434.432 247.864 434.339 248.069L428.998 246.637C428.899 247.185 428.971 247.654 429.215 248.045C429.459 248.435 429.818 248.694 430.293 248.821C430.979 249.005 431.547 248.837 431.997 248.316L433.989 248.85C433.586 249.508 433.024 249.989 432.302 250.293C431.582 250.588 430.786 250.619 429.916 250.385C429.213 250.197 428.622 249.871 428.143 249.408C427.675 248.938 427.361 248.371 427.2 247.706C427.047 247.043 427.073 246.332 427.276 245.573C427.482 244.805 427.817 244.173 428.28 243.675C428.743 243.177 429.293 242.846 429.931 242.682C430.568 242.518 431.248 242.532 431.969 242.725C432.663 242.912 433.243 243.229 433.706 243.679C434.179 244.131 434.489 244.678 434.637 245.321C434.797 245.957 434.78 246.636 434.586 247.36ZM432.817 246.311C432.937 245.827 432.869 245.397 432.611 245.022C432.356 244.638 431.987 244.381 431.503 244.251C431.046 244.129 430.621 244.168 430.228 244.369C429.846 244.563 429.553 244.901 429.349 245.382L432.817 246.311Z" fill="#707070"/>
<path d="M438.421 245.817C438.764 245.488 439.154 245.262 439.592 245.14C440.038 245.021 440.508 245.027 441 245.159L440.473 247.127L439.985 246.997C439.405 246.841 438.928 246.862 438.555 247.059C438.19 247.257 437.916 247.701 437.732 248.388L436.741 252.084L434.895 251.59L436.883 244.171L438.729 244.665L438.421 245.817Z" fill="#707070"/>
<rect x="274.111" y="-83.6978" width="132.233" height="132.233" transform="rotate(15 274.111 -83.6978)" fill="#101010"/>
<path d="M323.747 -6.53062L321.242 2.81677L319.396 2.32214L321.025 -3.75767L316.93 1.66133L315.532 1.28673L314.682 -5.45738L313.053 0.622426L311.206 0.127669L313.711 -9.21973L315.808 -8.65783L316.873 -0.923072L321.663 -7.0889L323.747 -6.53062Z" fill="#707070"/>
<path d="M326.275 4.29564C325.571 4.10713 324.98 3.78134 324.501 3.31807C324.025 2.84595 323.701 2.27604 323.532 1.60867C323.37 0.943466 323.392 0.231484 323.595 -0.527399C323.798 -1.28624 324.14 -1.91224 324.621 -2.40536C325.111 -2.89618 325.683 -3.22121 326.338 -3.38053C326.996 -3.54881 327.676 -3.53878 328.38 -3.35028C329.083 -3.16189 329.678 -2.83029 330.163 -2.35575C330.651 -1.89018 330.979 -1.32363 331.149 -0.656254C331.328 0.0136569 331.315 0.727933 331.112 1.48677C330.908 2.24565 330.558 2.86936 330.059 3.35777C329.57 3.84859 328.992 4.17685 328.325 4.34284C327.67 4.50216 326.987 4.48644 326.275 4.29564ZM326.712 2.66186C327.046 2.75134 327.38 2.75466 327.713 2.67163C328.058 2.58221 328.362 2.39576 328.626 2.11252C328.891 1.8294 329.086 1.45118 329.213 0.978006C329.402 0.272714 329.362 -0.316923 329.093 -0.790783C328.836 -1.27127 328.443 -1.58216 327.915 -1.72357C327.388 -1.86486 326.893 -1.79187 326.429 -1.5046C325.977 -1.22384 325.656 -0.73093 325.467 -0.0256382C325.278 0.679654 325.304 1.27027 325.544 1.74605C325.795 2.21525 326.185 2.52045 326.712 2.66186Z" fill="#707070"/>
<path d="M334.689 6.54954C333.985 6.36104 333.394 6.03513 332.915 5.57198C332.438 5.09973 332.115 4.52995 331.946 3.86257C331.784 3.19737 331.806 2.48539 332.009 1.72651C332.212 0.967669 332.554 0.341668 333.035 -0.151449C333.525 -0.642272 334.097 -0.967303 334.752 -1.12662C335.41 -1.29491 336.09 -1.28488 336.794 -1.09637C337.497 -0.907984 338.092 -0.576379 338.577 -0.101843C339.065 0.363723 339.393 0.930156 339.563 1.59765C339.742 2.26756 339.729 2.98184 339.526 3.74068C339.323 4.49956 338.972 5.12327 338.473 5.61167C337.984 6.1025 337.406 6.43076 336.74 6.59675C336.084 6.75607 335.401 6.74035 334.689 6.54954ZM335.126 4.91576C335.46 5.00525 335.794 5.00845 336.127 4.92554C336.471 4.83599 336.776 4.64966 337.04 4.36642C337.304 4.08319 337.5 3.70508 337.627 3.23191C337.816 2.52662 337.776 1.93698 337.507 1.46312C337.25 0.982634 336.857 0.671743 336.329 0.530332C335.802 0.389042 335.307 0.462033 334.843 0.749305C334.391 1.02995 334.07 1.52298 333.882 2.22827C333.693 2.93356 333.718 3.52418 333.958 3.99984C334.209 4.46915 334.599 4.77435 335.126 4.91576Z" fill="#707070"/>
<path d="M345.945 1.36995C346.816 1.60326 347.443 2.07288 347.829 2.77904C348.217 3.47628 348.277 4.32482 348.009 5.32475L346.843 9.67705L344.997 9.18241L346.095 5.08457C346.253 4.49529 346.229 4.00557 346.022 3.61531C345.818 3.21618 345.465 2.94942 344.964 2.81514C344.454 2.67856 344.007 2.73096 343.622 2.97214C343.248 3.20698 342.982 3.61893 342.824 4.20821L341.726 8.30605L339.88 7.81129L341.868 0.392293L343.714 0.887051L343.467 1.81106C343.799 1.55563 344.178 1.38934 344.604 1.31196C345.041 1.2282 345.488 1.2475 345.945 1.36995Z" fill="#707070"/>
<path d="M356.428 8.09781C356.356 8.36563 356.274 8.60197 356.181 8.80683L350.84 7.37569C350.74 7.92309 350.813 8.39218 351.057 8.78293C351.3 9.17356 351.66 9.43255 352.134 9.55971C352.82 9.74351 353.389 9.57522 353.839 9.05471L355.83 9.58836C355.428 10.2461 354.865 10.7268 354.143 11.031C353.423 11.326 352.628 11.3569 351.758 11.1238C351.055 10.9354 350.463 10.6095 349.985 10.1463C349.517 9.67648 349.202 9.10899 349.042 8.44391C348.889 7.78113 348.915 7.07035 349.118 6.31147C349.324 5.54371 349.658 4.91081 350.122 4.41298C350.584 3.91508 351.135 3.58413 351.773 3.42006C352.41 3.25598 353.09 3.27062 353.81 3.46371C354.505 3.64981 355.084 3.96778 355.548 4.4173C356.02 4.86927 356.331 5.4165 356.479 6.05902C356.638 6.69504 356.622 7.37467 356.428 8.09781ZM354.659 7.04974C354.779 6.56523 354.711 6.13546 354.453 5.76014C354.198 5.37607 353.829 5.11922 353.345 4.98964C352.888 4.86719 352.463 4.90629 352.07 5.10723C351.688 5.30149 351.395 5.63926 351.191 6.12036L354.659 7.04974Z" fill="#707070"/>
<path d="M360.263 6.55522C360.605 6.22605 360.996 6.00049 361.434 5.87861C361.88 5.75907 362.349 5.76519 362.842 5.89718L362.315 7.86574L361.827 7.73495C361.246 7.57953 360.77 7.60007 360.397 7.79679C360.032 7.99576 359.758 8.43897 359.574 9.12642L358.583 12.8225L356.737 12.3279L358.725 4.90889L360.571 5.40353L360.263 6.55522Z" fill="#707070"/>
<rect x="202.977" y="181.774" width="132.233" height="132.233" transform="rotate(15 202.977 181.774)" fill="#101010"/>
<path d="M209.967 252.51C210.213 251.591 210.636 250.824 211.234 250.209C211.843 249.587 212.553 249.17 213.364 248.957C214.187 248.737 215.037 248.745 215.917 248.98C216.945 249.256 217.775 249.765 218.405 250.508C219.035 251.251 219.377 252.137 219.431 253.166L217.308 252.597C217.217 252.094 217.007 251.679 216.68 251.352C216.362 251.028 215.952 250.799 215.451 250.664C214.915 250.521 214.401 250.522 213.91 250.667C213.43 250.807 213.008 251.077 212.647 251.477C212.294 251.88 212.034 252.394 211.866 253.019C211.701 253.635 211.669 254.21 211.771 254.745C211.884 255.273 212.113 255.721 212.456 256.091C212.811 256.454 213.257 256.707 213.793 256.851C214.295 256.985 214.764 256.992 215.202 256.87C215.651 256.741 216.041 256.482 216.371 256.092L218.495 256.661C217.931 257.534 217.19 258.135 216.273 258.463C215.367 258.785 214.396 258.807 213.358 258.529C212.479 258.293 211.737 257.879 211.133 257.286C210.539 256.687 210.133 255.971 209.913 255.137C209.703 254.305 209.721 253.43 209.967 252.51Z" fill="white"/>
<path d="M222.493 261.019C221.79 260.831 221.199 260.505 220.72 260.042C220.243 259.569 219.92 259 219.75 258.332C219.589 257.667 219.61 256.955 219.814 256.196C220.017 255.437 220.359 254.811 220.84 254.318C221.329 253.827 221.902 253.502 222.557 253.343C223.215 253.175 223.895 253.185 224.598 253.373C225.302 253.562 225.896 253.893 226.381 254.368C226.869 254.833 227.198 255.4 227.368 256.067C227.546 256.737 227.534 257.451 227.33 258.21C227.127 258.969 226.776 259.593 226.278 260.081C225.788 260.572 225.21 260.9 224.544 261.066C223.889 261.226 223.205 261.21 222.493 261.019ZM222.931 259.385C223.265 259.475 223.599 259.478 223.932 259.395C224.276 259.306 224.581 259.119 224.845 258.836C225.109 258.553 225.305 258.175 225.432 257.702C225.621 256.996 225.581 256.407 225.312 255.933C225.054 255.452 224.662 255.141 224.134 255C223.607 254.859 223.111 254.932 222.648 255.219C222.196 255.5 221.875 255.993 221.686 256.698C221.497 257.403 221.523 257.994 221.763 258.47C222.014 258.939 222.403 259.244 222.931 259.385Z" fill="white"/>
<path d="M230.852 254.23C230.527 254.143 230.282 253.967 230.117 253.703C229.964 253.432 229.929 253.141 230.012 252.828C230.096 252.516 230.271 252.285 230.537 252.136C230.814 251.981 231.115 251.947 231.441 252.034C231.766 252.121 232.005 252.3 232.159 252.571C232.324 252.835 232.364 253.123 232.281 253.436C232.197 253.748 232.016 253.982 231.739 254.138C231.473 254.286 231.177 254.317 230.852 254.23ZM231.525 255.358L229.537 262.777L227.691 262.282L229.679 254.863L231.525 255.358Z" fill="white"/>
<path d="M237.424 256.825C238.294 257.058 238.922 257.527 239.308 258.234C239.696 258.931 239.756 259.779 239.488 260.779L238.321 265.132L236.475 264.637L237.573 260.539C237.731 259.95 237.707 259.46 237.5 259.07C237.296 258.671 236.944 258.404 236.443 258.27C235.932 258.133 235.485 258.185 235.1 258.427C234.726 258.661 234.46 259.073 234.302 259.663L233.204 263.761L231.358 263.266L233.346 255.847L235.192 256.342L234.945 257.266C235.277 257.01 235.656 256.844 236.082 256.767C236.519 256.683 236.966 256.702 237.424 256.825Z" fill="white"/>
<path d="M252.612 258.941L250.107 268.288L248.261 267.794L249.89 261.714L245.795 267.133L244.397 266.758L243.547 260.014L241.918 266.094L240.072 265.599L242.576 256.252L244.673 256.814L245.739 264.549L250.529 258.383L252.612 258.941Z" fill="#707070"/>
<path d="M255.14 269.767C254.436 269.579 253.845 269.253 253.366 268.79C252.89 268.318 252.566 267.748 252.397 267.08C252.236 266.415 252.257 265.703 252.46 264.944C252.663 264.185 253.006 263.559 253.486 263.066C253.976 262.576 254.548 262.25 255.204 262.091C255.861 261.923 256.542 261.933 257.245 262.121C257.948 262.31 258.543 262.641 259.028 263.116C259.516 263.581 259.845 264.148 260.014 264.815C260.193 265.485 260.18 266.2 259.977 266.958C259.774 267.717 259.423 268.341 258.925 268.829C258.435 269.32 257.857 269.649 257.191 269.815C256.536 269.974 255.852 269.958 255.14 269.767ZM255.578 268.134C255.912 268.223 256.245 268.226 256.578 268.143C256.923 268.054 257.227 267.867 257.491 267.584C257.756 267.301 257.952 266.923 258.078 266.45C258.267 265.744 258.227 265.155 257.959 264.681C257.701 264.2 257.308 263.89 256.781 263.748C256.253 263.607 255.758 263.68 255.295 263.967C254.843 264.248 254.522 264.741 254.333 265.446C254.144 266.151 254.169 266.742 254.41 267.218C254.661 267.687 255.05 267.992 255.578 268.134Z" fill="#707070"/>
<path d="M263.554 272.021C262.85 271.833 262.259 271.507 261.78 271.044C261.303 270.571 260.98 270.002 260.811 269.334C260.65 268.669 260.671 267.957 260.874 267.198C261.077 266.439 261.42 265.813 261.9 265.32C262.39 264.829 262.962 264.504 263.618 264.345C264.275 264.177 264.956 264.187 265.659 264.375C266.362 264.564 266.957 264.895 267.442 265.37C267.93 265.835 268.258 266.402 268.428 267.069C268.607 267.739 268.594 268.454 268.391 269.212C268.188 269.971 267.837 270.595 267.339 271.083C266.849 271.574 266.271 271.902 265.605 272.068C264.95 272.228 264.266 272.212 263.554 272.021ZM263.992 270.387C264.326 270.477 264.659 270.48 264.992 270.397C265.337 270.308 265.641 270.121 265.905 269.838C266.17 269.555 266.366 269.177 266.492 268.704C266.681 267.998 266.641 267.409 266.373 266.935C266.115 266.454 265.722 266.143 265.195 266.002C264.667 265.861 264.172 265.934 263.709 266.221C263.256 266.502 262.936 266.995 262.747 267.7C262.558 268.405 262.584 268.996 262.823 269.472C263.075 269.941 263.464 270.246 263.992 270.387Z" fill="#707070"/>
<path d="M274.81 266.842C275.681 267.075 276.309 267.545 276.694 268.251C277.082 268.948 277.142 269.796 276.874 270.796L275.708 275.149L273.862 274.654L274.96 270.556C275.118 269.967 275.094 269.477 274.887 269.087C274.683 268.688 274.33 268.421 273.829 268.287C273.32 268.15 272.872 268.203 272.487 268.444C272.113 268.679 271.847 269.091 271.69 269.68L270.592 273.778L268.745 273.283L270.733 265.864L272.579 266.359L272.332 267.283C272.664 267.027 273.043 266.861 273.469 266.784C273.906 266.7 274.353 266.719 274.81 266.842Z" fill="#707070"/>
<path d="M285.293 273.569C285.221 273.837 285.139 274.074 285.046 274.279L279.705 272.847C279.606 273.395 279.678 273.864 279.922 274.255C280.166 274.645 280.525 274.904 281 275.031C281.686 275.215 282.254 275.047 282.704 274.526L284.696 275.06C284.293 275.718 283.731 276.199 283.009 276.503C282.289 276.798 281.493 276.829 280.623 276.595C279.92 276.407 279.329 276.081 278.85 275.618C278.382 275.148 278.068 274.581 277.907 273.916C277.754 273.253 277.78 272.542 277.984 271.783C278.189 271.015 278.524 270.382 278.987 269.885C279.45 269.387 280 269.056 280.638 268.892C281.275 268.728 281.955 268.742 282.676 268.935C283.37 269.121 283.95 269.439 284.413 269.889C284.886 270.341 285.196 270.888 285.344 271.531C285.504 272.167 285.487 272.846 285.293 273.569ZM283.524 272.521C283.644 272.037 283.576 271.607 283.318 271.232C283.063 270.848 282.694 270.591 282.21 270.461C281.753 270.339 281.328 270.378 280.935 270.579C280.553 270.773 280.26 271.111 280.056 271.592L283.524 272.521Z" fill="#707070"/>
<path d="M289.128 272.027C289.471 271.698 289.861 271.472 290.299 271.35C290.745 271.231 291.215 271.237 291.707 271.369L291.18 273.337L290.692 273.207C290.112 273.051 289.635 273.072 289.262 273.268C288.897 273.467 288.623 273.911 288.439 274.598L287.449 278.294L285.603 277.8L287.59 270.381L289.436 270.875L289.128 272.027Z" fill="#707070"/>
<rect x="503.568" y="121.841" width="132.233" height="132.233" transform="rotate(15 503.568 121.841)" fill="#101010"/>
<path d="M510.563 192.577C510.809 191.658 511.231 190.89 511.83 190.276C512.439 189.654 513.149 189.237 513.96 189.024C514.782 188.804 515.633 188.812 516.512 189.047C517.541 189.323 518.37 189.832 519 190.575C519.631 191.318 519.973 192.204 520.027 193.233L517.904 192.664C517.812 192.161 517.603 191.746 517.276 191.419C516.958 191.095 516.548 190.865 516.047 190.731C515.511 190.587 514.997 190.588 514.505 190.734C514.025 190.874 513.604 191.144 513.242 191.544C512.889 191.947 512.629 192.461 512.462 193.086C512.297 193.702 512.265 194.277 512.367 194.812C512.48 195.34 512.708 195.788 513.052 196.158C513.407 196.521 513.853 196.774 514.389 196.918C514.89 197.052 515.36 197.059 515.798 196.937C516.247 196.808 516.636 196.549 516.967 196.159L519.09 196.728C518.527 197.601 517.786 198.202 516.869 198.53C515.963 198.852 514.991 198.874 513.954 198.596C513.075 198.36 512.333 197.946 511.728 197.353C511.135 196.754 510.729 196.038 510.509 195.204C510.298 194.372 510.316 193.497 510.563 192.577Z" fill="white"/>
<path d="M523.089 201.086C522.385 200.898 521.794 200.572 521.315 200.109C520.839 199.636 520.516 199.067 520.346 198.399C520.185 197.734 520.206 197.022 520.409 196.263C520.613 195.504 520.955 194.878 521.436 194.385C521.925 193.894 522.498 193.569 523.153 193.41C523.81 193.242 524.491 193.252 525.194 193.44C525.897 193.629 526.492 193.96 526.977 194.435C527.465 194.9 527.794 195.467 527.964 196.134C528.142 196.804 528.129 197.518 527.926 198.277C527.723 199.036 527.372 199.66 526.874 200.148C526.384 200.639 525.806 200.967 525.14 201.133C524.485 201.293 523.801 201.277 523.089 201.086ZM523.527 199.452C523.861 199.542 524.194 199.545 524.528 199.462C524.872 199.373 525.176 199.186 525.441 198.903C525.705 198.62 525.9 198.242 526.027 197.768C526.216 197.063 526.176 196.474 525.908 196C525.65 195.519 525.257 195.208 524.73 195.067C524.202 194.926 523.707 194.999 523.244 195.286C522.792 195.567 522.471 196.06 522.282 196.765C522.093 197.47 522.119 198.061 522.359 198.536C522.61 199.006 522.999 199.311 523.527 199.452Z" fill="white"/>
<path d="M531.448 194.297C531.122 194.21 530.878 194.034 530.713 193.77C530.559 193.499 530.524 193.207 530.608 192.895C530.692 192.583 530.867 192.352 531.133 192.203C531.41 192.048 531.711 192.014 532.036 192.101C532.362 192.188 532.601 192.367 532.755 192.638C532.92 192.902 532.96 193.19 532.876 193.503C532.793 193.815 532.612 194.049 532.335 194.204C532.069 194.353 531.773 194.384 531.448 194.297ZM532.121 195.425L530.133 202.844L528.287 202.349L530.275 194.93L532.121 195.425Z" fill="white"/>
<path d="M538.019 196.891C538.889 197.125 539.518 197.594 539.903 198.301C540.291 198.998 540.351 199.846 540.083 200.846L538.917 205.199L537.071 204.704L538.169 200.606C538.327 200.017 538.302 199.527 538.096 199.137C537.892 198.738 537.539 198.471 537.038 198.337C536.528 198.2 536.081 198.252 535.696 198.494C535.322 198.728 535.056 199.14 534.898 199.73L533.8 203.827L531.954 203.333L533.942 195.914L535.788 196.408L535.54 197.332C535.873 197.077 536.252 196.911 536.678 196.833C537.115 196.75 537.562 196.769 538.019 196.891Z" fill="white"/>
<path d="M553.208 199.008L550.703 208.355L548.857 207.861L550.486 201.781L546.391 207.2L544.993 206.825L544.143 200.081L542.514 206.161L540.667 205.666L543.172 196.319L545.269 196.881L546.334 204.616L551.124 198.45L553.208 199.008Z" fill="#707070"/>
<path d="M555.736 209.834C555.032 209.646 554.441 209.32 553.962 208.857C553.486 208.385 553.162 207.815 552.993 207.147C552.831 206.482 552.852 205.77 553.056 205.011C553.259 204.252 553.601 203.626 554.082 203.133C554.572 202.642 555.144 202.317 555.799 202.158C556.457 201.99 557.137 202 557.841 202.188C558.544 202.377 559.138 202.708 559.624 203.183C560.112 203.648 560.44 204.215 560.61 204.882C560.789 205.552 560.776 206.267 560.573 207.025C560.369 207.784 560.019 208.408 559.52 208.896C559.031 209.387 558.453 209.715 557.786 209.881C557.131 210.041 556.448 210.025 555.736 209.834ZM556.173 208.2C556.507 208.29 556.841 208.293 557.174 208.21C557.519 208.121 557.823 207.934 558.087 207.651C558.352 207.368 558.547 206.99 558.674 206.517C558.863 205.811 558.823 205.222 558.554 204.748C558.297 204.267 557.904 203.956 557.376 203.815C556.849 203.674 556.354 203.747 555.89 204.034C555.438 204.315 555.117 204.808 554.928 205.513C554.739 206.218 554.765 206.809 555.005 207.285C555.256 207.754 555.646 208.059 556.173 208.2Z" fill="#707070"/>
<rect x="238.545" y="49.0381" width="132.233" height="132.233" transform="rotate(15 238.545 49.0381)" fill="#060606"/>
<path d="M270.405 118.41C270.687 117.354 271.172 116.474 271.859 115.768C272.558 115.055 273.373 114.576 274.304 114.331C275.248 114.079 276.224 114.088 277.233 114.358C278.414 114.675 279.366 115.259 280.089 116.112C280.813 116.965 281.205 117.982 281.268 119.162L278.831 118.509C278.726 117.932 278.485 117.456 278.11 117.081C277.745 116.708 277.275 116.445 276.699 116.291C276.084 116.126 275.494 116.127 274.93 116.294C274.379 116.454 273.896 116.764 273.48 117.224C273.075 117.687 272.777 118.277 272.584 118.994C272.395 119.701 272.359 120.361 272.475 120.975C272.605 121.58 272.867 122.095 273.262 122.52C273.669 122.936 274.181 123.227 274.797 123.392C275.372 123.546 275.911 123.553 276.413 123.414C276.929 123.266 277.376 122.969 277.756 122.521L280.193 123.174C279.546 124.176 278.696 124.865 277.643 125.242C276.603 125.612 275.488 125.637 274.297 125.318C273.288 125.047 272.436 124.572 271.742 123.892C271.061 123.204 270.595 122.382 270.343 121.425C270.101 120.47 270.122 119.465 270.405 118.41Z" fill="white"/>
<path d="M284.778 128.177C283.971 127.96 283.293 127.586 282.743 127.055C282.196 126.513 281.825 125.859 281.63 125.092C281.445 124.329 281.47 123.512 281.703 122.641C281.936 121.77 282.329 121.051 282.881 120.485C283.443 119.922 284.1 119.549 284.852 119.366C285.607 119.173 286.388 119.184 287.195 119.401C288.002 119.617 288.684 119.997 289.241 120.542C289.801 121.076 290.179 121.727 290.374 122.493C290.579 123.262 290.564 124.082 290.331 124.952C290.097 125.824 289.695 126.539 289.123 127.1C288.561 127.663 287.898 128.04 287.133 128.231C286.381 128.414 285.596 128.396 284.778 128.177ZM285.281 126.301C285.664 126.404 286.047 126.408 286.43 126.313C286.825 126.21 287.174 125.996 287.478 125.671C287.781 125.346 288.006 124.912 288.151 124.369C288.368 123.559 288.322 122.882 288.014 122.338C287.718 121.787 287.268 121.43 286.662 121.268C286.057 121.105 285.488 121.189 284.956 121.519C284.437 121.841 284.069 122.407 283.852 123.217C283.636 124.026 283.665 124.704 283.94 125.25C284.229 125.789 284.676 126.139 285.281 126.301Z" fill="white"/>
<path d="M294.374 120.384C294.001 120.284 293.72 120.083 293.53 119.779C293.354 119.468 293.314 119.134 293.41 118.775C293.506 118.416 293.707 118.152 294.012 117.981C294.331 117.803 294.676 117.763 295.05 117.863C295.423 117.963 295.698 118.169 295.874 118.48C296.063 118.783 296.11 119.114 296.014 119.473C295.918 119.831 295.711 120.1 295.392 120.278C295.087 120.449 294.748 120.484 294.374 120.384ZM295.147 121.679L292.865 130.194L290.746 129.626L293.028 121.111L295.147 121.679Z" fill="white"/>
<path d="M301.918 123.362C302.917 123.629 303.638 124.169 304.081 124.979C304.526 125.779 304.595 126.753 304.288 127.901L302.949 132.897L300.83 132.329L302.09 127.625C302.271 126.949 302.243 126.387 302.006 125.939C301.772 125.481 301.368 125.175 300.792 125.021C300.207 124.864 299.693 124.924 299.252 125.201C298.822 125.47 298.517 125.943 298.336 126.619L297.076 131.323L294.957 130.755L297.239 122.24L299.357 122.807L299.073 123.868C299.454 123.575 299.89 123.384 300.379 123.295C300.88 123.199 301.393 123.221 301.918 123.362Z" fill="white"/>
<path d="M268.175 126.809L265.301 137.538L263.182 136.97L265.052 129.992L260.351 136.212L258.746 135.782L257.771 128.041L255.901 135.019L253.781 134.452L256.656 123.723L259.063 124.368L260.286 133.246L265.784 126.168L268.175 126.809Z" fill="#707070"/>
<path d="M271.08 139.235C270.272 139.019 269.594 138.645 269.044 138.113C268.497 137.571 268.126 136.917 267.931 136.151C267.746 135.388 267.77 134.57 268.004 133.699C268.237 132.828 268.63 132.11 269.182 131.544C269.744 130.98 270.401 130.607 271.153 130.425C271.908 130.231 272.688 130.243 273.496 130.459C274.303 130.675 274.985 131.056 275.543 131.601C276.102 132.135 276.48 132.785 276.674 133.551C276.88 134.32 276.865 135.14 276.632 136.011C276.398 136.882 275.996 137.598 275.424 138.159C274.862 138.722 274.198 139.099 273.434 139.289C272.682 139.472 271.897 139.454 271.08 139.235ZM271.582 137.36C271.965 137.463 272.349 137.466 272.731 137.371C273.126 137.269 273.475 137.055 273.779 136.729C274.082 136.404 274.307 135.97 274.452 135.427C274.669 134.618 274.623 133.941 274.315 133.397C274.019 132.846 273.569 132.489 272.963 132.326C272.358 132.164 271.789 132.248 271.257 132.578C270.738 132.9 270.37 133.466 270.153 134.275C269.936 135.085 269.966 135.763 270.241 136.309C270.53 136.847 270.976 137.198 271.582 137.36Z" fill="#707070"/>
<path d="M280.732 141.822C279.924 141.606 279.246 141.232 278.696 140.7C278.149 140.158 277.778 139.504 277.583 138.738C277.398 137.975 277.423 137.157 277.656 136.286C277.889 135.415 278.282 134.697 278.834 134.131C279.396 133.567 280.053 133.194 280.805 133.011C281.56 132.818 282.341 132.83 283.148 133.046C283.955 133.262 284.638 133.643 285.195 134.188C285.755 134.722 286.132 135.372 286.327 136.138C286.532 136.907 286.517 137.727 286.284 138.598C286.051 139.469 285.648 140.185 285.076 140.746C284.514 141.309 283.851 141.686 283.086 141.876C282.334 142.059 281.549 142.041 280.732 141.822ZM281.234 139.947C281.618 140.05 282 140.053 282.383 139.958C282.778 139.855 283.128 139.641 283.431 139.316C283.734 138.991 283.959 138.557 284.105 138.014C284.322 137.205 284.276 136.528 283.967 135.984C283.672 135.432 283.221 135.076 282.615 134.913C282.01 134.751 281.441 134.835 280.91 135.165C280.39 135.487 280.022 136.053 279.805 136.862C279.589 137.672 279.618 138.35 279.893 138.896C280.182 139.434 280.629 139.785 281.234 139.947Z" fill="#707070"/>
<path d="M293.657 135.877C294.656 136.145 295.377 136.684 295.819 137.494C296.265 138.295 296.333 139.269 296.026 140.416L294.687 145.412L292.568 144.844L293.829 140.141C294.01 139.464 293.982 138.902 293.745 138.454C293.511 137.996 293.106 137.69 292.531 137.536C291.946 137.379 291.432 137.439 290.99 137.716C290.561 137.986 290.256 138.458 290.075 139.135L288.814 143.838L286.695 143.27L288.977 134.755L291.096 135.323L290.812 136.383C291.193 136.09 291.629 135.899 292.117 135.81C292.619 135.714 293.132 135.736 293.657 135.877Z" fill="#707070"/>
<path d="M305.69 143.6C305.608 143.907 305.514 144.178 305.407 144.414L299.277 142.771C299.162 143.399 299.245 143.938 299.526 144.386C299.805 144.835 300.218 145.132 300.763 145.278C301.55 145.489 302.202 145.296 302.719 144.698L305.005 145.311C304.543 146.066 303.897 146.617 303.068 146.966C302.242 147.305 301.329 147.341 300.33 147.073C299.523 146.857 298.845 146.483 298.295 145.951C297.758 145.412 297.397 144.76 297.212 143.997C297.038 143.236 297.067 142.42 297.301 141.549C297.537 140.668 297.92 139.942 298.452 139.37C298.983 138.799 299.615 138.419 300.347 138.231C301.079 138.042 301.859 138.059 302.686 138.281C303.483 138.494 304.148 138.859 304.681 139.375C305.223 139.894 305.579 140.522 305.749 141.26C305.932 141.99 305.913 142.77 305.69 143.6ZM303.66 142.397C303.798 141.841 303.72 141.347 303.424 140.917C303.131 140.476 302.707 140.181 302.152 140.032C301.628 139.892 301.139 139.937 300.688 140.167C300.25 140.39 299.914 140.778 299.679 141.33L303.66 142.397Z" fill="#707070"/>
<path d="M310.089 141.829C310.483 141.451 310.931 141.192 311.433 141.052C311.946 140.915 312.484 140.922 313.05 141.073L312.444 143.333L311.884 143.183C311.218 143.004 310.671 143.028 310.243 143.254C309.825 143.482 309.51 143.991 309.298 144.78L308.162 149.022L306.043 148.454L308.324 139.939L310.443 140.507L310.089 141.829Z" fill="#707070"/>
<rect x="539.135" y="-10.895" width="132.233" height="132.233" transform="rotate(15 539.135 -10.895)" fill="#060606"/>
<path d="M568.767 66.8761L565.892 77.6051L563.774 77.0373L565.643 70.0589L560.943 76.2789L559.338 75.8489L558.362 68.108L556.493 75.0864L554.373 74.5185L557.248 63.7896L559.655 64.4345L560.878 73.3125L566.376 66.2353L568.767 66.8761Z" fill="#707070"/>
<rect x="468.002" y="254.577" width="132.233" height="132.233" transform="rotate(15 468.002 254.577)" fill="#060606"/>
<rect x="122.357" y="-48.3047" width="132.233" height="132.233" transform="rotate(15 122.357 -48.3047)" fill="#060606"/>
<path d="M154.219 21.0671C154.502 20.0116 154.987 19.131 155.673 18.4253C156.373 17.7121 157.188 17.2332 158.119 16.9883C159.062 16.736 160.039 16.745 161.048 17.0154C162.229 17.3318 163.181 17.9163 163.904 18.7691C164.627 19.6219 165.02 20.6387 165.082 21.8196L162.645 21.1666C162.54 20.5893 162.3 20.1131 161.925 19.738C161.559 19.3655 161.089 19.1022 160.514 18.9481C159.898 18.7832 159.308 18.7844 158.744 18.9517C158.193 19.1116 157.71 19.4215 157.295 19.8813C156.89 20.3439 156.591 20.9338 156.399 21.6511C156.209 22.3582 156.173 23.0184 156.29 23.6318C156.42 24.2377 156.682 24.7527 157.076 25.177C157.484 25.5937 157.995 25.8846 158.611 26.0495C159.186 26.2036 159.725 26.2107 160.228 26.0708C160.743 25.9233 161.191 25.6259 161.57 25.1784L164.007 25.8314C163.36 26.8332 162.51 27.5226 161.457 27.8995C160.417 28.2688 159.302 28.2939 158.111 27.9749C157.102 27.7045 156.251 27.2292 155.557 26.5491C154.876 25.8614 154.409 25.039 154.158 24.0819C153.916 23.1274 153.936 22.1225 154.219 21.0671Z" fill="white"/>
<path d="M168.593 30.8337C167.786 30.6174 167.107 30.2434 166.557 29.7117C166.01 29.1698 165.639 28.5157 165.445 27.7496C165.26 26.9862 165.284 26.169 165.517 25.2979C165.751 24.4269 166.143 23.7084 166.695 23.1423C167.257 22.579 167.914 22.2059 168.666 22.023C169.421 21.8299 170.202 21.8415 171.009 22.0578C171.817 22.2741 172.499 22.6546 173.056 23.1993C173.616 23.7336 173.993 24.3839 174.188 25.1501C174.393 25.9189 174.379 26.7387 174.145 27.6097C173.912 28.4808 173.509 29.1967 172.937 29.7573C172.375 30.3206 171.712 30.6975 170.947 30.8879C170.195 31.0708 169.41 31.0527 168.593 30.8337ZM169.095 28.9585C169.479 29.0612 169.862 29.065 170.244 28.9698C170.64 28.867 170.989 28.6531 171.292 28.328C171.596 28.003 171.82 27.5688 171.966 27.0257C172.183 26.2162 172.137 25.5395 171.828 24.9955C171.533 24.444 171.082 24.0872 170.477 23.9249C169.871 23.7627 169.302 23.8465 168.771 24.1762C168.252 24.4984 167.884 25.0643 167.667 25.8739C167.45 26.6834 167.479 27.3612 167.755 27.9073C168.043 28.4459 168.49 28.7962 169.095 28.9585Z" fill="white"/>
<path d="M178.189 23.0415C177.815 22.9414 177.534 22.7398 177.345 22.4365C177.169 22.1257 177.129 21.791 177.225 21.4323C177.321 21.0736 177.522 20.8089 177.827 20.6381C178.145 20.4598 178.491 20.4205 178.864 20.5206C179.238 20.6207 179.512 20.8261 179.689 21.1369C179.878 21.4403 179.924 21.7713 179.828 22.1299C179.732 22.4886 179.525 22.757 179.207 22.9353C178.901 23.1062 178.562 23.1416 178.189 23.0415ZM178.961 24.3358L176.679 32.8513L174.561 32.2836L176.842 23.768L178.961 24.3358Z" fill="white"/>
<path d="M185.733 26.0191C186.732 26.2867 187.453 26.8259 187.895 27.6364C188.341 28.4367 188.41 29.4107 188.102 30.5584L186.764 35.554L184.644 34.9861L185.904 30.2826C186.086 29.6062 186.058 29.0441 185.821 28.5962C185.587 28.1382 185.182 27.832 184.607 27.6778C184.021 27.5209 183.508 27.5811 183.066 27.8581C182.637 28.1275 182.332 28.6004 182.15 29.2767L180.89 33.9802L178.771 33.4124L181.053 24.8969L183.172 25.4646L182.888 26.5253C183.269 26.232 183.704 26.0412 184.193 25.9525C184.695 25.8562 185.208 25.8784 185.733 26.0191Z" fill="white"/>
<path d="M151.99 29.4664L149.115 40.1954L146.996 39.6277L148.866 32.6492L144.166 38.8692L142.561 38.4392L141.585 30.6983L139.715 37.6767L137.596 37.1088L140.471 26.3799L142.878 27.0248L144.1 35.9028L149.598 28.8256L151.99 29.4664Z" fill="#707070"/>
<path d="M154.894 41.8924C154.086 41.6761 153.408 41.3021 152.858 40.7704C152.311 40.2285 151.94 39.5744 151.746 38.8083C151.56 38.0448 151.585 37.2276 151.818 36.3566C152.052 35.4856 152.444 34.767 152.996 34.201C153.558 33.6377 154.215 33.2646 154.967 33.0817C155.722 32.8886 156.503 32.9001 157.31 33.1165C158.117 33.3327 158.8 33.7133 159.357 34.258C159.917 34.7924 160.294 35.4426 160.489 36.2087C160.694 36.9776 160.68 37.7974 160.446 38.6684C160.213 39.5395 159.81 40.2554 159.238 40.816C158.676 41.3793 158.013 41.7561 157.248 41.9466C156.496 42.1295 155.711 42.1115 154.894 41.8924ZM155.396 40.0172C155.78 40.1199 156.163 40.1237 156.545 40.0284C156.941 39.9258 157.29 39.7118 157.593 39.3867C157.897 39.0617 158.121 38.6276 158.267 38.0845C158.484 37.2749 158.438 36.5981 158.129 36.0542C157.834 35.5027 157.383 35.1459 156.777 34.9836C156.172 34.8214 155.604 34.9052 155.072 35.2349C154.553 35.5572 154.184 36.1229 153.968 36.9325C153.751 37.742 153.78 38.4199 154.056 38.966C154.344 39.5046 154.791 39.8549 155.396 40.0172Z" fill="#707070"/>
<path d="M164.546 44.4794C163.739 44.263 163.06 43.8889 162.511 43.3573C161.963 42.8153 161.592 42.1613 161.398 41.3953C161.213 40.6317 161.237 39.8145 161.471 38.9435C161.704 38.0725 162.097 37.3539 162.649 36.7879C163.21 36.2246 163.867 35.8515 164.62 35.6686C165.374 35.4755 166.155 35.487 166.963 35.7034C167.77 35.9196 168.452 36.3002 169.009 36.8449C169.569 37.3793 169.946 38.0294 170.141 38.7956C170.346 39.5645 170.332 40.3843 170.099 41.2553C169.865 42.1264 169.463 42.8423 168.89 43.4029C168.329 43.9662 167.665 44.343 166.9 44.5335C166.148 44.7164 165.364 44.6984 164.546 44.4794ZM165.049 42.6041C165.432 42.7068 165.815 42.7105 166.197 42.6153C166.592 42.5125 166.942 42.2987 167.245 41.9736C167.549 41.6485 167.774 41.2145 167.919 40.6714C168.136 39.8618 168.09 39.1851 167.782 38.6412C167.486 38.0897 167.035 37.7328 166.43 37.5705C165.824 37.4083 165.256 37.4921 164.724 37.8218C164.205 38.144 163.837 38.7099 163.62 39.5194C163.403 40.3289 163.433 41.0068 163.708 41.5528C163.996 42.0915 164.443 42.4418 165.049 42.6041Z" fill="#707070"/>
<path d="M177.471 38.5342C178.471 38.802 179.191 39.341 179.634 40.1515C180.079 40.9518 180.148 41.9258 179.84 43.0735L178.502 48.0691L176.383 47.5013L177.643 42.7978C177.824 42.1215 177.797 41.5594 177.56 41.1114C177.325 40.6533 176.92 40.3471 176.345 40.193C175.76 40.0362 175.247 40.0964 174.804 40.3732C174.376 40.6427 174.07 41.1156 173.889 41.7919L172.629 46.4955L170.51 45.9276L172.791 37.412L174.911 37.9799L174.626 39.0405C175.008 38.7473 175.443 38.5565 175.932 38.4676C176.434 38.3715 176.947 38.3936 177.471 38.5342Z" fill="#707070"/>
<path d="M189.505 46.257C189.422 46.5644 189.328 46.8357 189.222 47.0708L183.091 45.4282C182.977 46.0565 183.06 46.5949 183.34 47.0434C183.62 47.4918 184.032 47.789 184.577 47.935C185.364 48.146 186.017 47.9528 186.533 47.3554L188.819 47.9679C188.357 48.7228 187.712 49.2746 186.883 49.6237C186.056 49.9624 185.144 49.9979 184.145 49.7302C183.338 49.514 182.659 49.1399 182.11 48.6083C181.573 48.069 181.212 47.4177 181.027 46.6543C180.852 45.8935 180.882 45.0777 181.115 44.2067C181.351 43.3254 181.735 42.599 182.267 42.0276C182.798 41.4561 183.43 41.0762 184.162 40.8879C184.893 40.6996 185.674 40.7164 186.501 40.938C187.298 41.1516 187.963 41.5166 188.495 42.0325C189.037 42.5513 189.394 43.1794 189.564 43.9169C189.747 44.6469 189.727 45.427 189.505 46.257ZM187.475 45.054C187.613 44.4979 187.534 44.0046 187.238 43.5738C186.945 43.133 186.522 42.8382 185.966 42.6895C185.442 42.5489 184.954 42.5938 184.503 42.8244C184.064 43.0474 183.728 43.4351 183.494 43.9873L187.475 45.054Z" fill="#707070"/>
<path d="M193.904 44.4858C194.297 44.108 194.745 43.849 195.248 43.7092C195.76 43.5719 196.299 43.579 196.864 43.7305L196.259 45.99L195.699 45.8399C195.033 45.6615 194.485 45.685 194.057 45.9108C193.639 46.1392 193.324 46.6479 193.113 47.437L191.976 51.6794L189.857 51.1117L192.139 42.5961L194.258 43.1639L193.904 44.4858Z" fill="#707070"/>
<rect x="51.2246" y="217.167" width="132.233" height="132.233" transform="rotate(15 51.2246 217.167)" fill="#060606"/>
<path d="M83.0863 286.539C83.3691 285.484 83.8538 284.603 84.5405 283.897C85.2399 283.184 86.055 282.705 86.9859 282.461C87.9296 282.208 88.906 282.217 89.9151 282.488C91.0958 282.804 92.0478 283.388 92.7711 284.241C93.4944 285.094 93.8871 286.111 93.9492 287.292L91.5122 286.639C91.4073 286.061 91.1671 285.585 90.7918 285.21C90.4265 284.838 89.9562 284.574 89.381 284.42C88.7655 284.255 88.1757 284.257 87.6117 284.424C87.0605 284.584 86.5773 284.894 86.1621 285.353C85.7569 285.816 85.4582 286.406 85.266 287.123C85.0766 287.83 85.0403 288.491 85.1571 289.104C85.2868 289.71 85.549 290.225 85.9436 290.649C86.3511 291.066 86.8627 291.357 87.4782 291.522C88.0534 291.676 88.5923 291.683 89.0949 291.543C89.6103 291.395 90.0577 291.098 90.4372 290.651L92.8743 291.304C92.2273 292.305 91.3774 292.995 90.3246 293.372C89.2846 293.741 88.1693 293.766 86.9785 293.447C85.9694 293.177 85.1179 292.701 84.4241 292.021C83.7431 291.334 83.2766 290.511 83.0248 289.554C82.783 288.6 82.8035 287.595 83.0863 286.539Z" fill="white"/>
<path d="M97.4601 296.306C96.6528 296.09 95.9743 295.716 95.4246 295.184C94.8776 294.642 94.5066 293.988 94.3117 293.222C94.1269 292.458 94.1512 291.641 94.3846 290.77C94.618 289.899 95.0106 289.181 95.5624 288.615C96.1244 288.051 96.7814 287.678 97.5334 287.495C98.2882 287.302 99.0693 287.314 99.8766 287.53C100.684 287.746 101.366 288.127 101.923 288.671C102.483 289.206 102.86 289.856 103.055 290.622C103.26 291.391 103.246 292.211 103.012 293.082C102.779 293.953 102.376 294.669 101.804 295.229C101.243 295.793 100.579 296.17 99.8143 296.36C99.0622 296.543 98.2775 296.525 97.4601 296.306ZM97.9626 294.431C98.3461 294.533 98.729 294.537 99.1115 294.442C99.5067 294.339 99.8561 294.125 100.159 293.8C100.463 293.475 100.687 293.041 100.833 292.498C101.05 291.688 101.004 291.012 100.696 290.468C100.4 289.916 99.9493 289.559 99.3438 289.397C98.7383 289.235 98.1697 289.319 97.6379 289.648C97.1189 289.971 96.751 290.536 96.5341 291.346C96.3171 292.156 96.3464 292.833 96.6219 293.379C96.9102 293.918 97.3572 294.268 97.9626 294.431Z" fill="white"/>
<path d="M107.056 288.514C106.682 288.414 106.401 288.212 106.212 287.909C106.036 287.598 105.996 287.263 106.092 286.904C106.188 286.546 106.389 286.281 106.694 286.11C107.012 285.932 107.358 285.893 107.731 285.993C108.105 286.093 108.38 286.298 108.556 286.609C108.745 286.912 108.792 287.243 108.696 287.602C108.599 287.961 108.392 288.229 108.074 288.408C107.769 288.578 107.429 288.614 107.056 288.514ZM107.828 289.808L105.547 298.323L103.428 297.756L105.709 289.24L107.828 289.808Z" fill="white"/>
<path d="M114.6 291.491C115.599 291.759 116.32 292.298 116.763 293.109C117.208 293.909 117.277 294.883 116.969 296.031L115.631 301.026L113.511 300.458L114.772 295.755C114.953 295.078 114.925 294.516 114.688 294.068C114.454 293.61 114.049 293.304 113.474 293.15C112.889 292.993 112.375 293.053 111.933 293.33C111.504 293.6 111.199 294.073 111.018 294.749L109.757 299.452L107.638 298.885L109.92 290.369L112.039 290.937L111.755 291.997C112.136 291.704 112.571 291.513 113.06 291.425C113.562 291.328 114.075 291.351 114.6 291.491Z" fill="white"/>
<path d="M80.8571 294.938L77.9823 305.667L75.8634 305.099L77.7333 298.121L73.0328 304.341L71.4281 303.911L70.4523 296.17L68.5824 303.148L66.4631 302.581L69.3379 291.852L71.7449 292.497L72.9677 301.374L78.4656 294.297L80.8571 294.938Z" fill="#707070"/>
<path d="M83.7612 307.364C82.9536 307.148 82.2754 306.774 81.7254 306.242C81.1787 305.7 80.8073 305.046 80.6128 304.28C80.4276 303.516 80.452 302.699 80.6853 301.828C80.9187 300.957 81.3114 300.239 81.8634 299.673C82.4252 299.109 83.0823 298.736 83.8344 298.553C84.5892 298.36 85.37 298.372 86.1775 298.588C86.9845 298.804 87.6671 299.185 88.2242 299.73C88.784 300.264 89.1614 300.914 89.3559 301.68C89.5613 302.449 89.5467 303.269 89.3134 304.14C89.08 305.011 88.6775 305.727 88.1053 306.288C87.5435 306.851 86.8798 307.228 86.1152 307.418C85.3632 307.601 84.5785 307.583 83.7612 307.364ZM84.2636 305.489C84.6469 305.592 85.0302 305.595 85.4122 305.5C85.8078 305.397 86.1568 305.183 86.4602 304.858C86.764 304.533 86.9885 304.099 87.134 303.556C87.3509 302.747 87.3049 302.07 86.9966 301.526C86.7008 300.974 86.2503 300.618 85.6445 300.455C85.0393 300.293 84.4707 300.377 83.9388 300.707C83.42 301.029 83.0516 301.595 82.8347 302.404C82.6178 303.214 82.6474 303.892 82.923 304.438C83.2112 304.976 83.6579 305.327 84.2636 305.489Z" fill="#707070"/>
<rect x="387.832" y="22.8281" width="132.233" height="132.233" transform="rotate(15 387.832 22.8281)" fill="#101010"/>
<path d="M419.696 92.1999C419.978 91.1444 420.463 90.2638 421.15 89.5581C421.849 88.845 422.664 88.366 423.595 88.1212C424.539 87.8688 425.515 87.8778 426.524 88.1482C427.705 88.4646 428.657 89.0491 429.38 89.9019C430.104 90.7547 430.496 91.7715 430.559 92.9524L428.122 92.2994C428.017 91.7221 427.776 91.2459 427.401 90.8708C427.036 90.4983 426.566 90.235 425.99 90.0809C425.375 89.916 424.785 89.9172 424.221 90.0845C423.67 90.2444 423.187 90.5543 422.771 91.0141C422.366 91.4767 422.068 92.0666 421.875 92.7839C421.686 93.491 421.65 94.1512 421.766 94.7646C421.896 95.3705 422.158 95.8855 422.553 96.3098C422.96 96.7265 423.472 97.0174 424.088 97.1823C424.663 97.3364 425.202 97.3435 425.704 97.2036C426.22 97.0561 426.667 96.7587 427.047 96.3112L429.484 96.9642C428.837 97.9661 427.987 98.6554 426.934 99.0323C425.894 99.4016 424.779 99.4268 423.588 99.1077C422.579 98.8373 421.727 98.362 421.033 97.6819C420.352 96.9942 419.886 96.1718 419.634 95.2147C419.392 94.2602 419.413 93.2553 419.696 92.1999Z" fill="white"/>
<path d="M434.07 101.967C433.262 101.75 432.584 101.376 432.034 100.845C431.487 100.303 431.116 99.6485 430.921 98.8824C430.736 98.119 430.761 97.3018 430.994 96.4307C431.227 95.5597 431.62 94.8412 432.172 94.2752C432.734 93.7118 433.391 93.3387 434.143 93.1558C434.898 92.9627 435.679 92.9743 436.486 93.1906C437.293 93.4069 437.975 93.7874 438.533 94.3321C439.092 94.8664 439.47 95.5167 439.665 96.2829C439.87 97.0517 439.855 97.8715 439.622 98.7425C439.388 99.6136 438.986 100.329 438.414 100.89C437.852 101.453 437.189 101.83 436.424 102.021C435.672 102.204 434.887 102.186 434.07 101.967ZM434.572 100.091C434.955 100.194 435.338 100.198 435.721 100.103C436.116 99.9998 436.465 99.7859 436.769 99.4609C437.072 99.1358 437.297 98.7017 437.442 98.1585C437.659 97.349 437.613 96.6723 437.305 96.1283C437.009 95.5768 436.559 95.22 435.953 95.0578C435.348 94.8955 434.779 94.9793 434.247 95.309C433.728 95.6313 433.36 96.1971 433.143 97.0067C432.927 97.8162 432.956 98.494 433.231 99.0401C433.52 99.5787 433.967 99.9291 434.572 100.091Z" fill="white"/>
<path d="M443.665 94.1743C443.292 94.0742 443.011 93.8726 442.821 93.5693C442.645 93.2585 442.605 92.9238 442.701 92.5651C442.797 92.2064 442.998 91.9417 443.303 91.7709C443.622 91.5926 443.967 91.5534 444.341 91.6534C444.714 91.7535 444.989 91.9589 445.165 92.2697C445.354 92.5731 445.401 92.9041 445.305 93.2627C445.209 93.6214 445.002 93.8899 444.683 94.0682C444.378 94.239 444.039 94.2744 443.665 94.1743ZM444.438 95.4686L442.156 103.984L440.037 103.416L442.319 94.9009L444.438 95.4686Z" fill="white"/>
<path d="M451.209 97.1519C452.208 97.4195 452.929 97.9587 453.372 98.7692C453.817 99.5695 453.886 100.543 453.579 101.691L452.24 106.687L450.121 106.119L451.381 101.415C451.562 100.739 451.534 100.177 451.297 99.729C451.064 99.271 450.659 98.9648 450.084 98.8107C449.498 98.6537 448.984 98.7139 448.543 98.9909C448.113 99.2603 447.808 99.7332 447.627 100.409L446.367 105.113L444.248 104.545L446.53 96.0297L448.648 96.5975L448.364 97.6581C448.746 97.3648 449.181 97.174 449.67 97.0853C450.171 96.989 450.684 97.0112 451.209 97.1519Z" fill="white"/>
<path d="M417.463 100.599L414.588 111.328L412.469 110.76L414.339 103.782L409.638 110.002L408.034 109.572L407.058 101.831L405.188 108.809L403.069 108.241L405.943 97.5122L408.35 98.1572L409.573 107.035L415.071 99.958L417.463 100.599Z" fill="#707070"/>
<path d="M420.367 113.025C419.559 112.809 418.881 112.435 418.331 111.903C417.784 111.361 417.413 110.707 417.218 109.941C417.033 109.178 417.057 108.36 417.291 107.489C417.524 106.618 417.917 105.9 418.469 105.334C419.031 104.77 419.688 104.397 420.44 104.215C421.195 104.021 421.976 104.033 422.783 104.249C423.59 104.465 424.273 104.846 424.83 105.391C425.389 105.925 425.767 106.575 425.961 107.341C426.167 108.11 426.152 108.93 425.919 109.801C425.685 110.672 425.283 111.388 424.711 111.949C424.149 112.512 423.485 112.889 422.721 113.079C421.969 113.262 421.184 113.244 420.367 113.025ZM420.869 111.15C421.252 111.253 421.636 111.257 422.018 111.161C422.413 111.059 422.762 110.845 423.066 110.519C423.369 110.195 423.594 109.76 423.739 109.217C423.956 108.408 423.91 107.731 423.602 107.187C423.306 106.636 422.856 106.279 422.25 106.116C421.645 105.954 421.076 106.038 420.544 106.368C420.025 106.69 419.657 107.256 419.44 108.065C419.223 108.875 419.253 109.553 419.528 110.099C419.817 110.637 420.263 110.988 420.869 111.15Z" fill="#707070"/>
<path d="M430.019 115.612C429.211 115.395 428.533 115.021 427.983 114.49C427.436 113.948 427.065 113.294 426.871 112.528C426.685 111.764 426.71 110.947 426.943 110.076C427.177 109.205 427.569 108.486 428.121 107.92C428.683 107.357 429.34 106.984 430.092 106.801C430.847 106.608 431.628 106.619 432.435 106.836C433.242 107.052 433.925 107.433 434.482 107.977C435.042 108.512 435.419 109.162 435.614 109.928C435.819 110.697 435.805 111.517 435.571 112.388C435.338 113.259 434.935 113.975 434.363 114.535C433.801 115.099 433.138 115.475 432.373 115.666C431.621 115.849 430.836 115.831 430.019 115.612ZM430.521 113.736C430.905 113.839 431.287 113.843 431.67 113.748C432.065 113.645 432.415 113.431 432.718 113.106C433.021 112.781 433.246 112.347 433.392 111.804C433.609 110.994 433.563 110.317 433.254 109.773C432.959 109.222 432.508 108.865 431.902 108.703C431.297 108.541 430.729 108.624 430.197 108.954C429.677 109.276 429.309 109.842 429.093 110.652C428.876 111.461 428.905 112.139 429.18 112.685C429.469 113.224 429.916 113.574 430.521 113.736Z" fill="#707070"/>
<path d="M442.944 109.667C443.943 109.934 444.664 110.473 445.106 111.284C445.552 112.084 445.621 113.058 445.313 114.206L443.974 119.201L441.856 118.634L443.116 113.93C443.297 113.254 443.269 112.692 443.032 112.244C442.798 111.786 442.393 111.479 441.818 111.325C441.233 111.169 440.719 111.229 440.277 111.506C439.848 111.775 439.543 112.248 439.362 112.924L438.102 117.628L435.982 117.06L438.264 108.544L440.383 109.112L440.099 110.173C440.48 109.88 440.916 109.689 441.404 109.6C441.906 109.504 442.419 109.526 442.944 109.667Z" fill="#707070"/>
<path d="M454.978 117.389C454.895 117.697 454.801 117.968 454.695 118.203L448.564 116.56C448.45 117.189 448.533 117.727 448.813 118.176C449.092 118.624 449.505 118.921 450.05 119.067C450.837 119.278 451.489 119.085 452.006 118.488L454.292 119.1C453.83 119.855 453.184 120.407 452.356 120.756C451.529 121.095 450.616 121.13 449.617 120.863C448.81 120.646 448.132 120.272 447.582 119.741C447.045 119.201 446.684 118.55 446.5 117.787C446.325 117.026 446.354 116.21 446.588 115.339C446.824 114.458 447.208 113.731 447.739 113.16C448.271 112.588 448.902 112.209 449.634 112.02C450.366 111.832 451.146 111.849 451.973 112.07C452.77 112.284 453.436 112.649 453.968 113.165C454.51 113.684 454.866 114.312 455.036 115.049C455.219 115.779 455.2 116.559 454.978 117.389ZM452.947 116.186C453.085 115.63 453.007 115.137 452.711 114.706C452.418 114.265 451.994 113.971 451.439 113.822C450.915 113.681 450.426 113.726 449.975 113.957C449.537 114.18 449.201 114.567 448.966 115.12L452.947 116.186Z" fill="#707070"/>
<path d="M459.376 115.618C459.77 115.24 460.218 114.981 460.72 114.841C461.233 114.704 461.772 114.711 462.337 114.863L461.732 117.122L461.171 116.972C460.506 116.794 459.958 116.817 459.53 117.043C459.112 117.272 458.797 117.78 458.585 118.569L457.449 122.812L455.33 122.244L457.612 113.728L459.73 114.296L459.376 115.618Z" fill="#707070"/>
<rect x="316.699" y="288.3" width="132.233" height="132.233" transform="rotate(15 316.699 288.3)" fill="#060606"/>
</svg>
