<svg width="532" height="291" viewBox="0 0 532 291" fill="none" xmlns="http://www.w3.org/2000/svg">
<rect x="86.791" y="71.4307" width="132.233" height="132.233" transform="rotate(15 86.791 71.4307)" fill="#ECECEC"/>
<path d="M93.7834 142.167C94.0298 141.248 94.4521 140.48 95.0504 139.866C95.6597 139.244 96.3699 138.827 97.1809 138.614C98.0031 138.394 98.8537 138.402 99.7329 138.637C100.762 138.913 101.591 139.422 102.221 140.165C102.851 140.908 103.193 141.794 103.248 142.823L101.124 142.254C101.033 141.751 100.824 141.336 100.497 141.009C100.178 140.685 99.7688 140.455 99.2676 140.321C98.7313 140.177 98.2175 140.178 97.7261 140.324C97.2459 140.463 96.8249 140.733 96.4631 141.134C96.1102 141.537 95.8499 142.051 95.6825 142.676C95.5174 143.292 95.4858 143.867 95.5876 144.402C95.7006 144.929 95.929 145.378 96.2728 145.748C96.6279 146.111 97.0735 146.364 97.6098 146.508C98.111 146.642 98.5805 146.648 99.0183 146.526C99.4673 146.398 99.8572 146.139 100.188 145.749L102.311 146.318C101.747 147.191 101.007 147.791 100.09 148.12C99.1836 148.441 98.2119 148.463 97.1745 148.185C96.2953 147.95 95.5535 147.536 94.949 146.943C94.3557 146.344 93.9493 145.628 93.7299 144.794C93.5192 143.962 93.537 143.087 93.7834 142.167Z" fill="#F3DE38"/>
<path d="M106.309 150.676C105.605 150.487 105.014 150.162 104.535 149.698C104.059 149.226 103.735 148.656 103.566 147.989C103.405 147.324 103.426 146.612 103.629 145.853C103.832 145.094 104.174 144.468 104.655 143.975C105.145 143.484 105.717 143.159 106.372 143C107.03 142.831 107.71 142.842 108.414 143.03C109.117 143.219 109.711 143.55 110.197 144.025C110.685 144.49 111.013 145.057 111.183 145.724C111.362 146.394 111.349 147.108 111.146 147.867C110.942 148.626 110.592 149.25 110.093 149.738C109.604 150.229 109.026 150.557 108.36 150.723C107.704 150.882 107.021 150.867 106.309 150.676ZM106.746 149.042C107.08 149.132 107.414 149.135 107.747 149.052C108.092 148.962 108.396 148.776 108.66 148.493C108.925 148.21 109.12 147.831 109.247 147.358C109.436 146.653 109.396 146.063 109.127 145.589C108.87 145.109 108.477 144.798 107.95 144.657C107.422 144.515 106.927 144.588 106.463 144.876C106.011 145.156 105.691 145.649 105.502 146.355C105.313 147.06 105.338 147.651 105.578 148.126C105.829 148.596 106.219 148.901 106.746 149.042Z" fill="#F3DE38"/>
<path d="M114.668 143.887C114.342 143.8 114.097 143.624 113.933 143.36C113.779 143.089 113.744 142.797 113.828 142.485C113.912 142.172 114.086 141.942 114.352 141.793C114.63 141.638 114.931 141.603 115.256 141.691C115.581 141.778 115.821 141.957 115.974 142.228C116.139 142.492 116.18 142.78 116.096 143.093C116.012 143.405 115.832 143.639 115.555 143.794C115.289 143.943 114.993 143.974 114.668 143.887ZM115.341 145.014L113.353 152.433L111.507 151.939L113.495 144.52L115.341 145.014Z" fill="#F3DE38"/>
<path d="M121.24 146.481C122.11 146.714 122.738 147.184 123.124 147.89C123.512 148.588 123.572 149.436 123.304 150.436L122.138 154.788L120.291 154.294L121.389 150.196C121.547 149.607 121.523 149.117 121.316 148.727C121.113 148.328 120.76 148.061 120.259 147.926C119.749 147.79 119.302 147.842 118.917 148.084C118.543 148.318 118.277 148.73 118.119 149.319L117.021 153.417L115.175 152.923L117.163 145.504L119.009 145.998L118.761 146.922C119.093 146.667 119.473 146.501 119.899 146.423C120.336 146.339 120.782 146.359 121.24 146.481Z" fill="#F3DE38"/>
<path d="M136.426 148.598L133.922 157.945L132.076 157.451L133.705 151.371L129.61 156.79L128.212 156.415L127.362 149.671L125.732 155.751L123.886 155.256L126.391 145.909L128.488 146.471L129.553 154.205L134.343 148.04L136.426 148.598Z" fill="#707070"/>
<path d="M138.955 159.424C138.252 159.236 137.661 158.91 137.182 158.446C136.705 157.974 136.382 157.404 136.212 156.737C136.051 156.072 136.072 155.36 136.276 154.601C136.479 153.842 136.821 153.216 137.302 152.723C137.791 152.232 138.364 151.907 139.019 151.748C139.677 151.58 140.357 151.59 141.06 151.778C141.764 151.967 142.358 152.298 142.844 152.773C143.331 153.238 143.66 153.805 143.83 154.472C144.008 155.142 143.996 155.856 143.792 156.615C143.589 157.374 143.238 157.998 142.74 158.486C142.251 158.977 141.672 159.305 141.006 159.471C140.351 159.631 139.667 159.615 138.955 159.424ZM139.393 157.79C139.727 157.88 140.061 157.883 140.394 157.8C140.738 157.711 141.042 157.524 141.307 157.241C141.571 156.958 141.767 156.58 141.894 156.106C142.083 155.401 142.043 154.811 141.774 154.338C141.516 153.857 141.124 153.546 140.596 153.405C140.069 153.264 139.573 153.337 139.11 153.624C138.658 153.905 138.337 154.397 138.148 155.103C137.959 155.808 137.985 156.399 138.225 156.874C138.476 157.344 138.865 157.649 139.393 157.79Z" fill="#707070"/>
<path d="M147.368 161.678C146.665 161.489 146.073 161.164 145.595 160.7C145.118 160.228 144.795 159.658 144.625 158.991C144.464 158.326 144.485 157.614 144.689 156.855C144.892 156.096 145.234 155.47 145.715 154.977C146.204 154.486 146.777 154.161 147.432 154.002C148.09 153.834 148.77 153.844 149.474 154.032C150.177 154.22 150.771 154.552 151.257 155.027C151.744 155.492 152.073 156.059 152.243 156.726C152.422 157.396 152.409 158.11 152.206 158.869C152.002 159.628 151.652 160.252 151.153 160.74C150.664 161.231 150.085 161.559 149.419 161.725C148.764 161.884 148.08 161.869 147.368 161.678ZM147.806 160.044C148.14 160.134 148.473 160.137 148.807 160.054C149.151 159.964 149.455 159.778 149.72 159.495C149.984 159.212 150.18 158.833 150.307 158.36C150.496 157.655 150.456 157.065 150.187 156.592C149.929 156.111 149.537 155.8 149.009 155.659C148.482 155.517 147.987 155.59 147.523 155.878C147.071 156.158 146.75 156.651 146.561 157.357C146.372 158.062 146.398 158.653 146.638 159.128C146.889 159.598 147.278 159.903 147.806 160.044Z" fill="#707070"/>
<path d="M158.626 156.498C159.496 156.732 160.124 157.201 160.51 157.907C160.898 158.605 160.958 159.453 160.69 160.453L159.524 164.805L157.678 164.311L158.776 160.213C158.934 159.624 158.909 159.134 158.703 158.744C158.499 158.345 158.146 158.078 157.645 157.944C157.135 157.807 156.688 157.859 156.302 158.101C155.929 158.335 155.663 158.747 155.505 159.337L154.407 163.434L152.561 162.94L154.548 155.521L156.395 156.015L156.147 156.939C156.479 156.684 156.859 156.518 157.284 156.44C157.722 156.357 158.169 156.376 158.626 156.498Z" fill="#707070"/>
<path d="M169.108 163.226C169.037 163.494 168.954 163.73 168.862 163.935L163.521 162.504C163.421 163.052 163.493 163.521 163.737 163.911C163.981 164.302 164.341 164.561 164.815 164.688C165.501 164.872 166.069 164.704 166.519 164.183L168.511 164.717C168.109 165.374 167.546 165.855 166.824 166.159C166.104 166.454 165.309 166.485 164.439 166.252C163.736 166.064 163.144 165.738 162.665 165.275C162.198 164.805 161.883 164.237 161.722 163.572C161.57 162.91 161.596 162.199 161.799 161.44C162.005 160.672 162.339 160.039 162.802 159.541C163.265 159.043 163.816 158.713 164.453 158.548C165.091 158.384 165.77 158.399 166.491 158.592C167.186 158.778 167.765 159.096 168.229 159.546C168.701 159.998 169.011 160.545 169.16 161.187C169.319 161.823 169.302 162.503 169.108 163.226ZM167.34 162.178C167.46 161.694 167.391 161.264 167.134 160.889C166.879 160.504 166.509 160.248 166.026 160.118C165.569 159.996 165.143 160.035 164.75 160.236C164.368 160.43 164.075 160.768 163.871 161.249L167.34 162.178Z" fill="#707070"/>
<path d="M172.942 161.684C173.285 161.354 173.675 161.129 174.113 161.007C174.56 160.887 175.029 160.894 175.522 161.026L174.994 162.994L174.506 162.863C173.926 162.708 173.449 162.728 173.076 162.925C172.712 163.124 172.438 163.567 172.253 164.255L171.263 167.951L169.417 167.456L171.405 160.037L173.251 160.532L172.942 161.684Z" fill="#707070"/>
<rect x="423.398" y="-122.907" width="132.233" height="132.233" transform="rotate(15 423.398 -122.907)" fill="#ECECEC"/>
<rect x="352.266" y="142.564" width="132.233" height="132.233" transform="rotate(15 352.266 142.564)" fill="#ECECEC"/>
<path d="M359.261 213.3C359.507 212.381 359.93 211.614 360.528 210.999C361.137 210.377 361.847 209.96 362.658 209.747C363.481 209.527 364.331 209.535 365.21 209.77C366.239 210.046 367.068 210.555 367.699 211.298C368.329 212.041 368.671 212.927 368.725 213.956L366.602 213.387C366.51 212.884 366.301 212.469 365.974 212.142C365.656 211.818 365.246 211.589 364.745 211.454C364.209 211.311 363.695 211.312 363.204 211.457C362.723 211.597 362.302 211.867 361.941 212.267C361.588 212.67 361.327 213.184 361.16 213.809C360.995 214.425 360.963 215 361.065 215.535C361.178 216.063 361.407 216.511 361.75 216.881C362.105 217.244 362.551 217.498 363.087 217.641C363.589 217.776 364.058 217.782 364.496 217.66C364.945 217.531 365.335 217.272 365.665 216.882L367.789 217.451C367.225 218.324 366.484 218.925 365.567 219.253C364.661 219.575 363.689 219.597 362.652 219.319C361.773 219.083 361.031 218.669 360.427 218.077C359.833 217.477 359.427 216.761 359.207 215.927C358.997 215.095 359.015 214.22 359.261 213.3Z" fill="#F3DE38"/>
<path d="M371.786 221.809C371.083 221.621 370.492 221.295 370.013 220.832C369.536 220.359 369.213 219.79 369.043 219.122C368.882 218.457 368.903 217.745 369.107 216.986C369.31 216.227 369.652 215.601 370.133 215.108C370.622 214.617 371.195 214.292 371.85 214.133C372.508 213.965 373.188 213.975 373.891 214.163C374.595 214.352 375.189 214.683 375.674 215.158C376.162 215.623 376.491 216.19 376.661 216.857C376.839 217.527 376.827 218.242 376.623 219C376.42 219.759 376.069 220.383 375.571 220.871C375.081 221.362 374.503 221.691 373.837 221.856C373.182 222.016 372.498 222 371.786 221.809ZM372.224 220.175C372.558 220.265 372.892 220.268 373.225 220.185C373.569 220.096 373.874 219.909 374.138 219.626C374.402 219.343 374.598 218.965 374.725 218.492C374.914 217.786 374.874 217.197 374.605 216.723C374.347 216.242 373.955 215.931 373.427 215.79C372.9 215.649 372.404 215.722 371.941 216.009C371.489 216.29 371.168 216.783 370.979 217.488C370.79 218.193 370.816 218.784 371.056 219.26C371.307 219.729 371.696 220.034 372.224 220.175Z" fill="#F3DE38"/>
<path d="M380.145 215.02C379.82 214.933 379.575 214.757 379.41 214.493C379.257 214.222 379.222 213.931 379.305 213.618C379.389 213.306 379.564 213.075 379.83 212.926C380.107 212.771 380.408 212.737 380.734 212.824C381.059 212.911 381.298 213.09 381.452 213.361C381.617 213.625 381.657 213.913 381.574 214.226C381.49 214.538 381.309 214.772 381.032 214.928C380.766 215.076 380.47 215.107 380.145 215.02ZM380.818 216.148L378.83 223.567L376.984 223.072L378.972 215.653L380.818 216.148Z" fill="#F3DE38"/>
<path d="M386.717 217.615C387.588 217.848 388.216 218.318 388.602 219.024C388.989 219.721 389.05 220.569 388.782 221.569L387.615 225.922L385.769 225.427L386.867 221.329C387.025 220.74 387.001 220.25 386.794 219.86C386.59 219.461 386.238 219.194 385.737 219.06C385.226 218.923 384.779 218.975 384.394 219.217C384.02 219.451 383.754 219.863 383.596 220.453L382.498 224.551L380.652 224.056L382.64 216.637L384.486 217.132L384.239 218.056C384.571 217.8 384.95 217.634 385.376 217.557C385.813 217.473 386.26 217.492 386.717 217.615Z" fill="#F3DE38"/>
<path d="M401.904 219.731L399.399 229.078L397.553 228.584L399.182 222.504L395.087 227.923L393.689 227.548L392.839 220.804L391.21 226.884L389.364 226.389L391.868 217.042L393.965 217.604L395.031 225.339L399.821 219.173L401.904 219.731Z" fill="#707070"/>
<path d="M404.433 230.557C403.729 230.369 403.138 230.043 402.659 229.58C402.183 229.108 401.859 228.538 401.69 227.87C401.528 227.205 401.55 226.493 401.753 225.734C401.956 224.975 402.298 224.349 402.779 223.856C403.269 223.366 403.841 223.041 404.497 222.881C405.154 222.713 405.834 222.723 406.538 222.911C407.241 223.1 407.836 223.431 408.321 223.906C408.809 224.372 409.138 224.938 409.307 225.605C409.486 226.275 409.473 226.99 409.27 227.748C409.067 228.507 408.716 229.131 408.218 229.619C407.728 230.11 407.15 230.439 406.484 230.605C405.829 230.764 405.145 230.748 404.433 230.557ZM404.871 228.924C405.205 229.013 405.538 229.016 405.871 228.933C406.216 228.844 406.52 228.657 406.784 228.374C407.049 228.091 407.245 227.713 407.371 227.24C407.56 226.534 407.52 225.945 407.252 225.471C406.994 224.99 406.601 224.68 406.074 224.538C405.546 224.397 405.051 224.47 404.588 224.757C404.136 225.038 403.815 225.531 403.626 226.236C403.437 226.941 403.462 227.532 403.703 228.008C403.954 228.477 404.343 228.782 404.871 228.924Z" fill="#707070"/>
<path d="M412.846 232.811C412.142 232.623 411.551 232.297 411.072 231.834C410.595 231.361 410.272 230.792 410.103 230.124C409.942 229.459 409.963 228.747 410.166 227.988C410.369 227.229 410.712 226.603 411.192 226.11C411.682 225.619 412.254 225.294 412.91 225.135C413.567 224.967 414.248 224.977 414.951 225.165C415.654 225.354 416.249 225.685 416.734 226.16C417.222 226.625 417.55 227.192 417.72 227.859C417.899 228.529 417.886 229.244 417.683 230.002C417.48 230.761 417.129 231.385 416.631 231.873C416.141 232.364 415.563 232.692 414.897 232.858C414.242 233.018 413.558 233.002 412.846 232.811ZM413.284 231.177C413.618 231.267 413.951 231.27 414.284 231.187C414.629 231.098 414.933 230.911 415.197 230.628C415.462 230.345 415.658 229.967 415.784 229.494C415.973 228.788 415.933 228.199 415.665 227.725C415.407 227.244 415.014 226.933 414.487 226.792C413.959 226.651 413.464 226.724 413.001 227.011C412.548 227.292 412.228 227.785 412.039 228.49C411.85 229.195 411.876 229.786 412.115 230.262C412.367 230.731 412.756 231.036 413.284 231.177Z" fill="#707070"/>
<path d="M424.103 227.632C424.974 227.865 425.602 228.335 425.987 229.041C426.375 229.738 426.435 230.587 426.167 231.586L425.001 235.939L423.155 235.444L424.253 231.346C424.411 230.757 424.387 230.267 424.18 229.877C423.976 229.478 423.623 229.211 423.122 229.077C422.613 228.94 422.165 228.993 421.78 229.234C421.406 229.469 421.14 229.881 420.983 230.47L419.885 234.568L418.038 234.073L420.026 226.654L421.872 227.149L421.625 228.073C421.957 227.817 422.336 227.651 422.762 227.574C423.199 227.49 423.646 227.509 424.103 227.632Z" fill="#707070"/>
<path d="M434.586 234.36C434.514 234.627 434.432 234.864 434.339 235.069L428.998 233.637C428.899 234.185 428.971 234.654 429.215 235.045C429.459 235.435 429.818 235.694 430.293 235.821C430.979 236.005 431.547 235.837 431.997 235.316L433.989 235.85C433.586 236.508 433.024 236.989 432.302 237.293C431.582 237.588 430.786 237.619 429.916 237.385C429.213 237.197 428.622 236.871 428.143 236.408C427.675 235.938 427.361 235.371 427.2 234.706C427.047 234.043 427.073 233.332 427.276 232.573C427.482 231.805 427.817 231.173 428.28 230.675C428.743 230.177 429.293 229.846 429.931 229.682C430.568 229.518 431.248 229.532 431.969 229.725C432.663 229.912 433.243 230.229 433.706 230.679C434.179 231.131 434.489 231.678 434.637 232.321C434.797 232.957 434.78 233.636 434.586 234.36ZM432.817 233.311C432.937 232.827 432.869 232.397 432.611 232.022C432.356 231.638 431.987 231.381 431.503 231.251C431.046 231.129 430.621 231.168 430.228 231.369C429.846 231.563 429.553 231.901 429.349 232.382L432.817 233.311Z" fill="#707070"/>
<path d="M438.42 232.817C438.763 232.488 439.153 232.262 439.591 232.14C440.037 232.021 440.507 232.027 440.999 232.159L440.472 234.127L439.984 233.997C439.404 233.841 438.927 233.862 438.554 234.059C438.189 234.257 437.915 234.701 437.731 235.388L436.741 239.084L434.895 238.59L436.882 231.171L438.728 231.665L438.42 232.817Z" fill="#707070"/>
<rect x="274.111" y="-96.6973" width="132.233" height="132.233" transform="rotate(15 274.111 -96.6973)" fill="#ECECEC"/>
<path d="M360.263 -6.44478C360.605 -6.77395 360.996 -6.99951 361.434 -7.12139C361.88 -7.24093 362.349 -7.23481 362.842 -7.10282L362.315 -5.13426L361.827 -5.26505C361.246 -5.42047 360.77 -5.39993 360.397 -5.20321C360.032 -5.00424 359.758 -4.56103 359.574 -3.87358L358.583 -0.177472L356.737 -0.672107L358.725 -8.09111L360.571 -7.59647L360.263 -6.44478Z" fill="#707070"/>
<rect x="202.978" y="168.774" width="132.233" height="132.233" transform="rotate(15 202.978 168.774)" fill="#ECECEC"/>
<path d="M209.97 239.51C210.216 238.591 210.639 237.824 211.237 237.209C211.846 236.587 212.556 236.17 213.367 235.957C214.19 235.737 215.04 235.745 215.919 235.98C216.948 236.256 217.777 236.765 218.408 237.508C219.038 238.251 219.38 239.137 219.434 240.166L217.311 239.597C217.219 239.094 217.01 238.679 216.683 238.352C216.365 238.028 215.955 237.799 215.454 237.664C214.918 237.521 214.404 237.522 213.913 237.667C213.432 237.807 213.011 238.077 212.65 238.477C212.297 238.88 212.036 239.394 211.869 240.019C211.704 240.635 211.672 241.21 211.774 241.745C211.887 242.273 212.116 242.721 212.459 243.091C212.814 243.454 213.26 243.707 213.796 243.851C214.297 243.985 214.767 243.992 215.205 243.87C215.654 243.741 216.044 243.482 216.374 243.092L218.498 243.661C217.934 244.534 217.193 245.135 216.276 245.463C215.37 245.785 214.398 245.807 213.361 245.529C212.482 245.293 211.74 244.879 211.136 244.286C210.542 243.687 210.136 242.971 209.916 242.137C209.706 241.305 209.724 240.43 209.97 239.51Z" fill="#F3DE38"/>
<path d="M222.495 248.019C221.792 247.831 221.201 247.505 220.722 247.042C220.245 246.569 219.922 246 219.752 245.332C219.591 244.667 219.612 243.955 219.816 243.196C220.019 242.437 220.361 241.811 220.842 241.318C221.331 240.827 221.904 240.502 222.559 240.343C223.216 240.175 223.897 240.185 224.6 240.373C225.304 240.562 225.898 240.893 226.383 241.368C226.871 241.833 227.2 242.4 227.37 243.067C227.548 243.737 227.536 244.451 227.332 245.21C227.129 245.969 226.778 246.593 226.28 247.081C225.79 247.572 225.212 247.9 224.546 248.066C223.891 248.226 223.207 248.21 222.495 248.019ZM222.933 246.385C223.267 246.475 223.601 246.478 223.934 246.395C224.278 246.306 224.583 246.119 224.847 245.836C225.111 245.553 225.307 245.175 225.434 244.702C225.623 243.996 225.583 243.407 225.314 242.933C225.056 242.452 224.664 242.141 224.136 242C223.609 241.859 223.113 241.932 222.65 242.219C222.198 242.5 221.877 242.993 221.688 243.698C221.499 244.403 221.525 244.994 221.765 245.47C222.016 245.939 222.405 246.244 222.933 246.385Z" fill="#F3DE38"/>
<path d="M230.854 241.23C230.529 241.143 230.284 240.967 230.119 240.703C229.966 240.432 229.931 240.141 230.014 239.828C230.098 239.516 230.273 239.285 230.539 239.136C230.816 238.981 231.117 238.947 231.443 239.034C231.768 239.121 232.007 239.3 232.161 239.571C232.326 239.835 232.366 240.123 232.283 240.436C232.199 240.748 232.018 240.982 231.741 241.138C231.475 241.286 231.179 241.317 230.854 241.23ZM231.527 242.358L229.539 249.777L227.693 249.282L229.681 241.863L231.527 242.358Z" fill="#F3DE38"/>
<path d="M237.426 243.825C238.297 244.058 238.925 244.527 239.31 245.234C239.698 245.931 239.759 246.779 239.491 247.779L238.324 252.132L236.478 251.637L237.576 247.539C237.734 246.95 237.71 246.46 237.503 246.07C237.299 245.671 236.947 245.404 236.446 245.27C235.935 245.133 235.488 245.185 235.103 245.427C234.729 245.661 234.463 246.073 234.305 246.663L233.207 250.761L231.361 250.266L233.349 242.847L235.195 243.342L234.948 244.266C235.28 244.01 235.659 243.844 236.085 243.767C236.522 243.683 236.969 243.702 237.426 243.825Z" fill="#F3DE38"/>
<path d="M252.613 245.941L250.108 255.288L248.262 254.794L249.891 248.714L245.796 254.133L244.398 253.758L243.548 247.014L241.919 253.094L240.073 252.599L242.577 243.252L244.674 243.814L245.74 251.549L250.529 245.383L252.613 245.941Z" fill="#707070"/>
<path d="M255.142 256.767C254.438 256.579 253.847 256.253 253.368 255.79C252.892 255.318 252.568 254.748 252.399 254.08C252.237 253.415 252.259 252.703 252.462 251.944C252.665 251.185 253.007 250.559 253.488 250.066C253.978 249.576 254.55 249.25 255.206 249.091C255.863 248.923 256.543 248.933 257.247 249.121C257.95 249.31 258.545 249.641 259.03 250.116C259.518 250.581 259.847 251.148 260.016 251.815C260.195 252.485 260.182 253.2 259.979 253.958C259.776 254.717 259.425 255.341 258.927 255.829C258.437 256.32 257.859 256.649 257.193 256.815C256.537 256.974 255.854 256.958 255.142 256.767ZM255.58 255.134C255.913 255.223 256.247 255.226 256.58 255.143C256.925 255.054 257.229 254.867 257.493 254.584C257.758 254.301 257.953 253.923 258.08 253.45C258.269 252.744 258.229 252.155 257.961 251.681C257.703 251.2 257.31 250.89 256.783 250.748C256.255 250.607 255.76 250.68 255.297 250.967C254.845 251.248 254.524 251.741 254.335 252.446C254.146 253.151 254.171 253.742 254.412 254.218C254.663 254.687 255.052 254.992 255.58 255.134Z" fill="#707070"/>
<path d="M263.555 259.021C262.851 258.833 262.26 258.507 261.781 258.044C261.304 257.571 260.981 257.002 260.812 256.334C260.651 255.669 260.672 254.957 260.875 254.198C261.078 253.439 261.421 252.813 261.901 252.32C262.391 251.829 262.963 251.504 263.619 251.345C264.276 251.177 264.957 251.187 265.66 251.375C266.363 251.564 266.958 251.895 267.443 252.37C267.931 252.835 268.259 253.402 268.429 254.069C268.608 254.739 268.595 255.454 268.392 256.212C268.189 256.971 267.838 257.595 267.34 258.083C266.85 258.574 266.272 258.902 265.606 259.068C264.951 259.228 264.267 259.212 263.555 259.021ZM263.993 257.387C264.327 257.477 264.66 257.48 264.993 257.397C265.338 257.308 265.642 257.121 265.906 256.838C266.171 256.555 266.367 256.177 266.493 255.704C266.682 254.998 266.642 254.409 266.374 253.935C266.116 253.454 265.723 253.143 265.196 253.002C264.668 252.861 264.173 252.934 263.71 253.221C263.257 253.502 262.937 253.995 262.748 254.7C262.559 255.405 262.585 255.996 262.824 256.472C263.076 256.941 263.465 257.246 263.993 257.387Z" fill="#707070"/>
<path d="M274.812 253.842C275.683 254.075 276.311 254.545 276.696 255.251C277.084 255.948 277.144 256.796 276.876 257.796L275.71 262.149L273.864 261.654L274.962 257.556C275.12 256.967 275.096 256.477 274.889 256.087C274.685 255.688 274.332 255.421 273.831 255.287C273.322 255.15 272.874 255.203 272.489 255.444C272.115 255.679 271.849 256.091 271.692 256.68L270.594 260.778L268.747 260.283L270.735 252.864L272.581 253.359L272.334 254.283C272.666 254.027 273.045 253.861 273.471 253.784C273.908 253.7 274.355 253.719 274.812 253.842Z" fill="#707070"/>
<path d="M285.295 260.569C285.223 260.837 285.141 261.074 285.048 261.279L279.707 259.847C279.608 260.395 279.68 260.864 279.924 261.255C280.168 261.645 280.527 261.904 281.002 262.031C281.688 262.215 282.256 262.047 282.706 261.526L284.697 262.06C284.295 262.718 283.733 263.199 283.011 263.503C282.291 263.798 281.495 263.829 280.625 263.595C279.922 263.407 279.331 263.081 278.852 262.618C278.384 262.148 278.07 261.581 277.909 260.916C277.756 260.253 277.782 259.542 277.985 258.783C278.191 258.015 278.525 257.382 278.989 256.885C279.452 256.387 280.002 256.056 280.64 255.892C281.277 255.728 281.957 255.742 282.678 255.935C283.372 256.121 283.952 256.439 284.415 256.889C284.888 257.341 285.198 257.888 285.346 258.531C285.506 259.167 285.489 259.846 285.295 260.569ZM283.526 259.521C283.646 259.037 283.578 258.607 283.32 258.232C283.065 257.848 282.696 257.591 282.212 257.461C281.755 257.339 281.33 257.378 280.937 257.579C280.555 257.773 280.262 258.111 280.058 258.592L283.526 259.521Z" fill="#707070"/>
<path d="M289.129 259.027C289.472 258.698 289.862 258.472 290.3 258.35C290.746 258.231 291.216 258.237 291.708 258.369L291.181 260.337L290.693 260.207C290.113 260.051 289.636 260.072 289.263 260.268C288.898 260.467 288.624 260.911 288.44 261.598L287.45 265.294L285.603 264.8L287.591 257.381L289.437 257.875L289.129 259.027Z" fill="#707070"/>
<rect x="503.568" y="108.841" width="132.233" height="132.233" transform="rotate(15 503.568 108.841)" fill="#ECECEC"/>
<path d="M510.563 179.577C510.809 178.658 511.231 177.89 511.83 177.276C512.439 176.654 513.149 176.237 513.96 176.024C514.782 175.804 515.633 175.812 516.512 176.047C517.541 176.323 518.37 176.832 519 177.575C519.631 178.318 519.973 179.204 520.027 180.233L517.904 179.664C517.812 179.161 517.603 178.746 517.276 178.419C516.958 178.095 516.548 177.865 516.047 177.731C515.511 177.587 514.997 177.588 514.505 177.734C514.025 177.874 513.604 178.144 513.242 178.544C512.889 178.947 512.629 179.461 512.462 180.086C512.297 180.702 512.265 181.277 512.367 181.812C512.48 182.34 512.708 182.788 513.052 183.158C513.407 183.521 513.853 183.774 514.389 183.918C514.89 184.052 515.36 184.059 515.798 183.937C516.247 183.808 516.636 183.549 516.967 183.159L519.09 183.728C518.527 184.601 517.786 185.202 516.869 185.53C515.963 185.852 514.991 185.874 513.954 185.596C513.075 185.36 512.333 184.946 511.728 184.353C511.135 183.754 510.729 183.038 510.509 182.204C510.298 181.372 510.316 180.497 510.563 179.577Z" fill="#F3DE38"/>
<path d="M523.088 188.086C522.385 187.898 521.793 187.572 521.314 187.109C520.838 186.636 520.515 186.067 520.345 185.399C520.184 184.734 520.205 184.022 520.408 183.263C520.612 182.504 520.954 181.878 521.435 181.385C521.924 180.894 522.497 180.569 523.152 180.41C523.809 180.242 524.49 180.252 525.193 180.44C525.896 180.629 526.491 180.96 526.976 181.435C527.464 181.9 527.793 182.467 527.963 183.134C528.141 183.804 528.128 184.518 527.925 185.277C527.722 186.036 527.371 186.66 526.873 187.148C526.383 187.639 525.805 187.967 525.139 188.133C524.484 188.293 523.8 188.277 523.088 188.086ZM523.526 186.452C523.86 186.542 524.193 186.545 524.527 186.462C524.871 186.373 525.175 186.186 525.44 185.903C525.704 185.62 525.9 185.242 526.026 184.768C526.215 184.063 526.175 183.474 525.907 183C525.649 182.519 525.256 182.208 524.729 182.067C524.201 181.926 523.706 181.999 523.243 182.286C522.791 182.567 522.47 183.06 522.281 183.765C522.092 184.47 522.118 185.061 522.358 185.536C522.609 186.006 522.998 186.311 523.526 186.452Z" fill="#F3DE38"/>
<path d="M531.447 181.297C531.121 181.21 530.877 181.034 530.712 180.77C530.558 180.499 530.523 180.207 530.607 179.895C530.691 179.583 530.866 179.352 531.132 179.203C531.409 179.048 531.71 179.014 532.035 179.101C532.361 179.188 532.6 179.367 532.754 179.638C532.919 179.902 532.959 180.19 532.875 180.503C532.792 180.815 532.611 181.049 532.334 181.204C532.068 181.353 531.772 181.384 531.447 181.297ZM532.12 182.425L530.132 189.844L528.286 189.349L530.274 181.93L532.12 182.425Z" fill="#F3DE38"/>
<path d="M538.019 183.891C538.889 184.125 539.518 184.594 539.903 185.301C540.291 185.998 540.351 186.846 540.083 187.846L538.917 192.199L537.071 191.704L538.169 187.606C538.327 187.017 538.302 186.527 538.096 186.137C537.892 185.738 537.539 185.471 537.038 185.337C536.528 185.2 536.081 185.252 535.696 185.494C535.322 185.728 535.056 186.14 534.898 186.73L533.8 190.827L531.954 190.333L533.942 182.914L535.788 183.408L535.54 184.332C535.873 184.077 536.252 183.911 536.678 183.833C537.115 183.75 537.562 183.769 538.019 183.891Z" fill="#F3DE38"/>
<rect x="238.544" y="36.0381" width="132.233" height="132.233" transform="rotate(15 238.544 36.0381)" fill="#F8F8F8"/>
<path d="M270.403 105.41C270.686 104.354 271.17 103.474 271.857 102.768C272.556 102.055 273.371 101.576 274.302 101.331C275.246 101.079 276.222 101.088 277.232 101.358C278.412 101.675 279.364 102.259 280.087 103.112C280.811 103.965 281.203 104.982 281.266 106.162L278.829 105.509C278.724 104.932 278.484 104.456 278.108 104.081C277.743 103.708 277.273 103.445 276.697 103.291C276.082 103.126 275.492 103.127 274.928 103.294C274.377 103.454 273.894 103.764 273.478 104.224C273.073 104.687 272.775 105.277 272.582 105.994C272.393 106.701 272.357 107.361 272.474 107.975C272.603 108.58 272.865 109.095 273.26 109.52C273.668 109.936 274.179 110.227 274.795 110.392C275.37 110.546 275.909 110.553 276.411 110.414C276.927 110.266 277.374 109.969 277.754 109.521L280.191 110.174C279.544 111.176 278.694 111.865 277.641 112.242C276.601 112.612 275.486 112.637 274.295 112.318C273.286 112.047 272.434 111.572 271.741 110.892C271.06 110.204 270.593 109.382 270.341 108.425C270.099 107.47 270.12 106.465 270.403 105.41Z" fill="#F3DE38"/>
<path d="M284.777 115.177C283.969 114.96 283.291 114.586 282.741 114.055C282.194 113.513 281.823 112.859 281.628 112.092C281.443 111.329 281.468 110.512 281.701 109.641C281.934 108.77 282.327 108.051 282.879 107.485C283.441 106.922 284.098 106.549 284.85 106.366C285.605 106.173 286.386 106.184 287.193 106.401C288 106.617 288.682 106.997 289.24 107.542C289.799 108.076 290.177 108.727 290.372 109.493C290.577 110.262 290.562 111.082 290.329 111.952C290.095 112.824 289.693 113.539 289.121 114.1C288.559 114.663 287.896 115.04 287.131 115.231C286.379 115.414 285.594 115.396 284.777 115.177ZM285.279 113.301C285.662 113.404 286.045 113.408 286.428 113.313C286.823 113.21 287.173 112.996 287.476 112.671C287.779 112.346 288.004 111.912 288.149 111.369C288.366 110.559 288.32 109.882 288.012 109.338C287.716 108.787 287.266 108.43 286.66 108.268C286.055 108.105 285.486 108.189 284.954 108.519C284.435 108.841 284.067 109.407 283.85 110.217C283.634 111.026 283.663 111.704 283.938 112.25C284.227 112.789 284.674 113.139 285.279 113.301Z" fill="#F3DE38"/>
<path d="M294.373 107.384C294 107.284 293.719 107.083 293.529 106.779C293.353 106.468 293.313 106.134 293.409 105.775C293.505 105.416 293.706 105.152 294.011 104.981C294.33 104.803 294.675 104.763 295.049 104.863C295.422 104.963 295.697 105.169 295.873 105.48C296.062 105.783 296.109 106.114 296.013 106.473C295.917 106.831 295.71 107.1 295.391 107.278C295.086 107.449 294.747 107.484 294.373 107.384ZM295.146 108.679L292.864 117.194L290.745 116.626L293.027 108.111L295.146 108.679Z" fill="#F3DE38"/>
<path d="M301.918 110.362C302.917 110.629 303.638 111.169 304.081 111.979C304.526 112.779 304.595 113.753 304.288 114.901L302.949 119.897L300.83 119.329L302.09 114.625C302.271 113.949 302.243 113.387 302.006 112.939C301.772 112.481 301.368 112.175 300.792 112.021C300.207 111.864 299.693 111.924 299.252 112.201C298.822 112.47 298.517 112.943 298.336 113.619L297.076 118.323L294.957 117.755L297.239 109.24L299.357 109.807L299.073 110.868C299.454 110.575 299.89 110.384 300.379 110.295C300.88 110.199 301.393 110.221 301.918 110.362Z" fill="#F3DE38"/>
<path d="M268.176 113.809L265.302 124.538L263.183 123.97L265.053 116.992L260.352 123.212L258.747 122.782L257.772 115.041L255.902 122.019L253.782 121.452L256.657 110.723L259.064 111.368L260.287 120.246L265.785 113.168L268.176 113.809Z" fill="#707070"/>
<path d="M271.08 126.235C270.273 126.019 269.595 125.645 269.045 125.113C268.498 124.571 268.127 123.917 267.932 123.151C267.747 122.388 267.771 121.57 268.005 120.699C268.238 119.828 268.631 119.11 269.183 118.544C269.744 117.98 270.402 117.607 271.154 117.425C271.908 117.231 272.689 117.243 273.497 117.459C274.304 117.675 274.986 118.056 275.543 118.601C276.103 119.135 276.481 119.785 276.675 120.551C276.881 121.32 276.866 122.14 276.633 123.011C276.399 123.882 275.997 124.598 275.425 125.159C274.863 125.722 274.199 126.099 273.435 126.289C272.683 126.472 271.898 126.454 271.08 126.235ZM271.583 124.36C271.966 124.463 272.349 124.466 272.732 124.371C273.127 124.269 273.476 124.055 273.779 123.729C274.083 123.404 274.308 122.97 274.453 122.427C274.67 121.618 274.624 120.941 274.316 120.397C274.02 119.846 273.57 119.489 272.964 119.326C272.359 119.164 271.79 119.248 271.258 119.578C270.739 119.9 270.371 120.466 270.154 121.275C269.937 122.085 269.967 122.763 270.242 123.309C270.53 123.847 270.977 124.198 271.583 124.36Z" fill="#707070"/>
<path d="M280.732 128.822C279.924 128.606 279.246 128.232 278.696 127.7C278.149 127.158 277.778 126.504 277.583 125.738C277.398 124.975 277.423 124.157 277.656 123.286C277.889 122.415 278.282 121.697 278.834 121.131C279.396 120.567 280.053 120.194 280.805 120.011C281.56 119.818 282.341 119.83 283.148 120.046C283.955 120.262 284.638 120.643 285.195 121.188C285.755 121.722 286.132 122.372 286.327 123.138C286.532 123.907 286.517 124.727 286.284 125.598C286.051 126.469 285.648 127.185 285.076 127.746C284.514 128.309 283.851 128.686 283.086 128.876C282.334 129.059 281.549 129.041 280.732 128.822ZM281.234 126.947C281.618 127.05 282 127.053 282.383 126.958C282.778 126.855 283.128 126.641 283.431 126.316C283.734 125.991 283.959 125.557 284.105 125.014C284.322 124.205 284.276 123.528 283.967 122.984C283.672 122.432 283.221 122.076 282.615 121.913C282.01 121.751 281.441 121.835 280.91 122.165C280.39 122.487 280.022 123.053 279.805 123.862C279.589 124.672 279.618 125.35 279.893 125.896C280.182 126.434 280.629 126.785 281.234 126.947Z" fill="#707070"/>
<path d="M293.657 122.877C294.656 123.145 295.377 123.684 295.819 124.494C296.265 125.295 296.333 126.269 296.026 127.416L294.687 132.412L292.568 131.844L293.829 127.141C294.01 126.464 293.982 125.902 293.745 125.454C293.511 124.996 293.106 124.69 292.531 124.536C291.946 124.379 291.432 124.439 290.99 124.716C290.561 124.986 290.256 125.458 290.075 126.135L288.814 130.838L286.695 130.27L288.977 121.755L291.096 122.323L290.812 123.383C291.193 123.09 291.629 122.899 292.117 122.81C292.619 122.714 293.132 122.736 293.657 122.877Z" fill="#707070"/>
<path d="M305.691 130.6C305.609 130.907 305.515 131.178 305.408 131.414L299.278 129.771C299.163 130.399 299.246 130.938 299.527 131.386C299.806 131.835 300.219 132.132 300.764 132.278C301.551 132.489 302.203 132.296 302.72 131.698L305.006 132.311C304.544 133.066 303.898 133.617 303.069 133.966C302.243 134.305 301.33 134.341 300.331 134.073C299.524 133.857 298.846 133.483 298.296 132.951C297.759 132.412 297.398 131.76 297.213 130.997C297.039 130.236 297.068 129.42 297.302 128.549C297.538 127.668 297.921 126.942 298.453 126.37C298.984 125.799 299.616 125.419 300.348 125.231C301.08 125.042 301.86 125.059 302.687 125.281C303.484 125.494 304.149 125.859 304.682 126.375C305.224 126.894 305.58 127.522 305.75 128.26C305.933 128.99 305.914 129.77 305.691 130.6ZM303.661 129.397C303.799 128.841 303.721 128.347 303.425 127.917C303.132 127.476 302.708 127.181 302.153 127.032C301.628 126.892 301.14 126.937 300.689 127.167C300.251 127.39 299.915 127.778 299.68 128.33L303.661 129.397Z" fill="#707070"/>
<path d="M310.089 128.829C310.483 128.451 310.931 128.192 311.433 128.052C311.946 127.915 312.484 127.922 313.05 128.073L312.444 130.333L311.884 130.183C311.218 130.004 310.671 130.028 310.243 130.254C309.825 130.482 309.51 130.991 309.298 131.78L308.162 136.022L306.043 135.454L308.324 126.939L310.443 127.507L310.089 128.829Z" fill="#707070"/>
<rect x="539.135" y="-23.8955" width="132.233" height="132.233" transform="rotate(15 539.135 -23.8955)" fill="#F8F8F8"/>
<rect x="468.002" y="241.577" width="132.233" height="132.233" transform="rotate(15 468.002 241.577)" fill="#F8F8F8"/>
<rect x="122.358" y="-61.3047" width="132.233" height="132.233" transform="rotate(15 122.358 -61.3047)" fill="#F8F8F8"/>
<path d="M154.218 8.06754C154.501 7.01206 154.986 6.13151 155.672 5.42582C156.372 4.71263 157.187 4.23366 158.118 3.98883C159.061 3.73647 160.038 3.74548 161.047 4.01588C162.228 4.33224 163.18 4.91681 163.903 5.7696C164.626 6.62242 165.019 7.63922 165.081 8.82007L162.644 8.16706C162.539 7.58979 162.299 7.1136 161.924 6.73844C161.558 6.36599 161.088 6.10272 160.513 5.94859C159.897 5.78366 159.308 5.78484 158.743 5.95221C158.192 6.11205 157.709 6.42194 157.294 6.8818C156.889 7.34436 156.59 7.93426 156.398 8.6516C156.208 9.35865 156.172 10.0189 156.289 10.6323C156.419 11.2382 156.681 11.7532 157.075 12.1775C157.483 12.5942 157.994 12.885 158.61 13.05C159.185 13.2041 159.724 13.2112 160.227 13.0713C160.742 12.9238 161.19 12.6263 161.569 12.1789L164.006 12.8319C163.359 13.8337 162.509 14.5231 161.456 14.9C160.416 15.2693 159.301 15.2944 158.11 14.9754C157.101 14.705 156.25 14.2297 155.556 13.5496C154.875 12.8619 154.408 12.0395 154.157 11.0824C153.915 10.1279 153.935 9.12297 154.218 8.06754Z" fill="#F3DE38"/>
<path d="M168.592 17.8342C167.785 17.6179 167.106 17.2439 166.556 16.7122C166.009 16.1702 165.638 15.5162 165.444 14.7501C165.259 13.9867 165.283 13.1694 165.516 12.2984C165.75 11.4274 166.142 10.7089 166.694 10.1428C167.256 9.57951 167.913 9.2064 168.665 9.02352C169.42 8.83036 170.201 8.84198 171.008 9.05829C171.816 9.27461 172.498 9.65507 173.055 10.1997C173.615 10.7341 173.992 11.3844 174.187 12.1506C174.392 12.9194 174.378 13.7392 174.144 14.6102C173.911 15.4813 173.508 16.1971 172.936 16.7577C172.374 17.3211 171.711 17.698 170.946 17.8884C170.194 18.0713 169.409 18.0532 168.592 17.8342ZM169.094 15.959C169.478 16.0617 169.861 16.0655 170.243 15.9703C170.639 15.8675 170.988 15.6536 171.291 15.3285C171.595 15.0035 171.819 14.5693 171.965 14.0262C172.182 13.2167 172.136 12.54 171.827 11.996C171.532 11.4445 171.081 11.0877 170.476 10.9254C169.87 10.7632 169.301 10.847 168.77 11.1767C168.251 11.4989 167.883 12.0648 167.666 12.8743C167.449 13.6839 167.478 14.3617 167.754 14.9078C168.042 15.4464 168.489 15.7967 169.094 15.959Z" fill="#F3DE38"/>
<path d="M178.189 10.0425C177.815 9.94238 177.534 9.74079 177.345 9.43746C177.169 9.12666 177.129 8.79193 177.225 8.43327C177.321 8.07461 177.522 7.80988 177.827 7.63906C178.145 7.46076 178.491 7.42152 178.864 7.52159C179.238 7.62167 179.512 7.82711 179.689 8.13791C179.878 8.44124 179.924 8.77223 179.828 9.13089C179.732 9.48955 179.525 9.75802 179.207 9.93632C178.901 10.1071 178.562 10.1425 178.189 10.0425ZM178.961 11.3368L176.679 19.8523L174.561 19.2846L176.842 10.769L178.961 11.3368Z" fill="#F3DE38"/>
<path d="M185.734 13.0195C186.733 13.2872 187.454 13.8264 187.896 14.6369C188.342 15.4372 188.411 16.4111 188.103 17.5589L186.764 22.5544L184.645 21.9866L185.905 17.283C186.087 16.6067 186.059 16.0446 185.822 15.5967C185.588 15.1386 185.183 14.8325 184.608 14.6783C184.022 14.5214 183.509 14.5816 183.067 14.8586C182.638 15.1279 182.333 15.6008 182.151 16.2772L180.891 20.9807L178.772 20.4129L181.054 11.8974L183.173 12.4651L182.889 13.5258C183.27 13.2325 183.705 13.0417 184.194 12.953C184.696 12.8567 185.209 12.8789 185.734 13.0195Z" fill="#F3DE38"/>
<path d="M151.992 16.4664L149.117 27.1954L146.998 26.6277L148.868 19.6492L144.168 25.8692L142.563 25.4392L141.587 17.6983L139.717 24.6767L137.598 24.1088L140.473 13.3799L142.88 14.0248L144.102 22.9028L149.6 15.8256L151.992 16.4664Z" fill="#707070"/>
<path d="M154.896 28.8929C154.088 28.6766 153.41 28.3026 152.86 27.7709C152.313 27.229 151.942 26.5748 151.748 25.8088C151.562 25.0453 151.587 24.2281 151.82 23.357C152.053 22.486 152.446 21.7675 152.998 21.2015C153.56 20.6382 154.217 20.2651 154.969 20.0822C155.724 19.8891 156.505 19.9006 157.312 20.1169C158.119 20.3332 158.802 20.7138 159.359 21.2585C159.919 21.7928 160.296 22.4431 160.491 23.2091C160.696 23.9781 160.682 24.7979 160.448 25.6689C160.215 26.54 159.812 27.2559 159.24 27.8164C158.678 28.3798 158.015 28.7566 157.25 28.9471C156.498 29.13 155.713 29.1119 154.896 28.8929ZM155.398 27.0177C155.782 27.1204 156.165 27.1242 156.547 27.0289C156.943 26.9263 157.292 26.7123 157.595 26.3872C157.899 26.0622 158.123 25.6281 158.269 25.085C158.486 24.2754 158.44 23.5986 158.131 23.0547C157.836 22.5032 157.385 22.1464 156.779 21.9841C156.174 21.8219 155.605 21.9057 155.074 22.2354C154.555 22.5577 154.186 23.1234 153.969 23.933C153.753 24.7425 153.782 25.4204 154.058 25.9665C154.346 26.5051 154.793 26.8554 155.398 27.0177Z" fill="#707070"/>
<path d="M164.547 31.4789C163.74 31.2625 163.061 30.8884 162.512 30.3568C161.964 29.8148 161.593 29.1608 161.399 28.3948C161.214 27.6312 161.238 26.814 161.471 25.943C161.705 25.072 162.098 24.3535 162.65 23.7875C163.211 23.2241 163.868 22.851 164.621 22.6682C165.375 22.475 166.156 22.4865 166.964 22.7029C167.771 22.9191 168.453 23.2997 169.01 23.8444C169.57 24.3788 169.947 25.0289 170.142 25.7951C170.347 26.564 170.333 27.3839 170.099 28.2549C169.866 29.1259 169.464 29.8418 168.891 30.4024C168.33 30.9658 167.666 31.3425 166.901 31.5331C166.149 31.7159 165.365 31.6979 164.547 31.4789ZM165.05 29.6036C165.433 29.7063 165.816 29.71 166.198 29.6148C166.593 29.5121 166.943 29.2982 167.246 28.9731C167.55 28.648 167.775 28.214 167.92 27.6709C168.137 26.8614 168.091 26.1846 167.783 25.6407C167.487 25.0892 167.036 24.7323 166.431 24.57C165.825 24.4078 165.257 24.4916 164.725 24.8213C164.206 25.1435 163.838 25.7094 163.621 26.5189C163.404 27.3284 163.434 28.0064 163.709 28.5523C163.997 29.091 164.444 29.4413 165.05 29.6036Z" fill="#707070"/>
<path d="M177.472 25.5342C178.472 25.802 179.192 26.341 179.635 27.1515C180.08 27.9518 180.149 28.9258 179.841 30.0735L178.503 35.0691L176.384 34.5013L177.644 29.7978C177.825 29.1215 177.798 28.5594 177.561 28.1114C177.326 27.6533 176.921 27.3471 176.346 27.193C175.761 27.0362 175.248 27.0964 174.805 27.3732C174.377 27.6427 174.071 28.1156 173.89 28.7919L172.63 33.4955L170.511 32.9276L172.792 24.412L174.912 24.9799L174.627 26.0405C175.009 25.7473 175.444 25.5565 175.933 25.4676C176.435 25.3715 176.948 25.3936 177.472 25.5342Z" fill="#707070"/>
<path d="M189.507 33.257C189.424 33.5644 189.33 33.8357 189.224 34.0708L183.093 32.4282C182.979 33.0565 183.062 33.5949 183.342 34.0434C183.622 34.4918 184.034 34.789 184.579 34.935C185.366 35.146 186.019 34.9528 186.535 34.3554L188.821 34.9679C188.359 35.7228 187.714 36.2746 186.885 36.6237C186.058 36.9624 185.146 36.9979 184.147 36.7302C183.34 36.514 182.661 36.1399 182.112 35.6083C181.575 35.069 181.214 34.4177 181.029 33.6543C180.854 32.8935 180.884 32.0777 181.117 31.2067C181.353 30.3254 181.737 29.599 182.269 29.0276C182.8 28.4561 183.432 28.0762 184.164 27.8879C184.895 27.6996 185.675 27.7164 186.503 27.938C187.3 28.1516 187.965 28.5166 188.497 29.0325C189.039 29.5513 189.396 30.1794 189.566 30.9169C189.749 31.6469 189.729 32.427 189.507 33.257ZM187.477 32.054C187.615 31.4979 187.536 31.0046 187.24 30.5738C186.947 30.133 186.524 29.8382 185.968 29.6895C185.444 29.5489 184.956 29.5938 184.505 29.8244C184.066 30.0474 183.73 30.4351 183.496 30.9873L187.477 32.054Z" fill="#707070"/>
<path d="M193.905 31.4863C194.298 31.1084 194.746 30.8495 195.249 30.7096C195.761 30.5724 196.3 30.5795 196.865 30.731L196.26 32.9905L195.7 32.8404C195.034 32.662 194.486 32.6855 194.058 32.9113C193.64 33.1397 193.325 33.6484 193.114 34.4375L191.977 38.6799L189.858 38.1121L192.14 29.5966L194.259 30.1643L193.905 31.4863Z" fill="#707070"/>
<rect x="51.2246" y="204.167" width="132.233" height="132.233" transform="rotate(15 51.2246 204.167)" fill="#F8F8F8"/>
<path d="M83.0843 273.539C83.3671 272.484 83.8519 271.603 84.5385 270.897C85.2379 270.184 86.0531 269.705 86.9839 269.461C87.9276 269.208 88.904 269.217 89.9132 269.488C91.0939 269.804 92.0458 270.388 92.7691 271.241C93.4924 272.094 93.8851 273.111 93.9473 274.292L91.5102 273.639C91.4053 273.061 91.1652 272.585 90.7898 272.21C90.4245 271.838 89.9543 271.574 89.3791 271.42C88.7635 271.255 88.1737 271.257 87.6097 271.424C87.0586 271.584 86.5753 271.894 86.1601 272.353C85.7549 272.816 85.4563 273.406 85.2641 274.123C85.0746 274.83 85.0383 275.491 85.1551 276.104C85.2848 276.71 85.547 277.225 85.9417 277.649C86.3492 278.066 86.8607 278.357 87.4762 278.522C88.0515 278.676 88.5904 278.683 89.0929 278.543C89.6083 278.395 90.0558 278.098 90.4353 277.651L92.8723 278.304C92.2253 279.305 91.3754 279.995 90.3226 280.372C89.2827 280.741 88.1674 280.766 86.9766 280.447C85.9674 280.177 85.116 279.701 84.4221 279.021C83.7412 278.334 83.2747 277.511 83.0228 276.554C82.781 275.6 82.8015 274.595 83.0843 273.539Z" fill="#F3DE38"/>
<path d="M97.4582 283.306C96.6509 283.09 95.9724 282.716 95.4226 282.184C94.8756 281.642 94.5047 280.988 94.3098 280.222C94.125 279.458 94.1492 278.641 94.3826 277.77C94.616 276.899 95.0086 276.181 95.5605 275.615C96.1224 275.051 96.7795 274.678 97.5314 274.495C98.2862 274.302 99.0673 274.314 99.8746 274.53C100.682 274.746 101.364 275.127 101.921 275.671C102.481 276.206 102.858 276.856 103.054 277.622C103.258 278.391 103.244 279.211 103.01 280.082C102.777 280.953 102.375 281.669 101.802 282.229C101.241 282.793 100.577 283.17 99.8123 283.36C99.0603 283.543 98.2756 283.525 97.4582 283.306ZM97.9606 281.431C98.3441 281.533 98.7271 281.537 99.1095 281.442C99.5048 281.339 99.8541 281.125 100.158 280.8C100.461 280.475 100.685 280.041 100.831 279.498C101.048 278.688 101.002 278.012 100.694 277.468C100.398 276.916 99.9473 276.559 99.3418 276.397C98.7364 276.235 98.1677 276.319 97.6359 276.648C97.1169 276.971 96.749 277.536 96.5321 278.346C96.3152 279.156 96.3445 279.833 96.62 280.379C96.9083 280.918 97.3552 281.268 97.9606 281.431Z" fill="#F3DE38"/>
<path d="M107.055 275.514C106.681 275.414 106.4 275.212 106.211 274.909C106.035 274.598 105.995 274.263 106.091 273.904C106.187 273.546 106.388 273.281 106.693 273.11C107.011 272.932 107.357 272.893 107.73 272.993C108.104 273.093 108.379 273.298 108.555 273.609C108.744 273.912 108.791 274.243 108.695 274.602C108.598 274.961 108.391 275.229 108.073 275.408C107.768 275.578 107.428 275.614 107.055 275.514ZM107.827 276.808L105.546 285.323L103.427 284.756L105.709 276.24L107.827 276.808Z" fill="#F3DE38"/>
<path d="M114.6 278.491C115.599 278.759 116.32 279.298 116.763 280.109C117.208 280.909 117.277 281.883 116.969 283.031L115.631 288.026L113.511 287.458L114.772 282.755C114.953 282.078 114.925 281.516 114.688 281.068C114.454 280.61 114.049 280.304 113.474 280.15C112.889 279.993 112.375 280.053 111.933 280.33C111.504 280.6 111.199 281.073 111.018 281.749L109.757 286.452L107.638 285.885L109.92 277.369L112.039 277.937L111.755 278.997C112.136 278.704 112.571 278.513 113.06 278.425C113.562 278.328 114.075 278.351 114.6 278.491Z" fill="#F3DE38"/>
<path d="M80.8571 281.938L77.9823 292.667L75.8634 292.099L77.7333 285.121L73.0328 291.341L71.4281 290.911L70.4523 283.17L68.5824 290.148L66.4631 289.581L69.3379 278.852L71.7449 279.497L72.9677 288.374L78.4656 281.297L80.8571 281.938Z" fill="#707070"/>
<path d="M83.7612 294.364C82.9536 294.148 82.2754 293.774 81.7254 293.242C81.1787 292.7 80.8073 292.046 80.6128 291.28C80.4276 290.516 80.452 289.699 80.6853 288.828C80.9187 287.957 81.3114 287.239 81.8634 286.673C82.4252 286.109 83.0823 285.736 83.8344 285.553C84.5892 285.36 85.37 285.372 86.1775 285.588C86.9845 285.804 87.6671 286.185 88.2242 286.73C88.784 287.264 89.1614 287.914 89.3559 288.68C89.5613 289.449 89.5467 290.269 89.3134 291.14C89.08 292.011 88.6775 292.727 88.1053 293.288C87.5435 293.851 86.8798 294.228 86.1152 294.418C85.3632 294.601 84.5785 294.583 83.7612 294.364ZM84.2636 292.489C84.6469 292.592 85.0302 292.595 85.4122 292.5C85.8078 292.397 86.1568 292.183 86.4602 291.858C86.764 291.533 86.9885 291.099 87.134 290.556C87.3509 289.747 87.3049 289.07 86.9966 288.526C86.7008 287.974 86.2503 287.618 85.6445 287.455C85.0393 287.293 84.4707 287.377 83.9388 287.707C83.42 288.029 83.0516 288.595 82.8347 289.404C82.6178 290.214 82.6474 290.892 82.923 291.438C83.2112 291.976 83.6579 292.327 84.2636 292.489Z" fill="#707070"/>
<path d="M93.4125 296.951C92.605 296.735 91.9263 296.361 91.3768 295.829C90.8295 295.287 90.4586 294.633 90.2641 293.867C90.079 293.103 90.1033 292.286 90.3367 291.415C90.5701 290.544 90.9628 289.826 91.5147 289.26C92.0765 288.696 92.7337 288.323 93.4857 288.14C94.2405 287.947 95.0214 287.959 95.8289 288.175C96.6359 288.391 97.3184 288.772 97.8755 289.317C98.4354 289.851 98.8123 290.501 99.0073 291.267C99.2126 292.036 99.1981 292.856 98.9647 293.727C98.7313 294.598 98.3288 295.314 97.7567 295.875C97.1949 296.438 96.5312 296.815 95.7666 297.005C95.0145 297.188 94.2298 297.17 93.4125 296.951ZM93.915 295.076C94.2983 295.178 94.681 295.182 95.0636 295.087C95.4587 294.984 95.8082 294.77 96.1115 294.445C96.4149 294.12 96.6398 293.686 96.7853 293.143C97.0023 292.334 96.9563 291.657 96.6479 291.113C96.3522 290.561 95.9017 290.204 95.2959 290.042C94.6907 289.88 94.1221 289.964 93.5902 290.294C93.0709 290.616 92.703 291.182 92.4861 291.991C92.2692 292.801 92.2988 293.479 92.5738 294.024C92.8625 294.563 93.3092 294.913 93.915 295.076Z" fill="#707070"/>
<path d="M106.337 291.006C107.337 291.274 108.057 291.813 108.5 292.623C108.945 293.424 109.014 294.397 108.707 295.545L107.368 300.541L105.249 299.973L106.509 295.27C106.691 294.593 106.663 294.031 106.426 293.583C106.191 293.125 105.787 292.819 105.211 292.665C104.626 292.508 104.113 292.568 103.671 292.845C103.242 293.114 102.937 293.587 102.755 294.264L101.495 298.967L99.3757 298.399L101.657 289.884L103.777 290.452L103.493 291.512C103.874 291.219 104.309 291.028 104.798 290.939C105.3 290.843 105.813 290.865 106.337 291.006Z" fill="#707070"/>
<rect x="387.832" y="9.82812" width="132.233" height="132.233" transform="rotate(15 387.832 9.82812)" fill="#ECECEC"/>
<path d="M419.694 79.2004C419.977 78.1449 420.461 77.2643 421.148 76.5586C421.847 75.8454 422.662 75.3665 423.593 75.1216C424.537 74.8693 425.513 74.8783 426.523 75.1487C427.703 75.4651 428.655 76.0496 429.378 76.9024C430.102 77.7552 430.494 78.772 430.557 79.9529L428.12 79.2999C428.015 78.7226 427.775 78.2464 427.399 77.8713C427.034 77.4988 426.564 77.2355 425.988 77.0814C425.373 76.9165 424.783 76.9177 424.219 77.085C423.668 77.2449 423.185 77.5548 422.769 78.0146C422.364 78.4772 422.066 79.0671 421.873 79.7844C421.684 80.4915 421.648 81.1517 421.765 81.7651C421.894 82.371 422.156 82.886 422.551 83.3103C422.959 83.727 423.47 84.0179 424.086 84.1828C424.661 84.3369 425.2 84.344 425.702 84.2041C426.218 84.0566 426.665 83.7592 427.045 83.3117L429.482 83.9647C428.835 84.9665 427.985 85.6559 426.932 86.0328C425.892 86.4021 424.777 86.4272 423.586 86.1082C422.577 85.8378 421.725 85.3625 421.032 84.6824C420.351 83.9947 419.884 83.1723 419.632 82.2152C419.39 81.2607 419.411 80.2558 419.694 79.2004Z" fill="#F3DE38"/>
<path d="M434.068 88.967C433.26 88.7507 432.582 88.3767 432.032 87.845C431.485 87.3031 431.114 86.649 430.919 85.8829C430.734 85.1195 430.759 84.3023 430.992 83.4312C431.225 82.5602 431.618 81.8417 432.17 81.2756C432.732 80.7123 433.389 80.3392 434.141 80.1563C434.896 79.9632 435.677 79.9748 436.484 80.1911C437.291 80.4074 437.973 80.7879 438.531 81.3326C439.09 81.8669 439.468 82.5172 439.663 83.2834C439.868 84.0522 439.853 84.872 439.62 85.743C439.386 86.6141 438.984 87.33 438.412 87.8906C437.85 88.4539 437.187 88.8308 436.422 89.0212C435.67 89.2041 434.885 89.1861 434.068 88.967ZM434.57 87.0918C434.953 87.1945 435.336 87.1983 435.719 87.1031C436.114 87.0003 436.464 86.7864 436.767 86.4613C437.07 86.1363 437.295 85.7021 437.44 85.159C437.657 84.3495 437.611 83.6728 437.303 83.1288C437.007 82.5773 436.557 82.2205 435.951 82.0582C435.346 81.896 434.777 81.9798 434.245 82.3095C433.726 82.6317 433.358 83.1976 433.141 84.0072C432.925 84.8167 432.954 85.4945 433.229 86.0406C433.518 86.5792 433.965 86.9295 434.57 87.0918Z" fill="#F3DE38"/>
<path d="M443.664 81.1753C443.291 81.0752 443.01 80.8736 442.821 80.5703C442.644 80.2595 442.604 79.9247 442.7 79.5661C442.796 79.2074 442.997 78.9427 443.302 78.7719C443.621 78.5936 443.966 78.5543 444.34 78.6544C444.713 78.7545 444.988 78.9599 445.164 79.2707C445.353 79.5741 445.4 79.905 445.304 80.2637C445.208 80.6224 445.001 80.8908 444.682 81.0691C444.377 81.2399 444.038 81.2753 443.664 81.1753ZM444.437 82.4696L442.155 90.9851L440.036 90.4174L442.318 81.9018L444.437 82.4696Z" fill="#F3DE38"/>
<path d="M451.209 84.1524C452.208 84.42 452.929 84.9592 453.372 85.7697C453.817 86.57 453.886 87.544 453.579 88.6917L452.24 93.6873L450.121 93.1194L451.381 88.4159C451.562 87.7395 451.534 87.1774 451.297 86.7295C451.064 86.2715 450.659 85.9653 450.084 85.8111C449.498 85.6542 448.984 85.7144 448.543 85.9914C448.113 86.2608 447.808 86.7337 447.627 87.41L446.367 92.1135L444.248 91.5457L446.53 83.0302L448.648 83.5979L448.364 84.6586C448.746 84.3653 449.181 84.1745 449.67 84.0858C450.171 83.9895 450.684 84.0117 451.209 84.1524Z" fill="#F3DE38"/>
<path d="M417.463 87.5993L414.588 98.3282L412.469 97.7605L414.339 90.7821L409.638 97.002L408.034 96.572L407.058 88.8311L405.188 95.8095L403.069 95.2417L405.943 84.5127L408.35 85.1576L409.573 94.0356L415.071 86.9585L417.463 87.5993Z" fill="#707070"/>
<path d="M420.367 100.026C419.559 99.8094 418.881 99.4354 418.331 98.9037C417.784 98.3618 417.413 97.7077 417.218 96.9416C417.033 96.1781 417.057 95.3609 417.291 94.4899C417.524 93.6189 417.917 92.9003 418.469 92.3343C419.031 91.771 419.688 91.3979 420.44 91.215C421.195 91.0219 421.976 91.0334 422.783 91.2498C423.59 91.466 424.273 91.8466 424.83 92.3913C425.389 92.9257 425.767 93.5759 425.961 94.342C426.167 95.1109 426.152 95.9307 425.919 96.8017C425.685 97.6728 425.283 98.3887 424.711 98.9493C424.149 99.5126 423.485 99.8894 422.721 100.08C421.969 100.263 421.184 100.245 420.367 100.026ZM420.869 98.1505C421.252 98.2532 421.636 98.257 422.018 98.1617C422.413 98.0591 422.762 97.8451 423.066 97.52C423.369 97.195 423.594 96.7609 423.739 96.2178C423.956 95.4082 423.91 94.7314 423.602 94.1875C423.306 93.636 422.856 93.2792 422.25 93.1169C421.645 92.9547 421.076 93.0385 420.544 93.3682C420.025 93.6905 419.657 94.2562 419.44 95.0658C419.223 95.8753 419.253 96.5532 419.528 97.0993C419.817 97.6379 420.263 97.9882 420.869 98.1505Z" fill="#707070"/>
<path d="M430.019 102.612C429.211 102.396 428.533 102.022 427.983 101.49C427.436 100.948 427.065 100.294 426.871 99.5281C426.685 98.7645 426.71 97.9473 426.943 97.0763C427.177 96.2053 427.569 95.4868 428.121 94.9208C428.683 94.3574 429.34 93.9843 430.092 93.8015C430.847 93.6083 431.628 93.6198 432.435 93.8362C433.242 94.0524 433.925 94.433 434.482 94.9777C435.042 95.5121 435.419 96.1622 435.614 96.9284C435.819 97.6973 435.805 98.5172 435.571 99.3882C435.338 100.259 434.935 100.975 434.363 101.536C433.801 102.099 433.138 102.476 432.373 102.666C431.621 102.849 430.836 102.831 430.019 102.612ZM430.521 100.737C430.905 100.84 431.287 100.843 431.67 100.748C432.065 100.645 432.415 100.431 432.718 100.106C433.021 99.7813 433.246 99.3473 433.392 98.8042C433.609 97.9947 433.563 97.3179 433.254 96.774C432.959 96.2225 432.508 95.8656 431.902 95.7033C431.297 95.5411 430.729 95.6249 430.197 95.9546C429.677 96.2768 429.309 96.8427 429.093 97.6522C428.876 98.4617 428.905 99.1397 429.18 99.6856C429.469 100.224 429.916 100.575 430.521 100.737Z" fill="#707070"/>
<path d="M442.943 96.667C443.942 96.9348 444.663 97.4738 445.105 98.2844C445.551 99.0847 445.62 100.059 445.312 101.206L443.973 106.202L441.855 105.634L443.115 100.931C443.296 100.254 443.268 99.6922 443.031 99.2442C442.797 98.7861 442.392 98.4799 441.817 98.3258C441.232 98.169 440.718 98.2292 440.276 98.506C439.847 98.7756 439.542 99.2484 439.361 99.9248L438.101 104.628L435.981 104.06L438.263 95.5448L440.382 96.1127L440.098 97.1733C440.479 96.8801 440.915 96.6893 441.403 96.6004C441.905 96.5043 442.418 96.5265 442.943 96.667Z" fill="#707070"/>
<path d="M454.978 104.39C454.895 104.697 454.801 104.969 454.695 105.204L448.564 103.561C448.45 104.189 448.533 104.728 448.813 105.176C449.092 105.625 449.505 105.922 450.05 106.068C450.837 106.279 451.489 106.086 452.006 105.488L454.292 106.101C453.83 106.856 453.184 107.407 452.356 107.757C451.529 108.095 450.616 108.131 449.617 107.863C448.81 107.647 448.132 107.273 447.582 106.741C447.045 106.202 446.684 105.55 446.5 104.787C446.325 104.026 446.354 103.211 446.588 102.339C446.824 101.458 447.208 100.732 447.739 100.16C448.271 99.5889 448.902 99.209 449.634 99.0207C450.366 98.8324 451.146 98.8492 451.973 99.0708C452.77 99.2844 453.436 99.6494 453.968 100.165C454.51 100.684 454.866 101.312 455.036 102.05C455.219 102.78 455.2 103.56 454.978 104.39ZM452.947 103.187C453.085 102.631 453.007 102.137 452.711 101.707C452.418 101.266 451.994 100.971 451.439 100.822C450.915 100.682 450.426 100.727 449.975 100.957C449.537 101.18 449.201 101.568 448.966 102.12L452.947 103.187Z" fill="#707070"/>
<path d="M459.376 102.619C459.77 102.241 460.218 101.982 460.72 101.842C461.233 101.705 461.772 101.712 462.337 101.863L461.732 104.123L461.171 103.973C460.506 103.794 459.958 103.818 459.53 104.044C459.112 104.272 458.797 104.781 458.585 105.57L457.449 109.812L455.33 109.244L457.612 100.729L459.73 101.297L459.376 102.619Z" fill="#707070"/>
<rect x="316.698" y="275.3" width="132.233" height="132.233" transform="rotate(15 316.698 275.3)" fill="#F8F8F8"/>
</svg>
