<svg width="608" height="404" viewBox="0 0 608 404" fill="none" xmlns="http://www.w3.org/2000/svg">
<rect x="154" y="304" width="220" height="100" rx="14" fill="#EECE91"/>
<mask id="mask0_776_8439" style="mask-type:alpha" maskUnits="userSpaceOnUse" x="154" y="304" width="220" height="100">
<rect x="154" y="304" width="220" height="100" rx="14" fill="#EECE91"/>
</mask>
<g mask="url(#mask0_776_8439)">
<path d="M370.552 391.691C399.497 400.266 424.321 412.607 441.059 425.611C449.429 432.114 455.756 438.767 459.571 445.176C463.386 451.585 464.666 457.704 463.041 463.189C461.416 468.675 457.01 473.11 450.32 476.406C443.629 479.703 434.7 481.836 424.138 482.731C403.018 484.52 375.477 481.349 346.532 472.775C317.587 464.2 292.763 451.859 276.025 438.855C267.654 432.352 261.328 425.699 257.512 419.29C253.697 412.881 252.417 406.762 254.042 401.277C255.667 395.791 260.074 391.356 266.764 388.06C273.455 384.763 282.384 382.63 292.945 381.735C314.066 379.946 341.607 383.117 370.552 391.691Z" stroke="#232320"/>
<path d="M381.102 377.86C408.532 390.401 431.352 406.105 446.076 421.338C453.439 428.955 458.758 436.436 461.627 443.326C464.496 450.214 464.897 456.463 462.512 461.679C460.128 466.894 455.139 470.678 448.053 473.015C440.965 475.353 431.827 476.223 421.249 475.638C400.096 474.467 373.29 467.481 345.86 454.939C318.43 442.398 295.61 426.694 280.886 411.462C273.523 403.844 268.204 396.363 265.335 389.474C262.466 382.585 262.065 376.336 264.45 371.121C266.834 365.906 271.823 362.121 278.91 359.784C285.997 357.447 295.135 356.576 305.713 357.162C326.866 358.332 353.672 365.318 381.102 377.86Z" stroke="#232320"/>
<path d="M397.217 364.775C423.12 380.226 444.097 398.318 457.076 415.062C463.567 423.435 468.042 431.45 470.144 438.611C472.247 445.771 471.965 452.026 469.028 456.951C466.09 461.876 460.72 465.096 453.421 466.648C446.121 468.2 436.943 468.072 426.491 466.339C405.591 462.875 379.704 453.015 353.8 437.564C327.897 422.114 306.921 404.022 293.941 387.278C287.45 378.904 282.976 370.89 280.873 363.729C278.771 356.569 279.052 350.313 281.989 345.389C284.927 340.464 290.298 337.244 297.597 335.692C304.896 334.139 314.075 334.268 324.526 336C345.427 339.464 371.313 349.325 397.217 364.775Z" stroke="#232320"/>
<path d="M411.735 350.372C436.203 368.007 455.535 387.847 467.016 405.652C472.757 414.556 476.521 422.928 477.996 430.244C479.47 437.559 478.649 443.766 475.296 448.418C471.943 453.071 466.314 455.813 458.908 456.728C451.501 457.643 442.368 456.72 432.106 454.089C411.584 448.828 386.648 436.764 362.179 419.129C337.711 401.494 318.379 381.653 306.898 363.849C301.157 354.945 297.393 346.573 295.918 339.257C294.444 331.942 295.265 325.734 298.618 321.082C301.971 316.43 307.6 313.687 315.006 312.773C322.413 311.858 331.546 312.781 341.808 315.412C362.33 320.672 387.266 332.737 411.735 350.372Z" stroke="#232320"/>
</g>
<path d="M178.634 339.21C177.911 339.21 177.257 339.086 176.674 338.839C176.095 338.587 175.617 338.23 175.239 337.768C174.866 337.301 174.623 336.748 174.511 336.109L176.037 335.878C176.191 336.494 176.513 336.975 177.003 337.32C177.493 337.661 178.065 337.831 178.718 337.831C179.124 337.831 179.497 337.768 179.838 337.642C180.179 337.511 180.452 337.327 180.657 337.089C180.867 336.846 180.972 336.557 180.972 336.221C180.972 336.039 180.939 335.878 180.874 335.738C180.813 335.598 180.727 335.477 180.615 335.374C180.508 335.267 180.375 335.176 180.216 335.101C180.062 335.022 179.892 334.954 179.705 334.898L177.122 334.135C176.87 334.06 176.613 333.965 176.352 333.848C176.091 333.727 175.85 333.57 175.631 333.379C175.416 333.183 175.241 332.943 175.106 332.658C174.971 332.369 174.903 332.019 174.903 331.608C174.903 330.987 175.062 330.462 175.379 330.033C175.701 329.599 176.135 329.272 176.681 329.053C177.227 328.829 177.838 328.717 178.515 328.717C179.196 328.726 179.805 328.848 180.342 329.081C180.883 329.314 181.331 329.65 181.686 330.089C182.045 330.523 182.293 331.05 182.428 331.671L180.86 331.937C180.79 331.559 180.641 331.235 180.412 330.964C180.183 330.689 179.903 330.479 179.572 330.334C179.241 330.185 178.881 330.108 178.494 330.103C178.121 330.094 177.778 330.15 177.465 330.271C177.157 330.392 176.91 330.563 176.723 330.782C176.541 331.001 176.45 331.253 176.45 331.538C176.45 331.818 176.532 332.044 176.695 332.217C176.858 332.39 177.059 332.527 177.297 332.63C177.54 332.728 177.78 332.81 178.018 332.875L179.88 333.4C180.113 333.465 180.377 333.554 180.671 333.666C180.97 333.773 181.257 333.925 181.532 334.121C181.812 334.317 182.043 334.578 182.225 334.905C182.407 335.227 182.498 335.633 182.498 336.123C182.498 336.632 182.395 337.08 182.19 337.467C181.985 337.85 181.702 338.172 181.343 338.433C180.988 338.69 180.578 338.883 180.111 339.014C179.644 339.145 179.152 339.21 178.634 339.21ZM183.99 339V331.44H185.292V333.274L185.11 333.036C185.203 332.793 185.324 332.572 185.474 332.371C185.623 332.166 185.796 331.998 185.992 331.867C186.183 331.727 186.395 331.62 186.629 331.545C186.867 331.466 187.109 331.419 187.357 331.405C187.604 331.386 187.842 331.398 188.071 331.44V332.812C187.823 332.747 187.548 332.728 187.245 332.756C186.946 332.784 186.671 332.88 186.419 333.043C186.181 333.197 185.992 333.384 185.852 333.603C185.716 333.822 185.618 334.067 185.558 334.338C185.497 334.604 185.467 334.886 185.467 335.185V339H183.99ZM188.535 339V337.453H190.082V339H188.535ZM197.226 339L194.3 328.92H195.833L197.954 336.543L200.075 328.927L201.615 328.92L203.736 336.543L205.857 328.92H207.397L204.464 339H203.008L200.845 331.461L198.682 339H197.226ZM211.091 339.21C210.339 339.21 209.679 339.047 209.11 338.72C208.545 338.389 208.104 337.929 207.787 337.341C207.474 336.748 207.318 336.062 207.318 335.283C207.318 334.457 207.472 333.741 207.78 333.134C208.092 332.527 208.526 332.058 209.082 331.727C209.637 331.396 210.283 331.23 211.021 331.23C211.791 331.23 212.446 331.41 212.988 331.769C213.529 332.124 213.933 332.63 214.199 333.288C214.469 333.946 214.577 334.728 214.521 335.633H213.058V335.101C213.048 334.224 212.88 333.575 212.554 333.155C212.232 332.735 211.739 332.525 211.077 332.525C210.344 332.525 209.793 332.756 209.425 333.218C209.056 333.68 208.872 334.347 208.872 335.22C208.872 336.051 209.056 336.695 209.425 337.152C209.793 337.605 210.325 337.831 211.021 337.831C211.478 337.831 211.872 337.728 212.204 337.523C212.54 337.313 212.801 337.014 212.988 336.627L214.423 337.082C214.129 337.759 213.683 338.284 213.086 338.657C212.488 339.026 211.823 339.21 211.091 339.21ZM208.396 335.633V334.492H213.793V335.633H208.396ZM219.64 339.21C218.917 339.21 218.31 339.035 217.82 338.685C217.33 338.33 216.959 337.852 216.707 337.25C216.455 336.648 216.329 335.969 216.329 335.213C216.329 334.457 216.453 333.778 216.7 333.176C216.952 332.574 217.321 332.1 217.806 331.755C218.296 331.405 218.898 331.23 219.612 331.23C220.322 331.23 220.933 331.405 221.446 331.755C221.964 332.1 222.363 332.574 222.643 333.176C222.923 333.773 223.063 334.452 223.063 335.213C223.063 335.969 222.923 336.65 222.643 337.257C222.368 337.859 221.974 338.335 221.46 338.685C220.952 339.035 220.345 339.21 219.64 339.21ZM216.084 339V328.92H217.554V333.561H217.386V339H216.084ZM219.437 337.887C219.904 337.887 220.289 337.768 220.592 337.53C220.9 337.292 221.129 336.972 221.278 336.571C221.432 336.165 221.509 335.712 221.509 335.213C221.509 334.718 221.432 334.27 221.278 333.869C221.129 333.468 220.898 333.148 220.585 332.91C220.273 332.672 219.874 332.553 219.388 332.553C218.931 332.553 218.553 332.665 218.254 332.889C217.96 333.113 217.741 333.426 217.596 333.827C217.456 334.228 217.386 334.69 217.386 335.213C217.386 335.736 217.456 336.198 217.596 336.599C217.736 337 217.958 337.315 218.261 337.544C218.565 337.773 218.957 337.887 219.437 337.887ZM174.98 358V347.92H178.137C178.23 347.92 178.403 347.922 178.655 347.927C178.912 347.932 179.157 347.95 179.39 347.983C180.179 348.081 180.841 348.363 181.378 348.83C181.919 349.297 182.328 349.889 182.603 350.608C182.878 351.322 183.016 352.106 183.016 352.96C183.016 353.819 182.878 354.607 182.603 355.326C182.328 356.04 181.919 356.63 181.378 357.097C180.841 357.559 180.179 357.839 179.39 357.937C179.157 357.97 178.912 357.988 178.655 357.993C178.403 357.998 178.23 358 178.137 358H174.98ZM176.478 356.607H178.137C178.296 356.607 178.485 356.602 178.704 356.593C178.923 356.584 179.117 356.565 179.285 356.537C179.798 356.439 180.214 356.217 180.531 355.872C180.853 355.522 181.089 355.093 181.238 354.584C181.387 354.075 181.462 353.534 181.462 352.96C181.462 352.367 181.385 351.819 181.231 351.315C181.077 350.806 180.839 350.382 180.517 350.041C180.2 349.696 179.789 349.476 179.285 349.383C179.117 349.35 178.921 349.332 178.697 349.327C178.478 349.318 178.291 349.313 178.137 349.313H176.478V356.607ZM187.999 358.21C187.248 358.21 186.587 358.047 186.018 357.72C185.453 357.389 185.012 356.929 184.695 356.341C184.382 355.748 184.226 355.062 184.226 354.283C184.226 353.457 184.38 352.741 184.688 352.134C185.001 351.527 185.435 351.058 185.99 350.727C186.545 350.396 187.192 350.23 187.929 350.23C188.699 350.23 189.355 350.41 189.896 350.769C190.437 351.124 190.841 351.63 191.107 352.288C191.378 352.946 191.485 353.728 191.429 354.633H189.966V354.101C189.957 353.224 189.789 352.575 189.462 352.155C189.14 351.735 188.648 351.525 187.985 351.525C187.252 351.525 186.702 351.756 186.333 352.218C185.964 352.68 185.78 353.347 185.78 354.22C185.78 355.051 185.964 355.695 186.333 356.152C186.702 356.605 187.234 356.831 187.929 356.831C188.386 356.831 188.781 356.728 189.112 356.523C189.448 356.313 189.709 356.014 189.896 355.627L191.331 356.082C191.037 356.759 190.591 357.284 189.994 357.657C189.397 358.026 188.732 358.21 187.999 358.21ZM185.304 354.633V353.492H190.701V354.633H185.304ZM194.77 358L192.026 350.44H193.503L195.512 356.166L197.521 350.44H198.998L196.254 358H194.77ZM203.339 358.21C202.588 358.21 201.927 358.047 201.358 357.72C200.793 357.389 200.352 356.929 200.035 356.341C199.722 355.748 199.566 355.062 199.566 354.283C199.566 353.457 199.72 352.741 200.028 352.134C200.341 351.527 200.775 351.058 201.33 350.727C201.885 350.396 202.532 350.23 203.269 350.23C204.039 350.23 204.695 350.41 205.236 350.769C205.777 351.124 206.181 351.63 206.447 352.288C206.718 352.946 206.825 353.728 206.769 354.633H205.306V354.101C205.297 353.224 205.129 352.575 204.802 352.155C204.48 351.735 203.988 351.525 203.325 351.525C202.592 351.525 202.042 351.756 201.673 352.218C201.304 352.68 201.12 353.347 201.12 354.22C201.12 355.051 201.304 355.695 201.673 356.152C202.042 356.605 202.574 356.831 203.269 356.831C203.726 356.831 204.121 356.728 204.452 356.523C204.788 356.313 205.049 356.014 205.236 355.627L206.671 356.082C206.377 356.759 205.931 357.284 205.334 357.657C204.737 358.026 204.072 358.21 203.339 358.21ZM200.644 354.633V353.492H206.041V354.633H200.644ZM208.479 358V347.71H209.942V358H208.479ZM215.327 358.21C214.571 358.21 213.916 358.04 213.36 357.699C212.805 357.358 212.376 356.889 212.072 356.292C211.774 355.69 211.624 354.997 211.624 354.213C211.624 353.424 211.778 352.731 212.086 352.134C212.394 351.532 212.826 351.065 213.381 350.734C213.937 350.398 214.585 350.23 215.327 350.23C216.083 350.23 216.739 350.4 217.294 350.741C217.85 351.082 218.279 351.551 218.582 352.148C218.886 352.745 219.037 353.434 219.037 354.213C219.037 355.002 218.883 355.697 218.575 356.299C218.272 356.896 217.843 357.365 217.287 357.706C216.732 358.042 216.079 358.21 215.327 358.21ZM215.327 356.831C216.051 356.831 216.59 356.588 216.944 356.103C217.304 355.613 217.483 354.983 217.483 354.213C217.483 353.424 217.301 352.794 216.937 352.323C216.578 351.847 216.041 351.609 215.327 351.609C214.837 351.609 214.434 351.721 214.116 351.945C213.799 352.164 213.563 352.47 213.409 352.862C213.255 353.249 213.178 353.7 213.178 354.213C213.178 355.006 213.36 355.641 213.724 356.117C214.088 356.593 214.623 356.831 215.327 356.831ZM224.125 358.21C223.401 358.21 222.795 358.035 222.305 357.685C221.815 357.33 221.444 356.852 221.192 356.25C220.94 355.648 220.814 354.969 220.814 354.213C220.814 353.457 220.937 352.778 221.185 352.176C221.437 351.574 221.805 351.1 222.291 350.755C222.781 350.405 223.383 350.23 224.097 350.23C224.806 350.23 225.417 350.405 225.931 350.755C226.449 351.1 226.848 351.574 227.128 352.176C227.408 352.773 227.548 353.452 227.548 354.213C227.548 354.969 227.408 355.65 227.128 356.257C226.852 356.859 226.458 357.335 225.945 357.685C225.436 358.035 224.829 358.21 224.125 358.21ZM220.569 361.36V350.44H221.871V355.879H222.039V361.36H220.569ZM223.922 356.887C224.388 356.887 224.773 356.768 225.077 356.53C225.385 356.292 225.613 355.972 225.763 355.571C225.917 355.165 225.994 354.712 225.994 354.213C225.994 353.718 225.917 353.27 225.763 352.869C225.613 352.468 225.382 352.148 225.07 351.91C224.757 351.672 224.358 351.553 223.873 351.553C223.415 351.553 223.037 351.665 222.739 351.889C222.445 352.113 222.225 352.426 222.081 352.827C221.941 353.228 221.871 353.69 221.871 354.213C221.871 354.736 221.941 355.198 222.081 355.599C222.221 356 222.442 356.315 222.746 356.544C223.049 356.773 223.441 356.887 223.922 356.887ZM232.446 358.21C231.695 358.21 231.035 358.047 230.465 357.72C229.901 357.389 229.46 356.929 229.142 356.341C228.83 355.748 228.673 355.062 228.673 354.283C228.673 353.457 228.827 352.741 229.135 352.134C229.448 351.527 229.882 351.058 230.437 350.727C230.993 350.396 231.639 350.23 232.376 350.23C233.146 350.23 233.802 350.41 234.343 350.769C234.885 351.124 235.288 351.63 235.554 352.288C235.825 352.946 235.932 353.728 235.876 354.633H234.413V354.101C234.404 353.224 234.236 352.575 233.909 352.155C233.587 351.735 233.095 351.525 232.432 351.525C231.7 351.525 231.149 351.756 230.78 352.218C230.412 352.68 230.227 353.347 230.227 354.22C230.227 355.051 230.412 355.695 230.78 356.152C231.149 356.605 231.681 356.831 232.376 356.831C232.834 356.831 233.228 356.728 233.559 356.523C233.895 356.313 234.157 356.014 234.343 355.627L235.778 356.082C235.484 356.759 235.039 357.284 234.441 357.657C233.844 358.026 233.179 358.21 232.446 358.21ZM229.751 354.633V353.492H235.148V354.633H229.751ZM237.447 358V350.44H238.749V352.274L238.567 352.036C238.66 351.793 238.781 351.572 238.931 351.371C239.08 351.166 239.253 350.998 239.449 350.867C239.64 350.727 239.852 350.62 240.086 350.545C240.324 350.466 240.566 350.419 240.814 350.405C241.061 350.386 241.299 350.398 241.528 350.44V351.812C241.28 351.747 241.005 351.728 240.702 351.756C240.403 351.784 240.128 351.88 239.876 352.043C239.638 352.197 239.449 352.384 239.309 352.603C239.173 352.822 239.075 353.067 239.015 353.338C238.954 353.604 238.924 353.886 238.924 354.185V358H237.447Z" fill="#111111"/>
<rect y="304" width="140" height="100" rx="14" fill="#A6D6BC"/>
<mask id="mask1_776_8439" style="mask-type:alpha" maskUnits="userSpaceOnUse" x="0" y="304" width="140" height="100">
<rect y="304" width="140" height="100" rx="14" fill="#EECE91"/>
</mask>
<g mask="url(#mask1_776_8439)">
<path d="M0 375L59.3553 385.175C66.4004 386.383 73.5996 386.383 80.6447 385.175L140 375" stroke="#232320"/>
<path d="M0 387L59.3553 397.175C66.4004 398.383 73.5996 398.383 80.6447 397.175L140 387" stroke="#232320"/>
<path d="M0 387L59.3553 376.825C66.4004 375.617 73.5996 375.617 80.6447 376.825L140 387" stroke="#232320"/>
<path d="M0 399L59.3553 388.825C66.4004 387.617 73.5996 387.617 80.6447 388.825L140 399" stroke="#232320"/>
</g>
<path d="M24.998 339.21C24.2093 339.21 23.5117 339.049 22.905 338.727C22.303 338.4 21.8317 337.945 21.491 337.362C21.1503 336.774 20.98 336.083 20.98 335.29V328.927L22.464 328.92V335.213C22.464 335.642 22.5363 336.02 22.681 336.347C22.8257 336.674 23.0193 336.947 23.262 337.166C23.5047 337.385 23.7753 337.551 24.074 337.663C24.3773 337.775 24.6853 337.831 24.998 337.831C25.3153 337.831 25.6233 337.775 25.922 337.663C26.2253 337.546 26.4983 337.378 26.741 337.159C26.9837 336.94 27.175 336.667 27.315 336.34C27.4597 336.013 27.532 335.638 27.532 335.213V328.92H29.016V335.29C29.016 336.079 28.8457 336.767 28.505 337.355C28.1643 337.943 27.6907 338.4 27.084 338.727C26.482 339.049 25.7867 339.21 24.998 339.21ZM30.1341 339L33.5711 333.897L30.2251 328.92H32.0171L34.4741 332.658L36.9171 328.92H38.7161L35.3701 333.897L38.8001 339H37.0081L34.4741 335.143L31.9331 339H30.1341ZM43.0241 328.92H44.5011L41.8131 339H40.3361L43.0241 328.92ZM50.3457 339.21C49.557 339.21 48.8593 339.049 48.2527 338.727C47.6507 338.4 47.1793 337.945 46.8387 337.362C46.498 336.774 46.3277 336.083 46.3277 335.29V328.927L47.8117 328.92V335.213C47.8117 335.642 47.884 336.02 48.0287 336.347C48.1733 336.674 48.367 336.947 48.6097 337.166C48.8523 337.385 49.123 337.551 49.4217 337.663C49.725 337.775 50.033 337.831 50.3457 337.831C50.663 337.831 50.971 337.775 51.2697 337.663C51.573 337.546 51.846 337.378 52.0887 337.159C52.3313 336.94 52.5227 336.667 52.6627 336.34C52.8073 336.013 52.8797 335.638 52.8797 335.213V328.92H54.3637V335.29C54.3637 336.079 54.1933 336.767 53.8527 337.355C53.512 337.943 53.0383 338.4 52.4317 338.727C51.8297 339.049 51.1343 339.21 50.3457 339.21ZM56.4618 339V328.92H57.9248V339H56.4618ZM20.98 358V347.92H24.137C24.2303 347.92 24.403 347.922 24.655 347.927C24.9117 347.932 25.1567 347.95 25.39 347.983C26.1787 348.081 26.8413 348.363 27.378 348.83C27.9193 349.297 28.3277 349.889 28.603 350.608C28.8783 351.322 29.016 352.106 29.016 352.96C29.016 353.819 28.8783 354.607 28.603 355.326C28.3277 356.04 27.9193 356.63 27.378 357.097C26.8413 357.559 26.1787 357.839 25.39 357.937C25.1567 357.97 24.9117 357.988 24.655 357.993C24.403 357.998 24.2303 358 24.137 358H20.98ZM22.478 356.607H24.137C24.2957 356.607 24.4847 356.602 24.704 356.593C24.9233 356.584 25.117 356.565 25.285 356.537C25.7983 356.439 26.2137 356.217 26.531 355.872C26.853 355.522 27.0887 355.093 27.238 354.584C27.3873 354.075 27.462 353.534 27.462 352.96C27.462 352.367 27.385 351.819 27.231 351.315C27.077 350.806 26.839 350.382 26.517 350.041C26.1997 349.696 25.789 349.476 25.285 349.383C25.117 349.35 24.921 349.332 24.697 349.327C24.4777 349.318 24.291 349.313 24.137 349.313H22.478V356.607ZM33.999 358.21C33.2477 358.21 32.5873 358.047 32.018 357.72C31.4533 357.389 31.0123 356.929 30.695 356.341C30.3823 355.748 30.226 355.062 30.226 354.283C30.226 353.457 30.38 352.741 30.688 352.134C31.0007 351.527 31.4347 351.058 31.99 350.727C32.5453 350.396 33.1917 350.23 33.929 350.23C34.699 350.23 35.3547 350.41 35.896 350.769C36.4373 351.124 36.841 351.63 37.107 352.288C37.3777 352.946 37.485 353.728 37.429 354.633H35.966V354.101C35.9567 353.224 35.7887 352.575 35.462 352.155C35.14 351.735 34.6477 351.525 33.985 351.525C33.2523 351.525 32.7017 351.756 32.333 352.218C31.9643 352.68 31.78 353.347 31.78 354.22C31.78 355.051 31.9643 355.695 32.333 356.152C32.7017 356.605 33.2337 356.831 33.929 356.831C34.3863 356.831 34.7807 356.728 35.112 356.523C35.448 356.313 35.7093 356.014 35.896 355.627L37.331 356.082C37.037 356.759 36.5913 357.284 35.994 357.657C35.3967 358.026 34.7317 358.21 33.999 358.21ZM31.304 354.633V353.492H36.701V354.633H31.304ZM41.8905 358.203C40.9712 358.203 40.2222 358 39.6435 357.594C39.0649 357.188 38.7102 356.616 38.5795 355.879L40.0775 355.648C40.1709 356.04 40.3855 356.35 40.7215 356.579C41.0622 356.803 41.4845 356.915 41.9885 356.915C42.4459 356.915 42.8029 356.822 43.0595 356.635C43.3209 356.448 43.4515 356.192 43.4515 355.865C43.4515 355.674 43.4049 355.52 43.3115 355.403C43.2229 355.282 43.0339 355.167 42.7445 355.06C42.4552 354.953 42.0142 354.82 41.4215 354.661C40.7729 354.493 40.2572 354.313 39.8745 354.122C39.4965 353.926 39.2259 353.7 39.0625 353.443C38.9039 353.182 38.8245 352.867 38.8245 352.498C38.8245 352.041 38.9459 351.642 39.1885 351.301C39.4312 350.96 39.7719 350.697 40.2105 350.51C40.6539 350.323 41.1719 350.23 41.7645 350.23C42.3432 350.23 42.8589 350.321 43.3115 350.503C43.7642 350.685 44.1305 350.944 44.4105 351.28C44.6905 351.611 44.8585 352.001 44.9145 352.449L43.4165 352.722C43.3652 352.358 43.1949 352.071 42.9055 351.861C42.6162 351.651 42.2405 351.537 41.7785 351.518C41.3352 351.499 40.9759 351.574 40.7005 351.742C40.4252 351.905 40.2875 352.132 40.2875 352.421C40.2875 352.589 40.3389 352.731 40.4415 352.848C40.5489 352.965 40.7542 353.077 41.0575 353.184C41.3609 353.291 41.8089 353.42 42.4015 353.569C43.0362 353.732 43.5402 353.914 43.9135 354.115C44.2869 354.311 44.5529 354.547 44.7115 354.822C44.8749 355.093 44.9565 355.422 44.9565 355.809C44.9565 356.556 44.6835 357.141 44.1375 357.566C43.5962 357.991 42.8472 358.203 41.8905 358.203ZM46.6454 349.201V347.78H48.1084V349.201H46.6454ZM46.6454 358V350.44H48.1084V358H46.6454ZM53.3255 361.57C52.9195 361.57 52.5251 361.507 52.1425 361.381C51.7645 361.255 51.4191 361.068 51.1065 360.821C50.7938 360.578 50.5348 360.277 50.3295 359.918L51.6805 359.232C51.8438 359.554 52.0771 359.79 52.3805 359.939C52.6838 360.088 53.0035 360.163 53.3395 360.163C53.7548 360.163 54.1095 360.088 54.4035 359.939C54.6975 359.794 54.9191 359.575 55.0685 359.281C55.2225 358.987 55.2971 358.623 55.2925 358.189V356.075H55.4675V350.44H56.7625V358.203C56.7625 358.404 56.7555 358.595 56.7415 358.777C56.7275 358.959 56.7018 359.141 56.6645 359.323C56.5571 359.832 56.3518 360.252 56.0485 360.583C55.7498 360.914 55.3671 361.162 54.9005 361.325C54.4385 361.488 53.9135 361.57 53.3255 361.57ZM53.2135 358.21C52.5088 358.21 51.8998 358.035 51.3865 357.685C50.8778 357.335 50.4835 356.859 50.2035 356.257C49.9281 355.65 49.7905 354.969 49.7905 354.213C49.7905 353.452 49.9305 352.773 50.2105 352.176C50.4905 351.574 50.8871 351.1 51.4005 350.755C51.9185 350.405 52.5321 350.23 53.2415 350.23C53.9555 350.23 54.5551 350.405 55.0405 350.755C55.5305 351.1 55.8991 351.574 56.1465 352.176C56.3985 352.778 56.5245 353.457 56.5245 354.213C56.5245 354.969 56.3985 355.648 56.1465 356.25C55.8945 356.852 55.5235 357.33 55.0335 357.685C54.5435 358.035 53.9368 358.21 53.2135 358.21ZM53.4165 356.887C53.8971 356.887 54.2891 356.773 54.5925 356.544C54.8958 356.315 55.1175 356 55.2575 355.599C55.3975 355.198 55.4675 354.736 55.4675 354.213C55.4675 353.69 55.3951 353.228 55.2505 352.827C55.1105 352.426 54.8911 352.113 54.5925 351.889C54.2985 351.665 53.9228 351.553 53.4655 351.553C52.9801 351.553 52.5811 351.672 52.2685 351.91C51.9558 352.148 51.7225 352.468 51.5685 352.869C51.4191 353.27 51.3445 353.718 51.3445 354.213C51.3445 354.712 51.4191 355.165 51.5685 355.571C51.7225 355.972 51.9511 356.292 52.2545 356.53C52.5625 356.768 52.9498 356.887 53.4165 356.887ZM64.034 358V354.283C64.034 353.989 64.0084 353.688 63.957 353.38C63.9104 353.067 63.817 352.778 63.677 352.512C63.5417 352.246 63.348 352.031 63.096 351.868C62.8487 351.705 62.5244 351.623 62.123 351.623C61.8617 351.623 61.6144 351.667 61.381 351.756C61.1477 351.84 60.9424 351.978 60.765 352.169C60.5924 352.36 60.4547 352.612 60.352 352.925C60.254 353.238 60.205 353.618 60.205 354.066L59.295 353.723C59.295 353.037 59.4234 352.433 59.68 351.91C59.9367 351.383 60.3054 350.972 60.786 350.678C61.2667 350.384 61.8477 350.237 62.529 350.237C63.0517 350.237 63.4904 350.321 63.845 350.489C64.1997 350.657 64.4867 350.879 64.706 351.154C64.93 351.425 65.1004 351.721 65.217 352.043C65.3337 352.365 65.413 352.68 65.455 352.988C65.497 353.296 65.518 353.567 65.518 353.8V358H64.034ZM58.721 358V350.44H60.03V352.624H60.205V358H58.721ZM70.5986 358.21C69.8473 358.21 69.187 358.047 68.6176 357.72C68.053 357.389 67.612 356.929 67.2946 356.341C66.982 355.748 66.8256 355.062 66.8256 354.283C66.8256 353.457 66.9796 352.741 67.2876 352.134C67.6003 351.527 68.0343 351.058 68.5896 350.727C69.145 350.396 69.7913 350.23 70.5286 350.23C71.2986 350.23 71.9543 350.41 72.4956 350.769C73.037 351.124 73.4406 351.63 73.7066 352.288C73.9773 352.946 74.0846 353.728 74.0286 354.633H72.5656V354.101C72.5563 353.224 72.3883 352.575 72.0616 352.155C71.7396 351.735 71.2473 351.525 70.5846 351.525C69.852 351.525 69.3013 351.756 68.9326 352.218C68.564 352.68 68.3796 353.347 68.3796 354.22C68.3796 355.051 68.564 355.695 68.9326 356.152C69.3013 356.605 69.8333 356.831 70.5286 356.831C70.986 356.831 71.3803 356.728 71.7116 356.523C72.0476 356.313 72.309 356.014 72.4956 355.627L73.9306 356.082C73.6366 356.759 73.191 357.284 72.5936 357.657C71.9963 358.026 71.3313 358.21 70.5986 358.21ZM67.9036 354.633V353.492H73.3006V354.633H67.9036ZM75.5991 358V350.44H76.9011V352.274L76.7191 352.036C76.8125 351.793 76.9338 351.572 77.0831 351.371C77.2325 351.166 77.4051 350.998 77.6011 350.867C77.7925 350.727 78.0048 350.62 78.2381 350.545C78.4761 350.466 78.7188 350.419 78.9661 350.405C79.2135 350.386 79.4515 350.398 79.6801 350.44V351.812C79.4328 351.747 79.1575 351.728 78.8541 351.756C78.5555 351.784 78.2801 351.88 78.0281 352.043C77.7901 352.197 77.6011 352.384 77.4611 352.603C77.3258 352.822 77.2278 353.067 77.1671 353.338C77.1065 353.604 77.0761 353.886 77.0761 354.185V358H75.5991Z" fill="#111111"/>
<rect x="388" width="220" height="190" rx="14" fill="#C5DDEB"/>
<mask id="mask2_776_8439" style="mask-type:alpha" maskUnits="userSpaceOnUse" x="388" y="0" width="220" height="190">
<rect x="388" width="220" height="190" rx="14" fill="#EECE91"/>
</mask>
<g mask="url(#mask2_776_8439)">
<path d="M406 259C415.167 208.277 421.881 137.124 507 137.124C552 137.124 566.167 58.4565 578 -8" stroke="#232320"/>
<path d="M419 259C428.167 208.277 434.881 137.124 520 137.124C565 137.124 579.167 58.4565 591 -8" stroke="#232320"/>
<path d="M431 259C440.167 208.277 446.881 137.124 532 137.124C577 137.124 591.167 58.4565 603 -8" stroke="#232320"/>
<path d="M444 259C453.167 208.277 459.881 137.124 545 137.124C590 137.124 604.167 58.4565 616 -8" stroke="#232320"/>
</g>
<path d="M408.98 35V24.92H413.054C413.152 24.92 413.273 24.9247 413.418 24.934C413.563 24.9387 413.7 24.9527 413.831 24.976C414.391 25.0647 414.858 25.256 415.231 25.55C415.609 25.844 415.891 26.215 416.078 26.663C416.265 27.111 416.358 27.6057 416.358 28.147C416.358 28.693 416.265 29.19 416.078 29.638C415.891 30.086 415.609 30.457 415.231 30.751C414.858 31.045 414.391 31.2363 413.831 31.325C413.7 31.3437 413.56 31.3577 413.411 31.367C413.266 31.3763 413.147 31.381 413.054 31.381H410.443V35H408.98ZM410.443 29.995H412.998C413.091 29.995 413.194 29.9903 413.306 29.981C413.423 29.9717 413.532 29.9553 413.635 29.932C413.934 29.862 414.174 29.7337 414.356 29.547C414.538 29.3557 414.669 29.1363 414.748 28.889C414.827 28.6417 414.867 28.3943 414.867 28.147C414.867 27.8997 414.827 27.6547 414.748 27.412C414.669 27.1647 414.538 26.9477 414.356 26.761C414.174 26.5697 413.934 26.439 413.635 26.369C413.532 26.341 413.423 26.3223 413.306 26.313C413.194 26.3037 413.091 26.299 412.998 26.299H410.443V29.995ZM417.757 35V27.44H419.059V29.274L418.877 29.036C418.971 28.7933 419.092 28.5717 419.241 28.371C419.391 28.1657 419.563 27.9977 419.759 27.867C419.951 27.727 420.163 27.6197 420.396 27.545C420.634 27.4657 420.877 27.419 421.124 27.405C421.372 27.3863 421.61 27.398 421.838 27.44V28.812C421.591 28.7467 421.316 28.728 421.012 28.756C420.714 28.784 420.438 28.8797 420.186 29.043C419.948 29.197 419.759 29.3837 419.619 29.603C419.484 29.8223 419.386 30.0673 419.325 30.338C419.265 30.604 419.234 30.8863 419.234 31.185V35H417.757ZM426.318 35.21C425.562 35.21 424.906 35.0397 424.351 34.699C423.795 34.3583 423.366 33.8893 423.063 33.292C422.764 32.69 422.615 31.997 422.615 31.213C422.615 30.4243 422.769 29.7313 423.077 29.134C423.385 28.532 423.816 28.0653 424.372 27.734C424.927 27.398 425.576 27.23 426.318 27.23C427.074 27.23 427.729 27.4003 428.285 27.741C428.84 28.0817 429.269 28.5507 429.573 29.148C429.876 29.7453 430.028 30.4337 430.028 31.213C430.028 32.0017 429.874 32.697 429.566 33.299C429.262 33.8963 428.833 34.3653 428.278 34.706C427.722 35.042 427.069 35.21 426.318 35.21ZM426.318 33.831C427.041 33.831 427.58 33.5883 427.935 33.103C428.294 32.613 428.474 31.983 428.474 31.213C428.474 30.4243 428.292 29.7943 427.928 29.323C427.568 28.847 427.032 28.609 426.318 28.609C425.828 28.609 425.424 28.721 425.107 28.945C424.789 29.1643 424.554 29.47 424.4 29.862C424.246 30.2493 424.169 30.6997 424.169 31.213C424.169 32.0063 424.351 32.641 424.715 33.117C425.079 33.593 425.613 33.831 426.318 33.831ZM430.446 38.36V36.974H430.831C431.218 36.974 431.501 36.8807 431.678 36.694C431.86 36.5073 431.951 36.2203 431.951 35.833V27.44H433.421V36.428C433.421 37.044 433.251 37.52 432.91 37.856C432.574 38.192 432.091 38.36 431.461 38.36H430.446ZM431.951 26.201V24.78H433.421V26.201H431.951ZM438.774 35.21C438.023 35.21 437.363 35.0467 436.793 34.72C436.229 34.3887 435.788 33.929 435.47 33.341C435.158 32.7483 435.001 32.0623 435.001 31.283C435.001 30.457 435.155 29.7407 435.463 29.134C435.776 28.5273 436.21 28.0583 436.765 27.727C437.321 27.3957 437.967 27.23 438.704 27.23C439.474 27.23 440.13 27.4097 440.671 27.769C441.213 28.1237 441.616 28.63 441.882 29.288C442.153 29.946 442.26 30.7277 442.204 31.633H440.741V31.101C440.732 30.2237 440.564 29.575 440.237 29.155C439.915 28.735 439.423 28.525 438.76 28.525C438.028 28.525 437.477 28.756 437.108 29.218C436.74 29.68 436.555 30.3473 436.555 31.22C436.555 32.0507 436.74 32.6947 437.108 33.152C437.477 33.6047 438.009 33.831 438.704 33.831C439.162 33.831 439.556 33.7283 439.887 33.523C440.223 33.313 440.485 33.0143 440.671 32.627L442.106 33.082C441.812 33.7587 441.367 34.2837 440.769 34.657C440.172 35.0257 439.507 35.21 438.774 35.21ZM436.079 31.633V30.492H441.476V31.633H436.079ZM447.009 35.21C446.234 35.21 445.576 35.0373 445.035 34.692C444.494 34.3467 444.078 33.873 443.789 33.271C443.504 32.669 443.36 31.9853 443.355 31.22C443.36 30.4407 443.509 29.7523 443.803 29.155C444.097 28.553 444.517 28.0817 445.063 27.741C445.609 27.4003 446.265 27.23 447.03 27.23C447.856 27.23 448.561 27.4353 449.144 27.846C449.732 28.2567 450.119 28.819 450.306 29.533L448.85 29.953C448.705 29.5283 448.467 29.1993 448.136 28.966C447.809 28.728 447.434 28.609 447.009 28.609C446.528 28.609 446.134 28.7233 445.826 28.952C445.518 29.176 445.289 29.484 445.14 29.876C444.991 30.268 444.914 30.716 444.909 31.22C444.914 31.9993 445.091 32.6293 445.441 33.11C445.796 33.5907 446.318 33.831 447.009 33.831C447.48 33.831 447.861 33.7237 448.15 33.509C448.444 33.2897 448.668 32.977 448.822 32.571L450.306 32.921C450.059 33.6583 449.65 34.2253 449.081 34.622C448.512 35.014 447.821 35.21 447.009 35.21ZM456.058 35C455.582 35.0933 455.115 35.133 454.658 35.119C454.201 35.105 453.792 35.0163 453.433 34.853C453.074 34.6897 452.803 34.433 452.621 34.083C452.458 33.7703 452.369 33.453 452.355 33.131C452.346 32.8043 452.341 32.4357 452.341 32.025V25.34H453.811V31.955C453.811 32.2583 453.813 32.522 453.818 32.746C453.827 32.97 453.876 33.159 453.965 33.313C454.133 33.6023 454.399 33.768 454.763 33.81C455.132 33.8473 455.563 33.831 456.058 33.761V35ZM450.892 28.616V27.44H456.058V28.616H450.892ZM408.98 54V43.92H410.303L413.957 51.501L417.59 43.92H418.927V53.993H417.541V47.098L414.286 54H413.621L410.359 47.098V54H408.98ZM423.023 54.21C422.463 54.21 421.994 54.1073 421.616 53.902C421.238 53.692 420.951 53.4167 420.755 53.076C420.564 52.7307 420.468 52.3527 420.468 51.942C420.468 51.5593 420.536 51.2233 420.671 50.934C420.807 50.6447 421.007 50.3997 421.273 50.199C421.539 49.9937 421.866 49.828 422.253 49.702C422.589 49.604 422.97 49.5177 423.394 49.443C423.819 49.3683 424.265 49.2983 424.731 49.233C425.203 49.1677 425.669 49.1023 426.131 49.037L425.599 49.331C425.609 48.7383 425.483 48.2997 425.221 48.015C424.965 47.7257 424.521 47.581 423.891 47.581C423.495 47.581 423.131 47.6743 422.799 47.861C422.468 48.043 422.237 48.3463 422.106 48.771L420.741 48.351C420.928 47.7023 421.283 47.1867 421.805 46.804C422.333 46.4213 423.033 46.23 423.905 46.23C424.582 46.23 425.17 46.3467 425.669 46.58C426.173 46.8087 426.542 47.1727 426.775 47.672C426.897 47.9193 426.971 48.1807 426.999 48.456C427.027 48.7313 427.041 49.0277 427.041 49.345V54H425.746V52.271L425.998 52.495C425.686 53.0737 425.287 53.5053 424.801 53.79C424.321 54.07 423.728 54.21 423.023 54.21ZM423.282 53.013C423.698 53.013 424.055 52.9407 424.353 52.796C424.652 52.6467 424.892 52.4577 425.074 52.229C425.256 52.0003 425.375 51.7623 425.431 51.515C425.511 51.291 425.555 51.039 425.564 50.759C425.578 50.479 425.585 50.255 425.585 50.087L426.061 50.262C425.599 50.332 425.179 50.395 424.801 50.451C424.423 50.507 424.08 50.563 423.772 50.619C423.469 50.6703 423.198 50.7333 422.96 50.808C422.76 50.878 422.58 50.962 422.421 51.06C422.267 51.158 422.144 51.277 422.05 51.417C421.962 51.557 421.917 51.7273 421.917 51.928C421.917 52.124 421.966 52.306 422.064 52.474C422.162 52.6373 422.312 52.768 422.512 52.866C422.713 52.964 422.97 53.013 423.282 53.013ZM434.165 54V50.283C434.165 49.989 434.139 49.688 434.088 49.38C434.041 49.0673 433.948 48.778 433.808 48.512C433.673 48.246 433.479 48.0313 433.227 47.868C432.98 47.7047 432.655 47.623 432.254 47.623C431.993 47.623 431.745 47.6673 431.512 47.756C431.279 47.84 431.073 47.9777 430.896 48.169C430.723 48.3603 430.586 48.6123 430.483 48.925C430.385 49.2377 430.336 49.618 430.336 50.066L429.426 49.723C429.426 49.037 429.554 48.4327 429.811 47.91C430.068 47.3827 430.436 46.972 430.917 46.678C431.398 46.384 431.979 46.237 432.66 46.237C433.183 46.237 433.621 46.321 433.976 46.489C434.331 46.657 434.618 46.8787 434.837 47.154C435.061 47.4247 435.231 47.721 435.348 48.043C435.465 48.365 435.544 48.68 435.586 48.988C435.628 49.296 435.649 49.5667 435.649 49.8V54H434.165ZM428.852 54V46.44H430.161V48.624H430.336V54H428.852ZM439.607 54.21C439.047 54.21 438.578 54.1073 438.2 53.902C437.822 53.692 437.535 53.4167 437.339 53.076C437.148 52.7307 437.052 52.3527 437.052 51.942C437.052 51.5593 437.12 51.2233 437.255 50.934C437.391 50.6447 437.591 50.3997 437.857 50.199C438.123 49.9937 438.45 49.828 438.837 49.702C439.173 49.604 439.554 49.5177 439.978 49.443C440.403 49.3683 440.849 49.2983 441.315 49.233C441.787 49.1677 442.253 49.1023 442.715 49.037L442.183 49.331C442.193 48.7383 442.067 48.2997 441.805 48.015C441.549 47.7257 441.105 47.581 440.475 47.581C440.079 47.581 439.715 47.6743 439.383 47.861C439.052 48.043 438.821 48.3463 438.69 48.771L437.325 48.351C437.512 47.7023 437.867 47.1867 438.389 46.804C438.917 46.4213 439.617 46.23 440.489 46.23C441.166 46.23 441.754 46.3467 442.253 46.58C442.757 46.8087 443.126 47.1727 443.359 47.672C443.481 47.9193 443.555 48.1807 443.583 48.456C443.611 48.7313 443.625 49.0277 443.625 49.345V54H442.33V52.271L442.582 52.495C442.27 53.0737 441.871 53.5053 441.385 53.79C440.905 54.07 440.312 54.21 439.607 54.21ZM439.866 53.013C440.282 53.013 440.639 52.9407 440.937 52.796C441.236 52.6467 441.476 52.4577 441.658 52.229C441.84 52.0003 441.959 51.7623 442.015 51.515C442.095 51.291 442.139 51.039 442.148 50.759C442.162 50.479 442.169 50.255 442.169 50.087L442.645 50.262C442.183 50.332 441.763 50.395 441.385 50.451C441.007 50.507 440.664 50.563 440.356 50.619C440.053 50.6703 439.782 50.7333 439.544 50.808C439.344 50.878 439.164 50.962 439.005 51.06C438.851 51.158 438.728 51.277 438.634 51.417C438.546 51.557 438.501 51.7273 438.501 51.928C438.501 52.124 438.55 52.306 438.648 52.474C438.746 52.6373 438.896 52.768 439.096 52.866C439.297 52.964 439.554 53.013 439.866 53.013ZM448.558 57.57C448.152 57.57 447.758 57.507 447.375 57.381C446.997 57.255 446.652 57.0683 446.339 56.821C446.026 56.5783 445.767 56.2773 445.562 55.918L446.913 55.232C447.076 55.554 447.31 55.7897 447.613 55.939C447.916 56.0883 448.236 56.163 448.572 56.163C448.987 56.163 449.342 56.0883 449.636 55.939C449.93 55.7943 450.152 55.575 450.301 55.281C450.455 54.987 450.53 54.623 450.525 54.189V52.075H450.7V46.44H451.995V54.203C451.995 54.4037 451.988 54.595 451.974 54.777C451.96 54.959 451.934 55.141 451.897 55.323C451.79 55.8317 451.584 56.2517 451.281 56.583C450.982 56.9143 450.6 57.1617 450.133 57.325C449.671 57.4883 449.146 57.57 448.558 57.57ZM448.446 54.21C447.741 54.21 447.132 54.035 446.619 53.685C446.11 53.335 445.716 52.859 445.436 52.257C445.161 51.6503 445.023 50.969 445.023 50.213C445.023 49.4523 445.163 48.7733 445.443 48.176C445.723 47.574 446.12 47.1003 446.633 46.755C447.151 46.405 447.765 46.23 448.474 46.23C449.188 46.23 449.788 46.405 450.273 46.755C450.763 47.1003 451.132 47.574 451.379 48.176C451.631 48.778 451.757 49.457 451.757 50.213C451.757 50.969 451.631 51.648 451.379 52.25C451.127 52.852 450.756 53.3303 450.266 53.685C449.776 54.035 449.169 54.21 448.446 54.21ZM448.649 52.887C449.13 52.887 449.522 52.7727 449.825 52.544C450.128 52.3153 450.35 52.0003 450.49 51.599C450.63 51.1977 450.7 50.7357 450.7 50.213C450.7 49.6903 450.628 49.2283 450.483 48.827C450.343 48.4257 450.124 48.113 449.825 47.889C449.531 47.665 449.155 47.553 448.698 47.553C448.213 47.553 447.814 47.672 447.501 47.91C447.188 48.148 446.955 48.4677 446.801 48.869C446.652 49.2703 446.577 49.7183 446.577 50.213C446.577 50.7123 446.652 51.165 446.801 51.571C446.955 51.9723 447.184 52.292 447.487 52.53C447.795 52.768 448.182 52.887 448.649 52.887ZM457.313 54.21C456.562 54.21 455.902 54.0467 455.332 53.72C454.768 53.3887 454.327 52.929 454.009 52.341C453.697 51.7483 453.54 51.0623 453.54 50.283C453.54 49.457 453.694 48.7407 454.002 48.134C454.315 47.5273 454.749 47.0583 455.304 46.727C455.86 46.3957 456.506 46.23 457.243 46.23C458.013 46.23 458.669 46.4097 459.21 46.769C459.752 47.1237 460.155 47.63 460.421 48.288C460.692 48.946 460.799 49.7277 460.743 50.633H459.28V50.101C459.271 49.2237 459.103 48.575 458.776 48.155C458.454 47.735 457.962 47.525 457.299 47.525C456.567 47.525 456.016 47.756 455.647 48.218C455.279 48.68 455.094 49.3473 455.094 50.22C455.094 51.0507 455.279 51.6947 455.647 52.152C456.016 52.6047 456.548 52.831 457.243 52.831C457.701 52.831 458.095 52.7283 458.426 52.523C458.762 52.313 459.024 52.0143 459.21 51.627L460.645 52.082C460.351 52.7587 459.906 53.2837 459.308 53.657C458.711 54.0257 458.046 54.21 457.313 54.21ZM454.618 50.633V49.492H460.015V50.633H454.618ZM462.314 54V46.44H463.616V48.274L463.434 48.036C463.527 47.7933 463.649 47.5717 463.798 47.371C463.947 47.1657 464.12 46.9977 464.316 46.867C464.507 46.727 464.72 46.6197 464.953 46.545C465.191 46.4657 465.434 46.419 465.681 46.405C465.928 46.3863 466.166 46.398 466.395 46.44V47.812C466.148 47.7467 465.872 47.728 465.569 47.756C465.27 47.784 464.995 47.8797 464.743 48.043C464.505 48.197 464.316 48.3837 464.176 48.603C464.041 48.8223 463.943 49.0673 463.882 49.338C463.821 49.604 463.791 49.8863 463.791 50.185V54H462.314Z" fill="#111111"/>
<rect x="388" y="204" width="220" height="200" rx="14" fill="#C3CBE4"/>
<mask id="mask3_776_8439" style="mask-type:alpha" maskUnits="userSpaceOnUse" x="388" y="204" width="220" height="200">
<rect x="388" y="204" width="220" height="200" rx="14" fill="#EECE91"/>
</mask>
<g mask="url(#mask3_776_8439)">
</g>
<path d="M408.98 239V228.92H413.054C413.152 228.92 413.273 228.925 413.418 228.934C413.563 228.939 413.7 228.953 413.831 228.976C414.391 229.065 414.858 229.256 415.231 229.55C415.609 229.844 415.891 230.215 416.078 230.663C416.265 231.111 416.358 231.606 416.358 232.147C416.358 232.693 416.265 233.19 416.078 233.638C415.891 234.086 415.609 234.457 415.231 234.751C414.858 235.045 414.391 235.236 413.831 235.325C413.7 235.344 413.56 235.358 413.411 235.367C413.266 235.376 413.147 235.381 413.054 235.381H410.443V239H408.98ZM410.443 233.995H412.998C413.091 233.995 413.194 233.99 413.306 233.981C413.423 233.972 413.532 233.955 413.635 233.932C413.934 233.862 414.174 233.734 414.356 233.547C414.538 233.356 414.669 233.136 414.748 232.889C414.827 232.642 414.867 232.394 414.867 232.147C414.867 231.9 414.827 231.655 414.748 231.412C414.669 231.165 414.538 230.948 414.356 230.761C414.174 230.57 413.934 230.439 413.635 230.369C413.532 230.341 413.423 230.322 413.306 230.313C413.194 230.304 413.091 230.299 412.998 230.299H410.443V233.995ZM417.757 239V231.44H419.059V233.274L418.877 233.036C418.971 232.793 419.092 232.572 419.241 232.371C419.391 232.166 419.563 231.998 419.759 231.867C419.951 231.727 420.163 231.62 420.396 231.545C420.634 231.466 420.877 231.419 421.124 231.405C421.372 231.386 421.61 231.398 421.838 231.44V232.812C421.591 232.747 421.316 232.728 421.012 232.756C420.714 232.784 420.438 232.88 420.186 233.043C419.948 233.197 419.759 233.384 419.619 233.603C419.484 233.822 419.386 234.067 419.325 234.338C419.265 234.604 419.234 234.886 419.234 235.185V239H417.757ZM426.318 239.21C425.562 239.21 424.906 239.04 424.351 238.699C423.795 238.358 423.366 237.889 423.063 237.292C422.764 236.69 422.615 235.997 422.615 235.213C422.615 234.424 422.769 233.731 423.077 233.134C423.385 232.532 423.816 232.065 424.372 231.734C424.927 231.398 425.576 231.23 426.318 231.23C427.074 231.23 427.729 231.4 428.285 231.741C428.84 232.082 429.269 232.551 429.573 233.148C429.876 233.745 430.028 234.434 430.028 235.213C430.028 236.002 429.874 236.697 429.566 237.299C429.262 237.896 428.833 238.365 428.278 238.706C427.722 239.042 427.069 239.21 426.318 239.21ZM426.318 237.831C427.041 237.831 427.58 237.588 427.935 237.103C428.294 236.613 428.474 235.983 428.474 235.213C428.474 234.424 428.292 233.794 427.928 233.323C427.568 232.847 427.032 232.609 426.318 232.609C425.828 232.609 425.424 232.721 425.107 232.945C424.789 233.164 424.554 233.47 424.4 233.862C424.246 234.249 424.169 234.7 424.169 235.213C424.169 236.006 424.351 236.641 424.715 237.117C425.079 237.593 425.613 237.831 426.318 237.831ZM434.569 239.21C433.864 239.21 433.255 239.035 432.742 238.685C432.233 238.335 431.839 237.859 431.559 237.257C431.284 236.65 431.146 235.969 431.146 235.213C431.146 234.452 431.286 233.773 431.566 233.176C431.846 232.574 432.243 232.1 432.756 231.755C433.274 231.405 433.888 231.23 434.597 231.23C435.311 231.23 435.911 231.405 436.396 231.755C436.886 232.1 437.255 232.574 437.502 233.176C437.754 233.778 437.88 234.457 437.88 235.213C437.88 235.969 437.754 236.648 437.502 237.25C437.25 237.852 436.879 238.33 436.389 238.685C435.899 239.035 435.292 239.21 434.569 239.21ZM434.772 237.887C435.253 237.887 435.645 237.773 435.948 237.544C436.251 237.315 436.473 237 436.613 236.599C436.753 236.198 436.823 235.736 436.823 235.213C436.823 234.69 436.751 234.228 436.606 233.827C436.466 233.426 436.247 233.113 435.948 232.889C435.654 232.665 435.278 232.553 434.821 232.553C434.336 232.553 433.937 232.672 433.624 232.91C433.311 233.148 433.078 233.468 432.924 233.869C432.775 234.27 432.7 234.718 432.7 235.213C432.7 235.712 432.775 236.165 432.924 236.571C433.078 236.972 433.307 237.292 433.61 237.53C433.918 237.768 434.305 237.887 434.772 237.887ZM436.823 239V233.561H436.655V228.92H438.125V239H436.823ZM442.933 239.203C442.41 239.203 441.971 239.119 441.617 238.951C441.262 238.783 440.973 238.564 440.749 238.293C440.529 238.018 440.361 237.719 440.245 237.397C440.128 237.075 440.049 236.76 440.007 236.452C439.965 236.144 439.944 235.873 439.944 235.64V231.44H441.428V235.157C441.428 235.451 441.451 235.754 441.498 236.067C441.549 236.375 441.642 236.662 441.778 236.928C441.918 237.194 442.111 237.409 442.359 237.572C442.611 237.735 442.937 237.817 443.339 237.817C443.6 237.817 443.847 237.775 444.081 237.691C444.314 237.602 444.517 237.462 444.69 237.271C444.867 237.08 445.005 236.828 445.103 236.515C445.205 236.202 445.257 235.822 445.257 235.374L446.167 235.717C446.167 236.403 446.038 237.01 445.782 237.537C445.525 238.06 445.156 238.468 444.676 238.762C444.195 239.056 443.614 239.203 442.933 239.203ZM445.432 239V236.816H445.257V231.44H446.734V239H445.432ZM451.931 239.21C451.156 239.21 450.498 239.037 449.957 238.692C449.415 238.347 449 237.873 448.711 237.271C448.426 236.669 448.281 235.985 448.277 235.22C448.281 234.441 448.431 233.752 448.725 233.155C449.019 232.553 449.439 232.082 449.985 231.741C450.531 231.4 451.186 231.23 451.952 231.23C452.778 231.23 453.482 231.435 454.066 231.846C454.654 232.257 455.041 232.819 455.228 233.533L453.772 233.953C453.627 233.528 453.389 233.199 453.058 232.966C452.731 232.728 452.355 232.609 451.931 232.609C451.45 232.609 451.056 232.723 450.748 232.952C450.44 233.176 450.211 233.484 450.062 233.876C449.912 234.268 449.835 234.716 449.831 235.22C449.835 235.999 450.013 236.629 450.363 237.11C450.717 237.591 451.24 237.831 451.931 237.831C452.402 237.831 452.782 237.724 453.072 237.509C453.366 237.29 453.59 236.977 453.744 236.571L455.228 236.921C454.98 237.658 454.572 238.225 454.003 238.622C453.433 239.014 452.743 239.21 451.931 239.21ZM460.98 239C460.504 239.093 460.037 239.133 459.58 239.119C459.122 239.105 458.714 239.016 458.355 238.853C457.995 238.69 457.725 238.433 457.543 238.083C457.379 237.77 457.291 237.453 457.277 237.131C457.267 236.804 457.263 236.436 457.263 236.025V229.34H458.733V235.955C458.733 236.258 458.735 236.522 458.74 236.746C458.749 236.97 458.798 237.159 458.887 237.313C459.055 237.602 459.321 237.768 459.685 237.81C460.053 237.847 460.485 237.831 460.98 237.761V239ZM455.814 232.616V231.44H460.98V232.616H455.814ZM408.98 258V247.92H412.137C412.23 247.92 412.403 247.922 412.655 247.927C412.912 247.932 413.157 247.95 413.39 247.983C414.179 248.081 414.841 248.363 415.378 248.83C415.919 249.297 416.328 249.889 416.603 250.608C416.878 251.322 417.016 252.106 417.016 252.96C417.016 253.819 416.878 254.607 416.603 255.326C416.328 256.04 415.919 256.63 415.378 257.097C414.841 257.559 414.179 257.839 413.39 257.937C413.157 257.97 412.912 257.988 412.655 257.993C412.403 257.998 412.23 258 412.137 258H408.98ZM410.478 256.607H412.137C412.296 256.607 412.485 256.602 412.704 256.593C412.923 256.584 413.117 256.565 413.285 256.537C413.798 256.439 414.214 256.217 414.531 255.872C414.853 255.522 415.089 255.093 415.238 254.584C415.387 254.075 415.462 253.534 415.462 252.96C415.462 252.367 415.385 251.819 415.231 251.315C415.077 250.806 414.839 250.382 414.517 250.041C414.2 249.696 413.789 249.476 413.285 249.383C413.117 249.35 412.921 249.332 412.697 249.327C412.478 249.318 412.291 249.313 412.137 249.313H410.478V256.607ZM421.999 258.21C421.248 258.21 420.587 258.047 420.018 257.72C419.453 257.389 419.012 256.929 418.695 256.341C418.382 255.748 418.226 255.062 418.226 254.283C418.226 253.457 418.38 252.741 418.688 252.134C419.001 251.527 419.435 251.058 419.99 250.727C420.545 250.396 421.192 250.23 421.929 250.23C422.699 250.23 423.355 250.41 423.896 250.769C424.437 251.124 424.841 251.63 425.107 252.288C425.378 252.946 425.485 253.728 425.429 254.633H423.966V254.101C423.957 253.224 423.789 252.575 423.462 252.155C423.14 251.735 422.648 251.525 421.985 251.525C421.252 251.525 420.702 251.756 420.333 252.218C419.964 252.68 419.78 253.347 419.78 254.22C419.78 255.051 419.964 255.695 420.333 256.152C420.702 256.605 421.234 256.831 421.929 256.831C422.386 256.831 422.781 256.728 423.112 256.523C423.448 256.313 423.709 256.014 423.896 255.627L425.331 256.082C425.037 256.759 424.591 257.284 423.994 257.657C423.397 258.026 422.732 258.21 421.999 258.21ZM419.304 254.633V253.492H424.701V254.633H419.304ZM429.891 258.203C428.971 258.203 428.222 258 427.644 257.594C427.065 257.188 426.71 256.616 426.58 255.879L428.078 255.648C428.171 256.04 428.386 256.35 428.722 256.579C429.062 256.803 429.485 256.915 429.989 256.915C430.446 256.915 430.803 256.822 431.06 256.635C431.321 256.448 431.452 256.192 431.452 255.865C431.452 255.674 431.405 255.52 431.312 255.403C431.223 255.282 431.034 255.167 430.745 255.06C430.455 254.953 430.014 254.82 429.422 254.661C428.773 254.493 428.257 254.313 427.875 254.122C427.497 253.926 427.226 253.7 427.063 253.443C426.904 253.182 426.825 252.867 426.825 252.498C426.825 252.041 426.946 251.642 427.189 251.301C427.431 250.96 427.772 250.697 428.211 250.51C428.654 250.323 429.172 250.23 429.765 250.23C430.343 250.23 430.859 250.321 431.312 250.503C431.764 250.685 432.131 250.944 432.411 251.28C432.691 251.611 432.859 252.001 432.915 252.449L431.417 252.722C431.365 252.358 431.195 252.071 430.906 251.861C430.616 251.651 430.241 251.537 429.779 251.518C429.335 251.499 428.976 251.574 428.701 251.742C428.425 251.905 428.288 252.132 428.288 252.421C428.288 252.589 428.339 252.731 428.442 252.848C428.549 252.965 428.754 253.077 429.058 253.184C429.361 253.291 429.809 253.42 430.402 253.569C431.036 253.732 431.54 253.914 431.914 254.115C432.287 254.311 432.553 254.547 432.712 254.822C432.875 255.093 432.957 255.422 432.957 255.809C432.957 256.556 432.684 257.141 432.138 257.566C431.596 257.991 430.847 258.203 429.891 258.203ZM434.645 249.201V247.78H436.108V249.201H434.645ZM434.645 258V250.44H436.108V258H434.645ZM441.325 261.57C440.919 261.57 440.525 261.507 440.142 261.381C439.764 261.255 439.419 261.068 439.106 260.821C438.794 260.578 438.535 260.277 438.329 259.918L439.68 259.232C439.844 259.554 440.077 259.79 440.38 259.939C440.684 260.088 441.003 260.163 441.339 260.163C441.755 260.163 442.109 260.088 442.403 259.939C442.697 259.794 442.919 259.575 443.068 259.281C443.222 258.987 443.297 258.623 443.292 258.189V256.075H443.467V250.44H444.762V258.203C444.762 258.404 444.755 258.595 444.741 258.777C444.727 258.959 444.702 259.141 444.664 259.323C444.557 259.832 444.352 260.252 444.048 260.583C443.75 260.914 443.367 261.162 442.9 261.325C442.438 261.488 441.913 261.57 441.325 261.57ZM441.213 258.21C440.509 258.21 439.9 258.035 439.386 257.685C438.878 257.335 438.483 256.859 438.203 256.257C437.928 255.65 437.79 254.969 437.79 254.213C437.79 253.452 437.93 252.773 438.21 252.176C438.49 251.574 438.887 251.1 439.4 250.755C439.918 250.405 440.532 250.23 441.241 250.23C441.955 250.23 442.555 250.405 443.04 250.755C443.53 251.1 443.899 251.574 444.146 252.176C444.398 252.778 444.524 253.457 444.524 254.213C444.524 254.969 444.398 255.648 444.146 256.25C443.894 256.852 443.523 257.33 443.033 257.685C442.543 258.035 441.937 258.21 441.213 258.21ZM441.416 256.887C441.897 256.887 442.289 256.773 442.592 256.544C442.896 256.315 443.117 256 443.257 255.599C443.397 255.198 443.467 254.736 443.467 254.213C443.467 253.69 443.395 253.228 443.25 252.827C443.11 252.426 442.891 252.113 442.592 251.889C442.298 251.665 441.923 251.553 441.465 251.553C440.98 251.553 440.581 251.672 440.268 251.91C439.956 252.148 439.722 252.468 439.568 252.869C439.419 253.27 439.344 253.718 439.344 254.213C439.344 254.712 439.419 255.165 439.568 255.571C439.722 255.972 439.951 256.292 440.254 256.53C440.562 256.768 440.95 256.887 441.416 256.887ZM452.034 258V254.283C452.034 253.989 452.008 253.688 451.957 253.38C451.91 253.067 451.817 252.778 451.677 252.512C451.542 252.246 451.348 252.031 451.096 251.868C450.849 251.705 450.524 251.623 450.123 251.623C449.862 251.623 449.614 251.667 449.381 251.756C449.148 251.84 448.942 251.978 448.765 252.169C448.592 252.36 448.455 252.612 448.352 252.925C448.254 253.238 448.205 253.618 448.205 254.066L447.295 253.723C447.295 253.037 447.423 252.433 447.68 251.91C447.937 251.383 448.305 250.972 448.786 250.678C449.267 250.384 449.848 250.237 450.529 250.237C451.052 250.237 451.49 250.321 451.845 250.489C452.2 250.657 452.487 250.879 452.706 251.154C452.93 251.425 453.1 251.721 453.217 252.043C453.334 252.365 453.413 252.68 453.455 252.988C453.497 253.296 453.518 253.567 453.518 253.8V258H452.034ZM446.721 258V250.44H448.03V252.624H448.205V258H446.721ZM458.599 258.21C457.847 258.21 457.187 258.047 456.618 257.72C456.053 257.389 455.612 256.929 455.295 256.341C454.982 255.748 454.826 255.062 454.826 254.283C454.826 253.457 454.98 252.741 455.288 252.134C455.6 251.527 456.034 251.058 456.59 250.727C457.145 250.396 457.791 250.23 458.529 250.23C459.299 250.23 459.954 250.41 460.496 250.769C461.037 251.124 461.441 251.63 461.707 252.288C461.977 252.946 462.085 253.728 462.029 254.633H460.566V254.101C460.556 253.224 460.388 252.575 460.062 252.155C459.74 251.735 459.247 251.525 458.585 251.525C457.852 251.525 457.301 251.756 456.933 252.218C456.564 252.68 456.38 253.347 456.38 254.22C456.38 255.051 456.564 255.695 456.933 256.152C457.301 256.605 457.833 256.831 458.529 256.831C458.986 256.831 459.38 256.728 459.712 256.523C460.048 256.313 460.309 256.014 460.496 255.627L461.931 256.082C461.637 256.759 461.191 257.284 460.594 257.657C459.996 258.026 459.331 258.21 458.599 258.21ZM455.904 254.633V253.492H461.301V254.633H455.904ZM463.599 258V250.44H464.901V252.274L464.719 252.036C464.812 251.793 464.934 251.572 465.083 251.371C465.232 251.166 465.405 250.998 465.601 250.867C465.792 250.727 466.005 250.62 466.238 250.545C466.476 250.466 466.719 250.419 466.966 250.405C467.213 250.386 467.451 250.398 467.68 250.44V251.812C467.433 251.747 467.157 251.728 466.854 251.756C466.555 251.784 466.28 251.88 466.028 252.043C465.79 252.197 465.601 252.384 465.461 252.603C465.326 252.822 465.228 253.067 465.167 253.338C465.106 253.604 465.076 253.886 465.076 254.185V258H463.599Z" fill="#111111"/>
<circle cx="423" cy="369" r="14.5" stroke="#111111"/>
<circle cx="482.5" cy="361.5" r="22" stroke="#111111"/>
<circle cx="569" cy="243" r="19" fill="#111111"/>
<circle cx="558" cy="354" r="29.5" stroke="#111111"/>
<rect x="154" y="49" width="220" height="241" rx="14" fill="#232320"/>
<mask id="mask4_776_8439" style="mask-type:alpha" maskUnits="userSpaceOnUse" x="154" y="49" width="220" height="241">
<rect x="154" y="49" width="220" height="241" rx="14" fill="#EECE91"/>
</mask>
<g mask="url(#mask4_776_8439)">
<path d="M353.5 254.5C353.5 255.359 352.996 256.276 351.85 257.241C350.708 258.202 348.994 259.152 346.739 260.07C342.234 261.905 335.684 263.567 327.555 264.967C311.304 267.766 288.833 269.5 264 269.5C239.167 269.5 216.696 267.766 200.445 264.967C192.316 263.567 185.766 261.905 181.261 260.07C179.006 259.152 177.292 258.202 176.15 257.241C175.004 256.276 174.5 255.359 174.5 254.5C174.5 253.641 175.004 252.724 176.15 251.759C177.292 250.798 179.006 249.848 181.261 248.93C185.766 247.095 192.316 245.433 200.445 244.033C216.696 241.234 239.167 239.5 264 239.5C288.833 239.5 311.304 241.234 327.555 244.033C335.684 245.433 342.234 247.095 346.739 248.93C348.994 249.848 350.708 250.798 351.85 251.759C352.996 252.724 353.5 253.641 353.5 254.5Z" stroke="#A8A8A8"/>
<path d="M353.5 237.5C353.5 238.359 352.996 239.276 351.85 240.241C350.708 241.202 348.994 242.152 346.739 243.07C342.234 244.905 335.684 246.567 327.555 247.967C311.304 250.766 288.833 252.5 264 252.5C239.167 252.5 216.696 250.766 200.445 247.967C192.316 246.567 185.766 244.905 181.261 243.07C179.006 242.152 177.292 241.202 176.15 240.241C175.004 239.276 174.5 238.359 174.5 237.5C174.5 236.641 175.004 235.724 176.15 234.759C177.292 233.798 179.006 232.848 181.261 231.93C185.766 230.095 192.316 228.433 200.445 227.033C216.696 224.234 239.167 222.5 264 222.5C288.833 222.5 311.304 224.234 327.555 227.033C335.684 228.433 342.234 230.095 346.739 231.93C348.994 232.848 350.708 233.798 351.85 234.759C352.996 235.724 353.5 236.641 353.5 237.5Z" stroke="#F3DE38"/>
<path d="M353.5 220.5C353.5 221.359 352.996 222.276 351.85 223.241C350.708 224.202 348.994 225.152 346.739 226.07C342.234 227.905 335.684 229.567 327.555 230.967C311.304 233.766 288.833 235.5 264 235.5C239.167 235.5 216.696 233.766 200.445 230.967C192.316 229.567 185.766 227.905 181.261 226.07C179.006 225.152 177.292 224.202 176.15 223.241C175.004 222.276 174.5 221.359 174.5 220.5C174.5 219.641 175.004 218.724 176.15 217.759C177.292 216.798 179.006 215.848 181.261 214.93C185.766 213.095 192.316 211.433 200.445 210.033C216.696 207.234 239.167 205.5 264 205.5C288.833 205.5 311.304 207.234 327.555 210.033C335.684 211.433 342.234 213.095 346.739 214.93C348.994 215.848 350.708 216.798 351.85 217.759C352.996 218.724 353.5 219.641 353.5 220.5Z" stroke="#A8A8A8"/>
<path d="M353.5 203.5C353.5 204.359 352.996 205.276 351.85 206.241C350.708 207.202 348.994 208.152 346.739 209.07C342.234 210.905 335.684 212.567 327.555 213.967C311.304 216.766 288.833 218.5 264 218.5C239.167 218.5 216.696 216.766 200.445 213.967C192.316 212.567 185.766 210.905 181.261 209.07C179.006 208.152 177.292 207.202 176.15 206.241C175.004 205.276 174.5 204.359 174.5 203.5C174.5 202.641 175.004 201.724 176.15 200.759C177.292 199.798 179.006 198.848 181.261 197.93C185.766 196.095 192.316 194.433 200.445 193.033C216.696 190.234 239.167 188.5 264 188.5C288.833 188.5 311.304 190.234 327.555 193.033C335.684 194.433 342.234 196.095 346.739 197.93C348.994 198.848 350.708 199.798 351.85 200.759C352.996 201.724 353.5 202.641 353.5 203.5Z" stroke="#F3DE38"/>
<path d="M353.5 169.5C353.5 170.359 352.996 171.276 351.85 172.241C350.708 173.202 348.994 174.152 346.739 175.07C342.234 176.905 335.684 178.567 327.555 179.967C311.304 182.766 288.833 184.5 264 184.5C239.167 184.5 216.696 182.766 200.445 179.967C192.316 178.567 185.766 176.905 181.261 175.07C179.006 174.152 177.292 173.202 176.15 172.241C175.004 171.276 174.5 170.359 174.5 169.5C174.5 168.641 175.004 167.724 176.15 166.759C177.292 165.798 179.006 164.848 181.261 163.93C185.766 162.095 192.316 160.433 200.445 159.033C216.696 156.234 239.167 154.5 264 154.5C288.833 154.5 311.304 156.234 327.555 159.033C335.684 160.433 342.234 162.095 346.739 163.93C348.994 164.848 350.708 165.798 351.85 166.759C352.996 167.724 353.5 168.641 353.5 169.5Z" stroke="#F3DE38"/>
<path d="M353.5 186.5C353.5 187.359 352.996 188.276 351.85 189.241C350.708 190.202 348.994 191.152 346.739 192.07C342.234 193.905 335.684 195.567 327.555 196.967C311.304 199.766 288.833 201.5 264 201.5C239.167 201.5 216.696 199.766 200.445 196.967C192.316 195.567 185.766 193.905 181.261 192.07C179.006 191.152 177.292 190.202 176.15 189.241C175.004 188.276 174.5 187.359 174.5 186.5C174.5 185.641 175.004 184.724 176.15 183.759C177.292 182.798 179.006 181.848 181.261 180.93C185.766 179.095 192.316 177.433 200.445 176.033C216.696 173.234 239.167 171.5 264 171.5C288.833 171.5 311.304 173.234 327.555 176.033C335.684 177.433 342.234 179.095 346.739 180.93C348.994 181.848 350.708 182.798 351.85 183.759C352.996 184.724 353.5 185.641 353.5 186.5Z" stroke="#A8A8A8"/>
<path d="M353.5 152.5C353.5 153.359 352.996 154.276 351.85 155.241C350.708 156.202 348.994 157.152 346.739 158.07C342.234 159.905 335.684 161.567 327.555 162.967C311.304 165.766 288.833 167.5 264 167.5C239.167 167.5 216.696 165.766 200.445 162.967C192.316 161.567 185.766 159.905 181.261 158.07C179.006 157.152 177.292 156.202 176.15 155.241C175.004 154.276 174.5 153.359 174.5 152.5C174.5 151.641 175.004 150.724 176.15 149.759C177.292 148.798 179.006 147.848 181.261 146.93C185.766 145.095 192.316 143.433 200.445 142.033C216.696 139.234 239.167 137.5 264 137.5C288.833 137.5 311.304 139.234 327.555 142.033C335.684 143.433 342.234 145.095 346.739 146.93C348.994 147.848 350.708 148.798 351.85 149.759C352.996 150.724 353.5 151.641 353.5 152.5Z" stroke="#A8A8A8"/>
</g>
<path d="M174.98 84V73.92H178.137C178.23 73.92 178.403 73.9223 178.655 73.927C178.912 73.9317 179.157 73.9503 179.39 73.983C180.179 74.081 180.841 74.3633 181.378 74.83C181.919 75.2967 182.328 75.8893 182.603 76.608C182.878 77.322 183.016 78.106 183.016 78.96C183.016 79.8187 182.878 80.6073 182.603 81.326C182.328 82.04 181.919 82.6303 181.378 83.097C180.841 83.559 180.179 83.839 179.39 83.937C179.157 83.9697 178.912 83.9883 178.655 83.993C178.403 83.9977 178.23 84 178.137 84H174.98ZM176.478 82.607H178.137C178.296 82.607 178.485 82.6023 178.704 82.593C178.923 82.5837 179.117 82.565 179.285 82.537C179.798 82.439 180.214 82.2173 180.531 81.872C180.853 81.522 181.089 81.0927 181.238 80.584C181.387 80.0753 181.462 79.534 181.462 78.96C181.462 78.3673 181.385 77.819 181.231 77.315C181.077 76.8063 180.839 76.3817 180.517 76.041C180.2 75.6957 179.789 75.4763 179.285 75.383C179.117 75.3503 178.921 75.3317 178.697 75.327C178.478 75.3177 178.291 75.313 178.137 75.313H176.478V82.607ZM186.781 84.21C186.221 84.21 185.752 84.1073 185.374 83.902C184.996 83.692 184.709 83.4167 184.513 83.076C184.322 82.7307 184.226 82.3527 184.226 81.942C184.226 81.5593 184.294 81.2233 184.429 80.934C184.564 80.6447 184.765 80.3997 185.031 80.199C185.297 79.9937 185.624 79.828 186.011 79.702C186.347 79.604 186.727 79.5177 187.152 79.443C187.577 79.3683 188.022 79.2983 188.489 79.233C188.96 79.1677 189.427 79.1023 189.889 79.037L189.357 79.331C189.366 78.7383 189.24 78.2997 188.979 78.015C188.722 77.7257 188.279 77.581 187.649 77.581C187.252 77.581 186.888 77.6743 186.557 77.861C186.226 78.043 185.995 78.3463 185.864 78.771L184.499 78.351C184.686 77.7023 185.04 77.1867 185.563 76.804C186.09 76.4213 186.79 76.23 187.663 76.23C188.34 76.23 188.928 76.3467 189.427 76.58C189.931 76.8087 190.3 77.1727 190.533 77.672C190.654 77.9193 190.729 78.1807 190.757 78.456C190.785 78.7313 190.799 79.0277 190.799 79.345V84H189.504V82.271L189.756 82.495C189.443 83.0737 189.044 83.5053 188.559 83.79C188.078 84.07 187.486 84.21 186.781 84.21ZM187.04 83.013C187.455 83.013 187.812 82.9407 188.111 82.796C188.41 82.6467 188.65 82.4577 188.832 82.229C189.014 82.0003 189.133 81.7623 189.189 81.515C189.268 81.291 189.313 81.039 189.322 80.759C189.336 80.479 189.343 80.255 189.343 80.087L189.819 80.262C189.357 80.332 188.937 80.395 188.559 80.451C188.181 80.507 187.838 80.563 187.53 80.619C187.227 80.6703 186.956 80.7333 186.718 80.808C186.517 80.878 186.338 80.962 186.179 81.06C186.025 81.158 185.901 81.277 185.808 81.417C185.719 81.557 185.675 81.7273 185.675 81.928C185.675 82.124 185.724 82.306 185.822 82.474C185.92 82.6373 186.069 82.768 186.27 82.866C186.471 82.964 186.727 83.013 187.04 83.013ZM196.943 84C196.467 84.0933 196 84.133 195.543 84.119C195.085 84.105 194.677 84.0163 194.318 83.853C193.958 83.6897 193.688 83.433 193.506 83.083C193.342 82.7703 193.254 82.453 193.24 82.131C193.23 81.8043 193.226 81.4357 193.226 81.025V74.34H194.696V80.955C194.696 81.2583 194.698 81.522 194.703 81.746C194.712 81.97 194.761 82.159 194.85 82.313C195.018 82.6023 195.284 82.768 195.648 82.81C196.016 82.8473 196.448 82.831 196.943 82.761V84ZM191.777 77.616V76.44H196.943V77.616H191.777ZM200.672 84.21C200.112 84.21 199.643 84.1073 199.265 83.902C198.887 83.692 198.6 83.4167 198.404 83.076C198.212 82.7307 198.117 82.3527 198.117 81.942C198.117 81.5593 198.184 81.2233 198.32 80.934C198.455 80.6447 198.656 80.3997 198.922 80.199C199.188 79.9937 199.514 79.828 199.902 79.702C200.238 79.604 200.618 79.5177 201.043 79.443C201.467 79.3683 201.913 79.2983 202.38 79.233C202.851 79.1677 203.318 79.1023 203.78 79.037L203.248 79.331C203.257 78.7383 203.131 78.2997 202.87 78.015C202.613 77.7257 202.17 77.581 201.54 77.581C201.143 77.581 200.779 77.6743 200.448 77.861C200.116 78.043 199.885 78.3463 199.755 78.771L198.39 78.351C198.576 77.7023 198.931 77.1867 199.454 76.804C199.981 76.4213 200.681 76.23 201.554 76.23C202.23 76.23 202.818 76.3467 203.318 76.58C203.822 76.8087 204.19 77.1727 204.424 77.672C204.545 77.9193 204.62 78.1807 204.648 78.456C204.676 78.7313 204.69 79.0277 204.69 79.345V84H203.395V82.271L203.647 82.495C203.334 83.0737 202.935 83.5053 202.45 83.79C201.969 84.07 201.376 84.21 200.672 84.21ZM200.931 83.013C201.346 83.013 201.703 82.9407 202.002 82.796C202.3 82.6467 202.541 82.4577 202.723 82.229C202.905 82.0003 203.024 81.7623 203.08 81.515C203.159 81.291 203.203 81.039 203.213 80.759C203.227 80.479 203.234 80.255 203.234 80.087L203.71 80.262C203.248 80.332 202.828 80.395 202.45 80.451C202.072 80.507 201.729 80.563 201.421 80.619C201.117 80.6703 200.847 80.7333 200.609 80.808C200.408 80.878 200.228 80.962 200.07 81.06C199.916 81.158 199.792 81.277 199.699 81.417C199.61 81.557 199.566 81.7273 199.566 81.928C199.566 82.124 199.615 82.306 199.713 82.474C199.811 82.6373 199.96 82.768 200.161 82.866C200.361 82.964 200.618 83.013 200.931 83.013ZM209.31 84V73.92H213.272C213.911 73.92 214.448 74.0507 214.882 74.312C215.316 74.5733 215.643 74.9117 215.862 75.327C216.081 75.7377 216.191 76.1717 216.191 76.629C216.191 77.1843 216.053 77.6603 215.778 78.057C215.507 78.4537 215.141 78.7243 214.679 78.869L214.665 78.526C215.309 78.6847 215.804 78.995 216.149 79.457C216.494 79.9143 216.667 80.4487 216.667 81.06C216.667 81.6527 216.548 82.1683 216.31 82.607C216.077 83.0457 215.734 83.3887 215.281 83.636C214.833 83.8787 214.289 84 213.65 84H209.31ZM210.794 82.607H213.426C213.757 82.607 214.054 82.544 214.315 82.418C214.581 82.292 214.789 82.1123 214.938 81.879C215.092 81.641 215.169 81.3587 215.169 81.032C215.169 80.7287 215.101 80.4557 214.966 80.213C214.835 79.9657 214.644 79.772 214.392 79.632C214.145 79.4873 213.853 79.415 213.517 79.415H210.794V82.607ZM210.794 78.036H213.251C213.522 78.036 213.764 77.9823 213.979 77.875C214.198 77.763 214.371 77.6043 214.497 77.399C214.628 77.189 214.693 76.937 214.693 76.643C214.693 76.251 214.562 75.929 214.301 75.677C214.04 75.425 213.69 75.299 213.251 75.299H210.794V78.036ZM220.195 84.21C219.635 84.21 219.166 84.1073 218.788 83.902C218.41 83.692 218.123 83.4167 217.927 83.076C217.736 82.7307 217.64 82.3527 217.64 81.942C217.64 81.5593 217.708 81.2233 217.843 80.934C217.978 80.6447 218.179 80.3997 218.445 80.199C218.711 79.9937 219.038 79.828 219.425 79.702C219.761 79.604 220.141 79.5177 220.566 79.443C220.991 79.3683 221.436 79.2983 221.903 79.233C222.374 79.1677 222.841 79.1023 223.303 79.037L222.771 79.331C222.78 78.7383 222.654 78.2997 222.393 78.015C222.136 77.7257 221.693 77.581 221.063 77.581C220.666 77.581 220.302 77.6743 219.971 77.861C219.64 78.043 219.409 78.3463 219.278 78.771L217.913 78.351C218.1 77.7023 218.454 77.1867 218.977 76.804C219.504 76.4213 220.204 76.23 221.077 76.23C221.754 76.23 222.342 76.3467 222.841 76.58C223.345 76.8087 223.714 77.1727 223.947 77.672C224.068 77.9193 224.143 78.1807 224.171 78.456C224.199 78.7313 224.213 79.0277 224.213 79.345V84H222.918V82.271L223.17 82.495C222.857 83.0737 222.458 83.5053 221.973 83.79C221.492 84.07 220.9 84.21 220.195 84.21ZM220.454 83.013C220.869 83.013 221.226 82.9407 221.525 82.796C221.824 82.6467 222.064 82.4577 222.246 82.229C222.428 82.0003 222.547 81.7623 222.603 81.515C222.682 81.291 222.727 81.039 222.736 80.759C222.75 80.479 222.757 80.255 222.757 80.087L223.233 80.262C222.771 80.332 222.351 80.395 221.973 80.451C221.595 80.507 221.252 80.563 220.944 80.619C220.641 80.6703 220.37 80.7333 220.132 80.808C219.931 80.878 219.752 80.962 219.593 81.06C219.439 81.158 219.315 81.277 219.222 81.417C219.133 81.557 219.089 81.7273 219.089 81.928C219.089 82.124 219.138 82.306 219.236 82.474C219.334 82.6373 219.483 82.768 219.684 82.866C219.885 82.964 220.141 83.013 220.454 83.013ZM228.922 84.203C228.002 84.203 227.253 84 226.675 83.594C226.096 83.188 225.741 82.6163 225.611 81.879L227.109 81.648C227.202 82.04 227.417 82.3503 227.753 82.579C228.093 82.803 228.516 82.915 229.02 82.915C229.477 82.915 229.834 82.8217 230.091 82.635C230.352 82.4483 230.483 82.1917 230.483 81.865C230.483 81.6737 230.436 81.5197 230.343 81.403C230.254 81.2817 230.065 81.1673 229.776 81.06C229.486 80.9527 229.045 80.8197 228.453 80.661C227.804 80.493 227.288 80.3133 226.906 80.122C226.528 79.926 226.257 79.6997 226.094 79.443C225.935 79.1817 225.856 78.8667 225.856 78.498C225.856 78.0407 225.977 77.6417 226.22 77.301C226.462 76.9603 226.803 76.6967 227.242 76.51C227.685 76.3233 228.203 76.23 228.796 76.23C229.374 76.23 229.89 76.321 230.343 76.503C230.795 76.685 231.162 76.944 231.442 77.28C231.722 77.6113 231.89 78.001 231.946 78.449L230.448 78.722C230.396 78.358 230.226 78.071 229.937 77.861C229.647 77.651 229.272 77.5367 228.81 77.518C228.366 77.4993 228.007 77.574 227.732 77.742C227.456 77.9053 227.319 78.1317 227.319 78.421C227.319 78.589 227.37 78.7313 227.473 78.848C227.58 78.9647 227.785 79.0767 228.089 79.184C228.392 79.2913 228.84 79.4197 229.433 79.569C230.067 79.7323 230.571 79.9143 230.945 80.115C231.318 80.311 231.584 80.5467 231.743 80.822C231.906 81.0927 231.988 81.4217 231.988 81.809C231.988 82.5557 231.715 83.1413 231.169 83.566C230.627 83.9907 229.878 84.203 228.922 84.203ZM236.89 84.21C236.138 84.21 235.478 84.0467 234.909 83.72C234.344 83.3887 233.903 82.929 233.586 82.341C233.273 81.7483 233.117 81.0623 233.117 80.283C233.117 79.457 233.271 78.7407 233.579 78.134C233.891 77.5273 234.325 77.0583 234.881 76.727C235.436 76.3957 236.082 76.23 236.82 76.23C237.59 76.23 238.245 76.4097 238.787 76.769C239.328 77.1237 239.732 77.63 239.998 78.288C240.268 78.946 240.376 79.7277 240.32 80.633H238.857V80.101C238.847 79.2237 238.679 78.575 238.353 78.155C238.031 77.735 237.538 77.525 236.876 77.525C236.143 77.525 235.592 77.756 235.224 78.218C234.855 78.68 234.671 79.3473 234.671 80.22C234.671 81.0507 234.855 81.6947 235.224 82.152C235.592 82.6047 236.124 82.831 236.82 82.831C237.277 82.831 237.671 82.7283 238.003 82.523C238.339 82.313 238.6 82.0143 238.787 81.627L240.222 82.082C239.928 82.7587 239.482 83.2837 238.885 83.657C238.287 84.0257 237.622 84.21 236.89 84.21ZM234.195 80.633V79.492H239.592V80.633H234.195ZM174.98 103V92.92H181.42V94.299H176.443V97.127H180.58V98.506H176.443V101.621H181.42V103H174.98ZM188.407 103V99.283C188.407 98.989 188.381 98.688 188.33 98.38C188.283 98.0673 188.19 97.778 188.05 97.512C187.915 97.246 187.721 97.0313 187.469 96.868C187.222 96.7047 186.897 96.623 186.496 96.623C186.235 96.623 185.987 96.6673 185.754 96.756C185.521 96.84 185.315 96.9777 185.138 97.169C184.965 97.3603 184.828 97.6123 184.725 97.925C184.627 98.2377 184.578 98.618 184.578 99.066L183.668 98.723C183.668 98.037 183.796 97.4327 184.053 96.91C184.31 96.3827 184.678 95.972 185.159 95.678C185.64 95.384 186.221 95.237 186.902 95.237C187.425 95.237 187.863 95.321 188.218 95.489C188.573 95.657 188.86 95.8787 189.079 96.154C189.303 96.4247 189.473 96.721 189.59 97.043C189.707 97.365 189.786 97.68 189.828 97.988C189.87 98.296 189.891 98.5667 189.891 98.8V103H188.407ZM183.094 103V95.44H184.403V97.624H184.578V103H183.094ZM194.829 106.57C194.423 106.57 194.029 106.507 193.646 106.381C193.268 106.255 192.923 106.068 192.61 105.821C192.298 105.578 192.039 105.277 191.833 104.918L193.184 104.232C193.348 104.554 193.581 104.79 193.884 104.939C194.188 105.088 194.507 105.163 194.843 105.163C195.259 105.163 195.613 105.088 195.907 104.939C196.201 104.794 196.423 104.575 196.572 104.281C196.726 103.987 196.801 103.623 196.796 103.189V101.075H196.971V95.44H198.266V103.203C198.266 103.404 198.259 103.595 198.245 103.777C198.231 103.959 198.206 104.141 198.168 104.323C198.061 104.832 197.856 105.252 197.552 105.583C197.254 105.914 196.871 106.162 196.404 106.325C195.942 106.488 195.417 106.57 194.829 106.57ZM194.717 103.21C194.013 103.21 193.404 103.035 192.89 102.685C192.382 102.335 191.987 101.859 191.707 101.257C191.432 100.65 191.294 99.969 191.294 99.213C191.294 98.4523 191.434 97.7733 191.714 97.176C191.994 96.574 192.391 96.1003 192.904 95.755C193.422 95.405 194.036 95.23 194.745 95.23C195.459 95.23 196.059 95.405 196.544 95.755C197.034 96.1003 197.403 96.574 197.65 97.176C197.902 97.778 198.028 98.457 198.028 99.213C198.028 99.969 197.902 100.648 197.65 101.25C197.398 101.852 197.027 102.33 196.537 102.685C196.047 103.035 195.441 103.21 194.717 103.21ZM194.92 101.887C195.401 101.887 195.793 101.773 196.096 101.544C196.4 101.315 196.621 101 196.761 100.599C196.901 100.198 196.971 99.7357 196.971 99.213C196.971 98.6903 196.899 98.2283 196.754 97.827C196.614 97.4257 196.395 97.113 196.096 96.889C195.802 96.665 195.427 96.553 194.969 96.553C194.484 96.553 194.085 96.672 193.772 96.91C193.46 97.148 193.226 97.4677 193.072 97.869C192.923 98.2703 192.848 98.7183 192.848 99.213C192.848 99.7123 192.923 100.165 193.072 100.571C193.226 100.972 193.455 101.292 193.758 101.53C194.066 101.768 194.454 101.887 194.92 101.887ZM200.372 94.201V92.78H201.835V94.201H200.372ZM200.372 103V95.44H201.835V103H200.372ZM209.243 103V99.283C209.243 98.989 209.217 98.688 209.166 98.38C209.119 98.0673 209.026 97.778 208.886 97.512C208.751 97.246 208.557 97.0313 208.305 96.868C208.058 96.7047 207.733 96.623 207.332 96.623C207.071 96.623 206.823 96.6673 206.59 96.756C206.357 96.84 206.151 96.9777 205.974 97.169C205.801 97.3603 205.664 97.6123 205.561 97.925C205.463 98.2377 205.414 98.618 205.414 99.066L204.504 98.723C204.504 98.037 204.632 97.4327 204.889 96.91C205.146 96.3827 205.514 95.972 205.995 95.678C206.476 95.384 207.057 95.237 207.738 95.237C208.261 95.237 208.699 95.321 209.054 95.489C209.409 95.657 209.696 95.8787 209.915 96.154C210.139 96.4247 210.309 96.721 210.426 97.043C210.543 97.365 210.622 97.68 210.664 97.988C210.706 98.296 210.727 98.5667 210.727 98.8V103H209.243ZM203.93 103V95.44H205.239V97.624H205.414V103H203.93ZM215.808 103.21C215.056 103.21 214.396 103.047 213.827 102.72C213.262 102.389 212.821 101.929 212.504 101.341C212.191 100.748 212.035 100.062 212.035 99.283C212.035 98.457 212.189 97.7407 212.497 97.134C212.809 96.5273 213.243 96.0583 213.799 95.727C214.354 95.3957 215 95.23 215.738 95.23C216.508 95.23 217.163 95.4097 217.705 95.769C218.246 96.1237 218.65 96.63 218.916 97.288C219.186 97.946 219.294 98.7277 219.238 99.633H217.775V99.101C217.765 98.2237 217.597 97.575 217.271 97.155C216.949 96.735 216.456 96.525 215.794 96.525C215.061 96.525 214.51 96.756 214.142 97.218C213.773 97.68 213.589 98.3473 213.589 99.22C213.589 100.051 213.773 100.695 214.142 101.152C214.51 101.605 215.042 101.831 215.738 101.831C216.195 101.831 216.589 101.728 216.921 101.523C217.257 101.313 217.518 101.014 217.705 100.627L219.14 101.082C218.846 101.759 218.4 102.284 217.803 102.657C217.205 103.026 216.54 103.21 215.808 103.21ZM213.113 99.633V98.492H218.51V99.633H213.113ZM224.161 103.21C223.41 103.21 222.749 103.047 222.18 102.72C221.615 102.389 221.174 101.929 220.857 101.341C220.544 100.748 220.388 100.062 220.388 99.283C220.388 98.457 220.542 97.7407 220.85 97.134C221.163 96.5273 221.597 96.0583 222.152 95.727C222.707 95.3957 223.354 95.23 224.091 95.23C224.861 95.23 225.517 95.4097 226.058 95.769C226.599 96.1237 227.003 96.63 227.269 97.288C227.54 97.946 227.647 98.7277 227.591 99.633H226.128V99.101C226.119 98.2237 225.951 97.575 225.624 97.155C225.302 96.735 224.81 96.525 224.147 96.525C223.414 96.525 222.864 96.756 222.495 97.218C222.126 97.68 221.942 98.3473 221.942 99.22C221.942 100.051 222.126 100.695 222.495 101.152C222.864 101.605 223.396 101.831 224.091 101.831C224.548 101.831 224.943 101.728 225.274 101.523C225.61 101.313 225.871 101.014 226.058 100.627L227.493 101.082C227.199 101.759 226.753 102.284 226.156 102.657C225.559 103.026 224.894 103.21 224.161 103.21ZM221.466 99.633V98.492H226.863V99.633H221.466ZM229.162 103V95.44H230.464V97.274L230.282 97.036C230.375 96.7933 230.496 96.5717 230.646 96.371C230.795 96.1657 230.968 95.9977 231.164 95.867C231.355 95.727 231.567 95.6197 231.801 95.545C232.039 95.4657 232.281 95.419 232.529 95.405C232.776 95.3863 233.014 95.398 233.243 95.44V96.812C232.995 96.7467 232.72 96.728 232.417 96.756C232.118 96.784 231.843 96.8797 231.591 97.043C231.353 97.197 231.164 97.3837 231.024 97.603C230.888 97.8223 230.79 98.0673 230.73 98.338C230.669 98.604 230.639 98.8863 230.639 99.185V103H229.162Z" fill="white"/>
</svg>
