<svg width="18" height="18" viewBox="0 0 18 18" fill="none" xmlns="http://www.w3.org/2000/svg">
<path d="M15.4391 4.42116C13.3437 2.85336 11.3363 2.89728 11.3363 2.89728L11.1311 3.13164C13.6222 3.879 14.7797 4.9779 14.7797 4.9779C11.2159 3.01572 6.67632 3.02976 2.9694 4.9779C2.9694 4.9779 4.1709 3.82032 6.80844 3.07296L6.66192 2.8971C6.66192 2.8971 4.66914 2.85318 2.55918 4.42098C2.55918 4.42098 0.449219 8.2161 0.449219 12.8903C0.449219 12.8903 1.68006 15.0003 4.91844 15.1029C4.91844 15.1029 5.4606 14.4581 5.90016 13.9014C4.03914 13.3447 3.33588 12.1871 3.33588 12.1871C4.50498 12.9186 5.68722 13.3765 7.16034 13.667C9.55722 14.1604 12.5386 13.6532 14.7652 12.1871C14.7652 12.1871 14.0326 13.374 12.113 13.9162C12.5526 14.4583 13.0802 15.0883 13.0802 15.0883C16.3182 14.9859 17.549 12.8759 17.549 12.8905C17.549 8.21628 15.4391 4.42116 15.4391 4.42116ZM6.26628 11.5279C5.44566 11.5279 4.77174 10.8099 4.77174 9.91602C4.83168 7.77546 7.716 7.78212 7.761 9.91602C7.76082 10.8099 7.10148 11.5279 6.26628 11.5279ZM11.6146 11.5279C10.794 11.5279 10.1201 10.8099 10.1201 9.91602C10.186 7.7796 13.0343 7.7787 13.1093 9.91602C13.1092 10.8099 12.4498 11.5279 11.6146 11.5279Z" fill="#738DE9"/>
</svg>
