<svg width="18" height="18" viewBox="0 0 18 18" fill="none" xmlns="http://www.w3.org/2000/svg">
<path d="M15.0885 4.42554C15.0276 4.34471 14.9625 4.2671 14.8935 4.19304C14.9629 4.00812 15.0156 3.81736 15.051 3.62304C15.1555 2.91219 15.0648 2.18631 14.7885 1.52304C14.7885 1.52304 13.9485 1.26054 12.021 2.55804C11.2027 2.3321 10.3575 2.21856 9.50854 2.22054C8.65717 2.21905 7.80951 2.33258 6.98854 2.55804C5.06104 1.24554 4.22104 1.52304 4.22104 1.52304C3.9481 2.17928 3.85741 2.89704 3.95854 3.60054C3.99413 3.80294 4.04939 4.00138 4.12354 4.19304C4.05604 4.26804 3.98854 4.35054 3.92854 4.42554C3.36888 5.12756 3.07179 6.0029 3.08854 6.90054C3.08676 7.11344 3.09677 7.32626 3.11854 7.53804C3.35854 10.8605 5.57104 11.633 7.67854 11.873C7.38025 12.1504 7.17799 12.5155 7.10104 12.9155C7.03133 13.1823 6.99852 13.4574 7.00354 13.733V14.7155C6.16429 14.7905 5.30329 14.6683 5.03629 13.9198C4.74968 13.2034 4.27434 12.578 3.66079 12.11C3.61595 12.0858 3.57329 12.0577 3.53329 12.026C3.47941 11.8844 3.38396 11.7625 3.25947 11.6761C3.13498 11.5898 2.98728 11.5431 2.83579 11.5423H2.83204C2.63377 11.5423 2.44357 11.6208 2.30303 11.7606C2.16248 11.9005 2.08303 12.0903 2.08204 12.2885C2.07979 12.8975 2.68954 13.2913 2.93929 13.4248C3.23108 13.7188 3.4658 14.0644 3.63154 14.444C3.90454 15.2113 4.70329 16.3775 6.98104 16.226L6.98254 16.2995L6.98554 16.5005C6.98554 16.6995 7.06456 16.8902 7.20521 17.0309C7.34586 17.1715 7.53663 17.2505 7.73554 17.2505H11.271C11.4699 17.2505 11.6607 17.1715 11.8014 17.0309C11.942 16.8902 12.021 16.6995 12.021 16.5005C12.021 16.5005 12.027 14.1305 12.027 13.733C12.032 13.4574 11.9992 13.1823 11.9295 12.9155L11.928 12.911L11.931 12.9155C11.9243 12.8893 11.9145 12.8683 11.907 12.8428C11.8235 12.4712 11.6301 12.1333 11.352 11.873L11.361 11.8888L11.346 11.8738C13.4535 11.6338 15.651 10.8463 15.891 7.53879C15.9128 7.32701 15.9228 7.11418 15.921 6.90129C15.9343 6.00543 15.6406 5.13125 15.0885 4.42554Z" fill="white"/>
</svg>
