<svg width="18" height="18" viewBox="0 0 18 18" fill="none" xmlns="http://www.w3.org/2000/svg">
<path d="M11.9681 10.5754C9.3922 10.257 7.19434 8.47807 6.22978 6.06855C5.80196 5.01622 5.64242 3.87405 5.76551 2.74476C5.77138 2.68642 5.76061 2.6276 5.73443 2.57513C5.70826 2.52266 5.66775 2.47868 5.61761 2.44828C5.56746 2.41788 5.50973 2.40231 5.4511 2.40337C5.39248 2.40443 5.33535 2.42208 5.28634 2.45428C3.15923 3.82104 1.80303 6.28207 2.02399 9.04538C2.29834 12.4741 5.10199 15.287 8.53006 15.5707C12.0345 15.8612 15.061 13.6168 15.9845 10.473C16.0578 10.2235 15.8145 9.99256 15.5743 10.0919C14.4347 10.5638 13.1917 10.7304 11.9681 10.5754Z" fill="white"/>
</svg>
