<svg width="18" height="18" viewBox="0 0 18 18" fill="none" xmlns="http://www.w3.org/2000/svg">
<g clip-path="url(#clip0_1385_3483)">
<path fill-rule="evenodd" clip-rule="evenodd" d="M9.84375 1.125H12.0938C12.1067 1.125 12.1196 1.12584 12.132 1.12753C12.2681 1.13878 12.3778 1.24762 12.3879 1.386C12.5381 2.94806 13.9832 4.84959 15.4972 5.04281C15.5665 5.04985 15.6307 5.08237 15.6774 5.13407C15.7242 5.18577 15.75 5.25298 15.75 5.32266C15.75 5.84916 15.75 7.03744 15.7489 7.58672C15.7488 7.62459 15.741 7.66204 15.726 7.69683C15.7111 7.73162 15.6892 7.76303 15.6618 7.78916C15.6344 7.8153 15.602 7.83563 15.5666 7.84893C15.5311 7.86223 15.4934 7.86823 15.4555 7.86656C14.3283 7.80075 13.2725 7.362 12.375 6.67997V11.5312C12.375 14.1702 10.2327 16.3125 7.59375 16.3125C4.95478 16.3125 2.8125 14.1702 2.8125 11.5312C2.8125 8.89228 4.95478 6.75 7.59375 6.75C7.66834 6.75 7.73988 6.77963 7.79262 6.83238C7.84537 6.88512 7.875 6.95666 7.875 7.03125V9.28125C7.87493 9.35579 7.84526 9.42726 7.79252 9.47994C7.73979 9.53263 7.66829 9.56222 7.59375 9.56222C6.50728 9.56222 5.625 10.4448 5.625 11.5312C5.625 12.6177 6.50728 13.5 7.59375 13.5C8.68022 13.5 9.5625 12.6177 9.5625 11.5312V1.40625C9.5625 1.33166 9.59213 1.26012 9.64488 1.20738C9.69762 1.15463 9.76916 1.125 9.84375 1.125Z" fill="#AAE1F9"/>
<path fill-rule="evenodd" clip-rule="evenodd" d="M10.4062 1.6875H12.6562C12.6692 1.6875 12.6821 1.68834 12.6945 1.69003C12.8306 1.70128 12.9403 1.81012 12.9504 1.9485C13.1006 3.51056 14.5457 5.41209 16.0597 5.60531C16.129 5.61235 16.1932 5.64487 16.2399 5.69657C16.2867 5.74827 16.3125 5.81548 16.3125 5.88516C16.3125 6.41166 16.3125 7.59994 16.3114 8.14922C16.3113 8.18709 16.3035 8.22454 16.2885 8.25933C16.2736 8.29412 16.2517 8.32553 16.2243 8.35166C16.1969 8.3778 16.1645 8.39813 16.1291 8.41143C16.0936 8.42473 16.0559 8.43073 16.018 8.42906C14.8908 8.36325 13.835 7.9245 12.9375 7.24247V12.0938C12.9375 14.7327 10.7952 16.875 8.15625 16.875C5.51728 16.875 3.375 14.7327 3.375 12.0938C3.375 9.45478 5.51728 7.3125 8.15625 7.3125C8.23084 7.3125 8.30238 7.34213 8.35512 7.39488C8.40787 7.44762 8.4375 7.51916 8.4375 7.59375V9.84375C8.43743 9.91829 8.40776 9.98976 8.35502 10.0424C8.30229 10.0951 8.23079 10.1247 8.15625 10.1247C7.06978 10.1247 6.1875 11.0073 6.1875 12.0938C6.1875 13.1802 7.06978 14.0625 8.15625 14.0625C9.24272 14.0625 10.125 13.1802 10.125 12.0938V1.96875C10.125 1.89416 10.1546 1.82262 10.2074 1.76988C10.2601 1.71713 10.3317 1.6875 10.4062 1.6875Z" fill="#DD636E"/>
<path fill-rule="evenodd" clip-rule="evenodd" d="M12.4318 1.6875C12.618 2.64656 13.2429 3.68128 14.0411 4.34756C14.5246 4.91991 15.1239 5.36794 15.75 5.54231C15.75 6.12928 15.7497 7.10437 15.7489 7.58672C15.7488 7.62459 15.741 7.66204 15.726 7.69683C15.7111 7.73162 15.6893 7.76303 15.6619 7.78916C15.6345 7.8153 15.6021 7.83563 15.5666 7.84893C15.5311 7.86223 15.4934 7.86823 15.4555 7.86656C14.3283 7.80075 13.2725 7.362 12.375 6.67997V11.5312C12.375 14.1702 10.2327 16.3125 7.59375 16.3125C6.46295 16.3139 5.36854 15.9129 4.50647 15.181C3.77465 14.319 3.37355 13.2246 3.375 12.0938C3.375 9.54928 5.36682 7.46662 7.875 7.32066V9.28125C7.87493 9.35579 7.84526 9.42726 7.79253 9.47994C7.73979 9.53263 7.6683 9.56222 7.59375 9.56222C6.50729 9.56222 5.625 10.4448 5.625 11.5312C5.62491 11.8574 5.7059 12.1784 5.8607 12.4655C6.01549 12.7525 6.23923 12.9966 6.51179 13.1757C6.69089 13.4483 6.93496 13.672 7.22202 13.8268C7.50908 13.9816 7.83012 14.0626 8.15625 14.0625C9.24272 14.0625 10.125 13.1802 10.125 12.0938V1.96875C10.125 1.89416 10.1546 1.82262 10.2074 1.76988C10.2601 1.71713 10.3317 1.6875 10.4063 1.6875H12.4318Z" fill="#F9F6F9"/>
</g>
<defs>
<clipPath id="clip0_1385_3483">
<rect width="18" height="18" fill="white"/>
</clipPath>
</defs>
</svg>
