<svg width="110" height="78" viewBox="0 0 110 78" fill="none" xmlns="http://www.w3.org/2000/svg">
<path d="M80.2407 76.6082L80.2408 76.6081L109.07 52.1556C109.343 51.9241 109.5 51.5842 109.5 51.2262C109.5 50.8683 109.343 50.5283 109.07 50.297L109.07 50.2969L80.2408 25.8445C79.8786 25.5373 79.3712 25.4684 78.9404 25.668L78.9402 25.6681C78.5095 25.8675 78.2337 26.299 78.2337 26.7739V37.2813V37.7813H77.7337H30.5476C29.8745 37.7813 29.3288 38.327 29.3288 39V47.5147V48.5945L28.5054 47.896L4.05251 27.155L3.60296 26.7737L4.05251 26.3924L28.5054 5.6514L29.3288 4.95297V6.03271V14.5474C29.3288 15.2204 29.8745 15.7661 30.5476 15.7661H79.4524C80.1255 15.7661 80.6712 15.2204 80.6712 14.5474C80.6712 13.8744 80.1255 13.3286 79.4524 13.3286H32.2663H31.7663V12.8286V2.32128C31.7663 1.84664 31.4906 1.41501 31.0597 1.21542C30.6289 1.01587 30.1213 1.08471 29.7592 1.39183C29.7592 1.39183 29.7592 1.39184 29.7592 1.39184L0.930362 25.8443C0.657381 26.0758 0.5 26.4157 0.5 26.7737C0.5 27.1318 0.65738 27.4716 0.930357 27.7032L29.7594 52.1556C30.1214 52.4626 30.6287 52.5316 31.0598 52.3323L80.2407 76.6082ZM80.2407 76.6082C80.0164 76.7985 79.7362 76.8974 79.4522 76.8974C79.2786 76.8974 79.1043 76.8604 78.9406 76.7847C78.5096 76.5849 78.2339 76.1532 78.2339 75.6786V65.1712V64.6712M80.2407 76.6082L78.2339 64.6712M78.2339 64.6712H77.7339M78.2339 64.6712H77.7339M77.7339 64.6712H30.5478C29.8747 64.6712 29.329 64.1255 29.329 63.4525C29.329 62.7795 29.8747 62.2337 30.5478 62.2337H79.4527C80.1257 62.2337 80.6714 62.7795 80.6714 63.4525V71.9672V73.0469M77.7339 64.6712L80.6714 73.0469M80.6714 73.0469L81.4948 72.3485M80.6714 73.0469L81.4948 72.3485M81.4948 72.3485L105.948 51.6075L106.397 51.2262M81.4948 72.3485L106.397 51.2262M106.397 51.2262L105.948 50.8449M106.397 51.2262L105.948 50.8449M105.948 50.8449L81.4948 30.1041L80.6714 29.4056M105.948 50.8449L80.6714 29.4056M80.6714 29.4056V30.4854M80.6714 29.4056V30.4854M80.6714 30.4854V39C80.6714 39.6731 80.1257 40.2188 79.4527 40.2188H32.2665H31.7665M80.6714 30.4854L31.7665 40.2188M31.7665 40.2188V40.7188M31.7665 40.2188V40.7188M31.7665 40.7188V51.2262M31.7665 40.7188V51.2262M31.7665 51.2262C31.7665 51.7008 31.491 52.1323 31.0601 52.3321L31.7665 51.2262Z" stroke="#fff"/>
</svg>
