<svg width="18" height="18" viewBox="0 0 18 18" fill="none" xmlns="http://www.w3.org/2000/svg">
<path fill-rule="evenodd" clip-rule="evenodd" d="M17.235 4.5675C16.7467 3.699 16.2169 3.53925 15.138 3.4785C14.0603 3.40538 11.3501 3.375 9.00225 3.375C6.64987 3.375 3.93862 3.40538 2.862 3.47738C1.78537 3.53925 1.25437 3.69787 0.761625 4.5675C0.25875 5.43488 0 6.92887 0 9.55912V9.56813C0 12.1871 0.25875 13.6924 0.761625 14.5507C1.25437 15.4192 1.78425 15.5768 2.86087 15.6499C3.93862 15.7129 6.64987 15.75 9.00225 15.75C11.3501 15.75 14.0603 15.7129 15.1391 15.651C16.218 15.5779 16.7479 15.4204 17.2361 14.5519C17.7435 13.6935 18 12.1882 18 9.56925V9.56025C18 6.92888 17.7435 5.43488 17.235 4.5675ZM6.75 12.9375V6.1875L12.375 9.5625L6.75 12.9375Z" fill="#FF5959"/>
<path d="M6.75 12.9375V6.1875L12.375 9.5625L6.75 12.9375Z" fill="white"/>
</svg>
