<svg width="152" height="34" viewBox="0 0 152 34" fill="none" xmlns="http://www.w3.org/2000/svg">
<g clip-path="url(#clip0_8_3660)">
<mask id="mask0_8_3660" style="mask-type:luminance" maskUnits="userSpaceOnUse" x="0" y="0" width="191" height="135">
<path d="M0 0H190.628V134.665H0V0Z" fill="white"/>
</mask>
<g mask="url(#mask0_8_3660)">
<path d="M72.4789 32.4165V0.995343C72.4789 0.429807 72.9318 0 73.4752 0H76.6452C77.2112 0 77.6414 0.452428 77.6414 0.995343V32.3939C77.6414 32.9594 77.1886 33.3892 76.6452 33.3892H73.4752C72.9318 33.4118 72.4789 32.9594 72.4789 32.4165ZM19.2008 0H16.144C15.3968 0 14.7402 0.429807 14.4232 1.10845L0.0677753 32.3713C-0.158651 32.8463 0.203631 33.4118 0.724412 33.4118H4.07552C4.86801 33.4118 5.56994 32.9594 5.88693 32.2355L17.3441 6.67332C17.48 6.37924 17.8875 6.37924 18.0234 6.67332L29.4806 32.2355C29.7976 32.9594 30.5221 33.4118 31.292 33.4118H34.5978C35.1412 33.4118 35.4809 32.8689 35.2544 32.3713L20.9216 1.10845C20.6046 0.429807 19.948 0 19.2008 0ZM57.331 18.8436C57.1725 18.6401 57.3083 18.3234 57.5574 18.3234C63.8747 17.9162 67.7013 14.1158 67.7013 9.16168C67.7013 3.77778 63.4219 0.0678643 56.38 0.0678643H41.0057C40.4169 0.0678643 39.9414 0.542914 39.9414 1.13107V32.3939C39.9414 32.982 40.4169 33.4571 41.0057 33.4571H44.1303C44.6511 33.4571 45.0587 33.0499 45.0587 32.5296L45.104 5.0672C45.104 4.77312 45.3304 4.54691 45.6248 4.54691L56.3574 4.56953C60.2292 4.56953 62.335 6.22089 62.335 9.09381C62.335 11.8989 60.2292 13.7764 56.3574 13.7764H51.942C51.3533 13.7764 50.8778 14.2515 50.8778 14.8397V17.3054C50.8778 18.0067 51.1043 18.7079 51.5118 19.2735L61.1802 32.3939C61.6557 33.0273 62.4029 33.4118 63.1954 33.4118H67.2711C67.7919 33.4118 68.0862 32.8011 67.7692 32.3939L57.331 18.8436Z" fill="#111111"/>
</g>
<mask id="mask1_8_3660" style="mask-type:luminance" maskUnits="userSpaceOnUse" x="0" y="0" width="191" height="135">
<path d="M0 0H190.628V134.665H0V0Z" fill="white"/>
</mask>
<g mask="url(#mask1_8_3660)">
<path d="M102.164 33.6157H98.971C98.4049 33.6157 97.9294 33.1407 97.9294 32.5752V6.67363C97.9294 6.35693 97.6125 6.13072 97.2955 6.24382L92.2461 8.18927C91.7027 8.39286 91.114 7.98567 91.114 7.42014V4.99964C91.114 4.34362 91.5216 3.77809 92.1329 3.57449L101.96 0.113417C102.571 -0.0901757 103.205 0.339631 103.205 0.995653V32.5752C103.205 33.1633 102.73 33.6157 102.164 33.6157ZM123.312 0.0681742C113.983 0.0681742 106.42 7.62373 106.42 16.9438C106.42 26.2638 113.983 33.7967 123.312 33.7967C132.641 33.7967 140.181 26.2412 140.181 16.9438C140.181 7.64635 132.641 0.0681742 123.312 0.0681742ZM123.312 28.7521C116.791 28.7521 111.492 23.4587 111.492 16.9438C111.492 10.4288 116.791 5.13537 123.312 5.13537C129.833 5.13537 135.131 10.4288 135.131 16.9438C135.131 23.4587 129.833 28.7521 123.312 28.7521ZM151.955 5.40683C151.955 2.39818 149.464 -0.0223115 146.43 0.0907956C143.69 0.203903 141.426 2.46605 141.313 5.20324C141.2 8.23451 143.622 10.7229 146.634 10.7229C146.883 10.7229 147.109 10.7002 147.336 10.6776C147.472 10.655 147.562 10.8133 147.494 10.9265L144.868 15.3376C144.732 15.5412 144.89 15.8127 145.139 15.8127L146.271 15.8353C146.566 15.8353 146.86 15.677 146.996 15.4281L151.253 8.03091C151.706 7.23917 151.955 6.35693 151.955 5.40683ZM143.305 5.40683C143.305 3.57449 144.8 2.1041 146.611 2.1041C148.445 2.1041 149.94 3.59712 149.94 5.40683C149.94 7.23917 148.445 8.73218 146.611 8.73218C144.8 8.70956 143.305 7.23917 143.305 5.40683Z" fill="#FBBB21"/>
</g>
</g>
<defs>
<clipPath id="clip0_8_3660">
<rect width="152" height="34" fill="white"/>
</clipPath>
</defs>
</svg>
