<svg width="77" height="77" viewBox="0 0 77 77" fill="none" xmlns="http://www.w3.org/2000/svg">
<g clip-path="url(#clip0_6_2668)">
<path d="M34.9581 76.7537C25.4563 75.5987 17.8025 71.9797 11.4115 65.5887C4.09645 58.2737 0.154053 48.7719 0.154053 38.5001C0.154053 32.3709 1.37065 27.1965 4.09645 21.6371C6.00605 17.7255 8.28525 14.5377 11.4115 11.4115C17.2789 5.55951 24.4861 1.89431 32.8791 0.508308C35.2969 0.107908 41.7033 0.107908 44.1211 0.508308C50.5275 1.57091 56.3487 4.00411 61.3691 7.74631C63.4789 9.30171 67.6061 13.3981 69.1307 15.4463C73.3195 21.0673 75.9375 27.6893 76.6767 34.5269C77.5391 42.3501 74.6439 52.3139 69.3771 59.6751C63.9255 67.2981 56.2101 72.8883 47.5091 75.5371C44.0133 76.5997 43.2587 76.7075 39.1931 76.7691C37.1603 76.7999 35.2507 76.7845 34.9581 76.7537ZM17.1557 66.4819C17.1095 66.3587 17.2943 66.1739 17.6177 66.0353C18.0181 65.8351 18.3261 65.4655 18.9113 64.4183L19.6659 63.0631L21.3445 62.1853C23.8085 60.8763 25.2407 60.1217 29.0907 58.1813C32.9407 56.2409 32.6943 56.4411 33.6799 54.1311C33.8955 53.6229 34.2189 52.8683 34.4191 52.4371C34.6193 52.0213 34.9119 51.3437 35.0813 50.9433C35.2661 50.5275 35.4971 50.2041 35.6049 50.1887C35.9591 50.1733 36.2517 50.0963 37.4991 49.6805C40.3943 48.7103 41.0873 48.4947 41.9651 48.2791C42.9661 48.0173 42.9199 48.0481 44.9219 45.5841C45.5841 44.7833 46.2771 43.9517 46.4773 43.7361C46.6621 43.5205 46.9701 43.1355 47.1549 42.8737C47.3397 42.6119 47.6631 42.3193 47.8787 42.2269C48.0943 42.1345 49.0491 41.6417 49.9731 41.1489C51.6363 40.2711 51.6671 40.2403 51.8365 39.5627C51.9289 39.1777 52.1445 38.6233 52.2985 38.3307C52.6065 37.7455 53.0069 36.4211 53.4381 34.5731C53.8847 32.6789 54.3005 31.4623 55.0551 29.9531C55.9483 28.1205 56.2101 27.3505 56.2101 26.3649C56.2101 25.9183 56.3179 25.3023 56.4411 25.0097C56.6105 24.5785 56.6259 24.3167 56.5027 23.7007C56.3795 23.1309 56.3949 22.3147 56.5797 20.4513C56.7029 19.0653 56.8569 17.3405 56.9031 16.6013C56.9493 15.8621 57.0879 14.8149 57.2265 14.2913C57.3651 13.7523 57.5345 12.8437 57.6115 12.2585C57.7193 11.5039 57.8733 11.0727 58.1351 10.7493C58.3507 10.5029 58.5201 10.1025 58.5201 9.85611C58.5201 9.47111 58.3507 9.31711 57.1495 8.56251C54.3775 6.85311 51.2513 5.46711 48.2329 4.62011C38.2999 1.81731 27.5507 3.46511 19.0345 9.08611C13.7061 12.5973 9.71745 17.1711 6.85305 23.0231C4.34285 28.1359 3.34185 32.5711 3.34185 38.5001C3.34185 42.1807 3.54205 43.9055 4.32745 47.1087C4.98965 49.8037 5.54405 51.3283 6.85305 53.9771C9.13225 58.6279 11.9505 62.2623 15.8621 65.5733C16.5859 66.1893 17.1865 66.6821 17.2019 66.6821C17.2173 66.6821 17.2019 66.5897 17.1557 66.4819Z" fill="#36F3D2"/>
<path d="M19.0806 67.806C18.8804 67.6674 18.3414 67.267 17.8794 66.9436L17.0632 66.343L17.633 66.0042C18.0488 65.7732 18.403 65.342 18.942 64.3718L19.6658 63.0628L21.3444 62.185C23.8084 60.876 25.2406 60.1214 29.0906 58.181C32.9406 56.2406 32.6942 56.4408 33.6798 54.1308C33.8954 53.6226 34.2188 52.868 34.419 52.4368C34.6192 52.021 34.9118 51.3434 35.0812 50.943C35.266 50.5272 35.497 50.2038 35.6048 50.1884C35.959 50.173 36.2516 50.096 37.499 49.6802C40.3942 48.71 41.0872 48.4944 41.965 48.2788C42.966 48.017 42.9198 48.0478 44.9218 45.5838C45.584 44.783 46.277 43.9514 46.4772 43.7358C46.662 43.5202 46.97 43.1352 47.1548 42.8734C47.3396 42.6116 47.663 42.319 47.8786 42.2266C48.0942 42.1342 49.049 41.6414 49.973 41.1486C51.6362 40.2708 51.667 40.24 51.8364 39.5624C51.9288 39.1774 52.1444 38.623 52.2984 38.3304C52.6064 37.7452 53.0068 36.4208 53.438 34.5728C53.8846 32.6786 54.3004 31.462 55.055 29.9528C55.9482 28.1202 56.21 27.3502 56.21 26.3646C56.21 25.918 56.3178 25.302 56.441 25.0094C56.6104 24.5782 56.6258 24.3164 56.5026 23.7004C56.3794 23.1306 56.3948 22.3144 56.5796 20.451C56.7028 19.065 56.8568 17.3402 56.903 16.601C56.9492 15.8618 57.0878 14.8146 57.2264 14.291C57.365 13.752 57.5344 12.8434 57.6114 12.2428C57.7192 11.5036 57.8578 11.0724 58.0734 10.8568L58.3814 10.5488L58.289 11.5498C58.2274 12.1042 58.1042 12.7972 58.0272 13.0898C57.9194 13.4132 57.8424 15.985 57.8116 19.6964C57.7654 26.2106 57.7192 26.5956 56.9492 28.3358C56.287 29.7834 55.9328 30.9846 55.286 34.0338C54.9626 35.5122 54.5622 37.1446 54.3928 37.6528C54.208 38.161 54.0386 38.7462 53.9924 38.9618C53.9308 39.2544 53.4688 39.6086 51.9596 40.5172L50.0038 41.6876L47.8324 44.5828L45.661 47.4934L41.9342 48.8794L38.2074 50.2654L37.0216 53.3762L35.8512 56.487L33.2024 57.9808C31.7548 58.797 28.9366 60.4602 26.9346 61.646L23.3002 63.8328L22.561 65.265C21.791 66.7434 21.637 66.882 19.5426 68.0062C19.4964 68.037 19.2808 67.9446 19.0806 67.806Z" fill="#1B9D7F"/>
</g>
<defs>
<clipPath id="clip0_6_2668">
<rect width="77" height="77" fill="white"/>
</clipPath>
</defs>
</svg>
