<svg width="20" height="20" viewBox="0 0 20 20" fill="none" xmlns="http://www.w3.org/2000/svg">
<path d="M19 8.24875C19 9.38133 18.5982 10.4277 17.7946 11.3878C16.9911 12.3479 15.8996 13.1062 14.5201 13.6627C13.1406 14.2192 11.6339 14.4975 10 14.4975C9.53125 14.4975 9.04576 14.4715 8.54353 14.4194C7.21763 15.5585 5.67746 16.3461 3.92299 16.7822C3.59487 16.8733 3.21317 16.9449 2.7779 16.997C2.66406 17.01 2.56194 16.9807 2.47154 16.9091C2.38114 16.8375 2.32254 16.7431 2.29576 16.626V16.6162C2.27567 16.5902 2.274 16.5511 2.29074 16.499C2.30748 16.447 2.31417 16.4144 2.31083 16.4014C2.30748 16.3884 2.32254 16.3575 2.35603 16.3087L2.41629 16.2208L2.48661 16.1378L2.56696 16.0499C2.61384 15.9978 2.71763 15.8856 2.87835 15.7131C3.03906 15.5406 3.15458 15.4169 3.22489 15.3421C3.2952 15.2672 3.399 15.1386 3.53627 14.9564C3.67355 14.7741 3.78237 14.6082 3.86272 14.4584C3.94308 14.3087 4.03348 14.1167 4.13393 13.8824C4.23437 13.6481 4.32143 13.4007 4.39509 13.1403C3.34375 12.561 2.51507 11.845 1.90904 10.9923C1.30301 10.1396 1 9.22512 1 8.24875C1 7.40256 1.23772 6.59381 1.71317 5.82248C2.18862 5.05115 2.82812 4.38559 3.6317 3.82581C4.43527 3.26602 5.39286 2.82178 6.50446 2.49307C7.61607 2.16436 8.78125 2 10 2C11.6339 2 13.1406 2.27826 14.5201 2.83479C15.8996 3.39132 16.9911 4.14963 17.7946 5.10973C18.5982 6.06982 19 7.11616 19 8.24875Z" fill="#6C6C67"/>
</svg>
