<svg width="18" height="18" viewBox="0 0 18 18" fill="none" xmlns="http://www.w3.org/2000/svg">
<g clip-path="url(#clip0_2655_2575)">
<path d="M8.9996 13.5C9.20987 13.5 9.38625 13.4289 9.52875 13.2867C9.67125 13.1444 9.7425 12.9682 9.7425 12.7579C9.7425 12.5476 9.67139 12.3713 9.52916 12.2288C9.38691 12.0863 9.21066 12.015 9.00041 12.015C8.79014 12.015 8.61375 12.0861 8.47125 12.2283C8.32875 12.3706 8.2575 12.5468 8.2575 12.7571C8.2575 12.9674 8.32862 13.1438 8.47085 13.2863C8.61309 13.4288 8.78934 13.5 8.9996 13.5ZM8.3925 10.0575H9.7425V4.365H8.3925V10.0575ZM9.00599 18C7.76498 18 6.59872 17.7638 5.50724 17.2913C4.41574 16.8188 3.46125 16.1737 2.64375 15.3563C1.82625 14.5388 1.18125 13.5837 0.70875 12.4911C0.23625 11.3985 0 10.231 0 8.98875C0 7.74647 0.23625 6.57902 0.70875 5.48642C1.18125 4.39381 1.82625 3.4425 2.64375 2.6325C3.46125 1.8225 4.41631 1.18125 5.50892 0.70875C6.60152 0.23625 7.76897 0 9.01125 0C10.2535 0 11.421 0.23625 12.5136 0.70875C13.6062 1.18125 14.5575 1.8225 15.3675 2.6325C16.1775 3.4425 16.8188 4.395 17.2913 5.49C17.7638 6.585 18 7.75301 18 8.99402C18 10.235 17.7638 11.4013 17.2913 12.4928C16.8188 13.5843 16.1775 14.5374 15.3675 15.3521C14.5575 16.1669 13.605 16.8118 12.51 17.2871C11.415 17.7624 10.247 18 9.00599 18Z" fill="#FF5959" style="fill:#FF5959;fill:color(display-p3 1.0000 0.3500 0.3500);fill-opacity:1;"/>
</g>
<defs>
<clipPath id="clip0_2655_2575">
<rect width="18" height="18" fill="white" style="fill:white;fill:white;fill-opacity:1;"/>
</clipPath>
</defs>
</svg>
