<svg width="196" height="51" viewBox="0 0 196 51" fill="none" xmlns="http://www.w3.org/2000/svg">
<g clip-path="url(#clip0_6_2277)">
<path d="M1.46038 47.3799C2.08423 45.9122 6.78823 34.9101 9.91945 29.6808L8.27497 30.7511L10.1848 26.6088L15.4672 14.467C16.4329 12.2498 18.6199 10.8204 21.0365 10.8204C22.124 10.8204 23.171 11.1077 24.0888 11.6488L26.1612 8.68459C29.9832 3.22304 36.2384 -0.0380859 42.8929 -0.0380859C43.4474 -0.0380859 44.0091 -0.0141421 44.5636 0.0313509L48.584 0.35938H49.7577L49.8533 1.5853L50.1831 5.6629C50.6731 11.6608 48.5171 17.5437 44.272 21.8009L44.2649 21.8081C43.4235 22.6509 42.508 23.4195 41.5448 24.0971L38.5809 26.1754C39.3123 27.4253 39.58 28.9146 39.3051 30.3728C38.9322 32.3481 37.6104 34.0074 35.7699 34.8095L19.6143 41.8633L20.6995 40.1921C20.2023 40.4387 19.6406 40.6829 19.0119 40.9319L13.3399 43.6232C8.64545 46.0391 3.37258 49.0177 3.31999 49.0488L-0.0598145 50.9595L1.46038 47.3799Z" fill="#DABC64"/>
<path d="M21.4572 28.833C21.45 28.833 21.4428 28.833 21.4381 28.833L17.2456 33.0327L20.0708 28.8474C18.3929 29.015 16.299 29.7668 14.1526 31.917C14.1526 31.917 15.8138 29.4244 17.5491 27.8896C17.5491 27.8896 12.4101 30.0374 11.6285 35.7312C11.6285 35.7312 11.6261 35.7288 11.6261 35.724C11.595 35.633 11.1074 34.1222 11.4683 32.4246L3.92712 46.6399L18.4957 39.7298L18.5028 39.7274C20.0421 39.1216 21.3257 38.4656 22.0021 37.788C24.3135 35.4726 24.5788 31.893 22.8124 29.2784L17.2551 33.0423L21.4572 28.833Z" fill="#171717"/>
<path d="M11.4683 32.4277C11.1074 34.1229 11.5974 35.6362 11.6261 35.7272C11.6261 35.7319 11.6285 35.7343 11.6285 35.7343C12.4101 30.0405 17.5491 27.8928 17.5491 27.8928C15.8138 29.4276 14.1526 31.9201 14.1526 31.9201C16.3014 29.7676 18.3952 29.0181 20.0708 28.8505L21.003 27.4714C18.3952 25.7091 14.8242 25.9821 12.5152 28.2927C9.89554 30.9169 2.677 47.9145 2.677 47.9145C2.677 47.9145 14.0665 41.4736 18.4956 39.7353L3.9271 46.6455L11.4683 32.4277Z" fill="#DABC64"/>
<path d="M21.9877 28.2832L21.438 28.8339C21.4452 28.8339 21.4523 28.8339 21.4571 28.8339L21.9973 28.2928C21.9949 28.288 21.9901 28.2856 21.9877 28.2832Z" fill="#DABC64"/>
<path d="M33.5686 4.54266L33.4562 4.43012L34.1446 3.74055L34.4482 4.04463C37.6224 2.3566 41.2604 1.56885 44.9653 1.87294L46.8368 2.02618C46.8966 2.01181 46.9492 2.00224 47.0041 1.98787C47.0472 1.97829 47.0902 1.96871 47.1332 1.95914C47.1882 1.94716 47.2408 1.93519 47.2933 1.92562C47.3651 1.91125 47.4344 1.89449 47.5013 1.88252C47.5133 1.88012 47.5276 1.87773 47.5396 1.87533C48.1204 1.75801 48.4741 1.70533 48.5291 1.69576L44.4585 1.36294C37.6917 0.807447 31.1401 3.89139 27.244 9.46068L24.3829 13.5527L17.7643 23.02L18.2734 23.53L27.7531 9.97069C29.3163 7.73435 31.3074 5.90266 33.5686 4.54266Z" fill="#171717"/>
<path d="M35.8464 6.82241L33.5709 4.54297C31.3097 5.90297 29.3186 7.73705 27.753 9.971L18.2733 23.5303L21.0078 26.2695L25.64 17.9849C28.157 13.4763 31.6682 9.66691 35.8464 6.82241Z" fill="#DABC64"/>
<path d="M44.9676 1.87264C41.2628 1.56855 37.6248 2.3563 34.4506 4.04433L36.6783 6.27588C39.7258 4.33405 43.1032 2.89503 46.6934 2.0594C46.7412 2.04743 46.7914 2.03785 46.8392 2.02588L44.9676 1.87264Z" fill="#DABC64"/>
<path d="M48.5422 1.70371V1.69531C48.5422 1.69531 48.5394 1.69531 48.5338 1.69531L48.5422 1.70371Z" fill="#171717"/>
<path d="M47.5419 1.87294C47.5299 1.87533 47.518 1.87773 47.5036 1.88012C47.4391 1.89449 47.3674 1.90885 47.2957 1.92322C47.2431 1.93519 47.1905 1.94477 47.1355 1.95674C47.0949 1.96632 47.0495 1.97589 47.0064 1.98547C46.9061 2.00702 46.8033 2.03096 46.6909 2.0573C43.1008 2.89294 39.7234 4.33195 36.6758 6.27378L37.8183 7.41829L37.13 8.10787L35.844 6.8197C31.6659 9.6642 28.157 13.4736 25.6377 17.9798L21.0054 26.2643L21.4858 26.7456L25.86 20.2665C26.9045 18.7173 29.0485 18.4515 30.4421 19.6391L30.4516 19.6296C30.4827 19.6607 30.5066 19.6942 30.5377 19.7253C30.5687 19.7541 30.6022 19.7804 30.6333 19.8115L30.6237 19.8211C31.8093 21.217 31.544 23.3624 29.9975 24.4111L23.5295 28.7928L27.2559 32.5256L33.829 27.9141L36.7045 25.8956L40.7894 23.0296C41.7097 22.3855 42.5558 21.6672 43.335 20.889C43.3374 20.8866 43.3398 20.8842 43.3398 20.8842C47.2694 16.9479 49.3345 11.4408 48.8732 5.78294L48.541 1.70054L48.5338 1.69336C48.5338 1.69336 48.5338 1.69336 48.5314 1.69336C48.4764 1.70294 48.1251 1.75561 47.5419 1.87294Z" fill="#171717"/>
<path d="M22.5137 27.7774L22.9463 27.332L22.5017 27.7654L22.5137 27.7774Z" fill="#171717"/>
<path d="M48.5339 1.69531C48.4765 1.70489 48.1251 1.75517 47.5443 1.87489C48.1251 1.75517 48.4765 1.7025 48.5339 1.69531Z" fill="#171717"/>
<path d="M47.506 1.87988C47.4391 1.89425 47.3698 1.90862 47.2981 1.92298C47.3674 1.90862 47.4391 1.89425 47.506 1.87988Z" fill="#171717"/>
<path d="M34.147 3.74023L33.4586 4.42981L33.571 4.54235C33.8602 4.36756 34.1542 4.20235 34.453 4.04432L34.147 3.74023Z" fill="#171717"/>
<path d="M33.5685 4.54295L35.844 6.82239C36.1189 6.63563 36.3961 6.45366 36.6758 6.27647L34.4481 4.04492C34.1517 4.20295 33.8577 4.36816 33.5685 4.54295Z" fill="#171717"/>
<path d="M37.1324 8.11045L37.8208 7.42087L36.6782 6.27637C36.3986 6.45355 36.1213 6.63552 35.8464 6.82228L37.1324 8.11045Z" fill="#171717"/>
<path d="M22.5017 27.7657L21.4858 26.748L21.0006 27.4687C21.3472 27.7034 21.6794 27.974 21.9878 28.2804L22.5017 27.7657Z" fill="#DABC64"/>
<path d="M20.0708 28.8475L17.2455 33.0329L21.438 28.8332C21.0245 28.7996 20.5655 28.7996 20.0708 28.8475Z" fill="#DABC64"/>
<path d="M21.438 28.8331L21.9877 28.2824C21.6794 27.9759 21.3495 27.7054 21.0006 27.4707L20.0684 28.8499C20.5655 28.7996 21.0245 28.7996 21.438 28.8331Z" fill="#DABC64"/>
<path d="M22.9463 27.3325L30.4421 19.6442C29.0486 18.4565 26.9069 18.7223 25.86 20.2715L21.4858 26.7506L22.5017 27.7682L22.9463 27.3325Z" fill="#DABC64"/>
<path d="M30.6333 19.8137C30.6023 19.7826 30.5688 19.7587 30.5377 19.7275C30.5664 19.7587 30.5951 19.7898 30.6214 19.8233L30.6333 19.8137Z" fill="#DABC64"/>
<path d="M21.9973 28.2926C22.2268 28.5224 22.4371 28.7643 22.6259 29.0181C22.6905 29.1043 22.7455 29.1952 22.8052 29.2814L23.5271 28.793L22.5112 27.7754L21.9973 28.2926Z" fill="#171717"/>
<path d="M21.4572 28.834L17.2551 33.0433L22.8077 29.2817C22.7479 29.1931 22.6929 29.1045 22.6284 29.0184C22.3009 28.9393 21.9065 28.8699 21.4572 28.834Z" fill="#171717"/>
<path d="M22.6284 29.0175C22.4396 28.7637 22.2293 28.5219 21.9998 28.292L21.4596 28.8331C21.9066 28.869 22.301 28.9385 22.6284 29.0175Z" fill="#171717"/>
<path d="M30.4516 19.6318L30.442 19.6414C30.4731 19.6677 30.5066 19.6965 30.5376 19.7252C30.5089 19.6965 30.4826 19.663 30.4516 19.6318Z" fill="#171717"/>
<path d="M30.6214 19.8232L22.9463 27.332L22.5137 27.7773L23.5295 28.7949L29.9975 24.4132C31.5416 23.3645 31.8069 21.2192 30.6214 19.8232Z" fill="#171717"/>
<path d="M30.6214 19.8231C30.5951 19.792 30.5664 19.7585 30.5377 19.7274C30.5066 19.6986 30.4756 19.6699 30.4421 19.6436L22.9463 27.3319L30.6214 19.8231Z" fill="#171717"/>
<path d="M24.2656 13.5336C24.1198 13.5192 23.8402 13.5048 23.4434 13.5599C23.4434 13.5599 23.4434 13.5599 23.441 13.5599C23.4004 13.5647 23.3597 13.5719 23.3191 13.5791C23.3167 13.5791 23.3143 13.5791 23.3119 13.5791C23.2402 13.591 23.1661 13.6054 23.0872 13.6222C23.0681 13.627 23.049 13.6294 23.0299 13.6341C22.994 13.6413 22.9582 13.6509 22.9199 13.6581C22.8912 13.6653 22.8626 13.6725 22.8339 13.6796C22.7837 13.6916 22.7311 13.706 22.6785 13.7203C22.6403 13.7323 22.602 13.7419 22.5614 13.7539C22.5303 13.7634 22.4969 13.773 22.4658 13.785C22.418 13.7994 22.3702 13.8161 22.32 13.8329C22.2865 13.8448 22.2531 13.8568 22.2196 13.8688C22.1598 13.8903 22.1025 13.9119 22.0403 13.9358C22.0116 13.9478 21.983 13.9598 21.9543 13.9717C21.8921 13.9981 21.8276 14.0244 21.7654 14.0532C21.7487 14.0603 21.732 14.0675 21.7129 14.0747C21.634 14.1106 21.5503 14.1489 21.4691 14.1896C21.4451 14.2016 21.4189 14.2136 21.395 14.2279C21.3185 14.2663 21.242 14.3046 21.1655 14.3477C21.1511 14.3548 21.1392 14.362 21.1249 14.3692C21.034 14.4195 20.9408 14.4698 20.8476 14.5248C20.8261 14.5368 20.8046 14.5512 20.783 14.5632C20.697 14.6158 20.6086 14.6685 20.5201 14.726C20.5082 14.7332 20.4986 14.7403 20.4867 14.7451C20.3863 14.8098 20.2835 14.8768 20.1807 14.9486C20.164 14.9606 20.1449 14.9726 20.1281 14.9846C20.0301 15.0516 19.9321 15.1234 19.8317 15.1977C19.8222 15.2048 19.8126 15.2096 19.8054 15.2168C19.6955 15.2982 19.5831 15.3844 19.4708 15.4754C19.4565 15.4874 19.4421 15.497 19.4278 15.5089C19.3202 15.5951 19.2127 15.6837 19.1051 15.7747C19.0955 15.7819 19.0884 15.7891 19.0788 15.7963C18.9617 15.8968 18.8422 16.0022 18.7203 16.1123C18.7107 16.1219 18.6988 16.1315 18.6892 16.141C18.5745 16.2464 18.4573 16.3541 18.3402 16.4691C18.3307 16.4786 18.3235 16.4858 18.3139 16.493C18.1896 16.6151 18.063 16.742 17.9339 16.8713C17.9267 16.8785 17.9195 16.8857 17.9124 16.8929C17.7905 17.0198 17.6662 17.1491 17.5419 17.2855C17.5323 17.2975 17.5228 17.3071 17.5132 17.3167C17.3817 17.4603 17.2503 17.6088 17.1164 17.762C17.1116 17.7668 17.1092 17.7716 17.1045 17.774C16.9754 17.9224 16.8463 18.0781 16.7149 18.2361C16.7029 18.2505 16.691 18.2648 16.679 18.2792C16.5428 18.4444 16.4065 18.6168 16.2679 18.794C16.2655 18.7964 16.2655 18.7988 16.2631 18.8012C16.1316 18.9712 15.9978 19.1508 15.8615 19.3327C15.8448 19.3543 15.8305 19.3758 15.8137 19.395C15.6751 19.5841 15.5365 19.7781 15.3954 19.9792C15.3931 19.9816 15.393 19.9816 15.3907 19.984C15.2568 20.1755 15.1206 20.3743 14.9867 20.5778C14.9652 20.6113 14.9413 20.6448 14.9198 20.6784C14.7883 20.8771 14.6569 21.0806 14.523 21.2913C14.511 21.3105 14.4967 21.332 14.4848 21.3512C14.3724 21.5308 14.2577 21.7151 14.143 21.9019C14.0975 21.9785 14.0497 22.0551 14.0043 22.1317C13.9111 22.285 13.8203 22.443 13.727 22.601C13.6888 22.6681 13.6482 22.7351 13.6099 22.8022C13.488 23.0153 13.3661 23.2332 13.2418 23.4558C13.1964 23.5372 13.151 23.6234 13.1056 23.7048C13.0124 23.8748 12.9191 24.0472 12.8259 24.2244C12.7853 24.3034 12.7423 24.3801 12.7016 24.4615C12.5726 24.7081 12.4435 24.9595 12.3144 25.2157C12.2857 25.2732 12.257 25.333 12.226 25.3929C12.116 25.6108 12.0085 25.8334 11.8985 26.0609C11.8603 26.1375 11.8244 26.2141 11.7862 26.2932C11.6499 26.5781 11.5137 26.8654 11.3774 27.1623L17.7522 23.0129L24.3708 13.5455C24.3828 13.5503 24.3421 13.5432 24.2656 13.5336Z" fill="#171717"/>
<path d="M24.3828 13.5498L17.7618 23.0171L24.3828 13.5498Z" fill="#171717"/>
<path d="M27.2558 32.5284L23.1135 38.9118L35.2464 33.6155C38.3131 32.277 39.0708 28.2665 36.7068 25.8984L33.8314 27.9169L27.2558 32.5284Z" fill="#171717"/>
<path d="M36.7046 25.8955L33.8291 27.914L36.7046 25.8955Z" fill="#171717"/>
<path d="M11.9105 26.0653C12.0204 25.8379 12.1304 25.6176 12.2379 25.3973C12.2666 25.3398 12.2953 25.28 12.3264 25.2201C12.4555 24.9639 12.5845 24.7125 12.7136 24.4659C12.7542 24.3869 12.7973 24.3079 12.8379 24.2289C12.9311 24.0541 13.0243 23.8793 13.1176 23.7093C13.163 23.6255 13.2084 23.5417 13.2538 23.4603C13.3757 23.2376 13.5 23.0197 13.6219 22.8066C13.6601 22.7372 13.7008 22.6725 13.739 22.6055C13.8322 22.4451 13.9231 22.2894 14.0163 22.1362C14.0617 22.0596 14.1095 21.9829 14.1549 21.9063C14.2697 21.7196 14.382 21.5352 14.4967 21.3556C14.5087 21.3365 14.523 21.3149 14.535 21.2958C14.6688 21.0851 14.8003 20.8839 14.9317 20.6828C14.9413 20.6684 14.9509 20.6517 14.9604 20.6373L17.1857 15.5206C18.4119 12.7072 21.873 11.8332 24.2633 13.5308L24.2657 13.5332C24.3421 13.5404 24.3828 13.55 24.3828 13.55C22.0188 11.182 18.0152 11.941 16.6766 15.0129L11.3894 27.1667C11.5256 26.8698 11.6619 26.5825 11.7981 26.2976C11.834 26.221 11.8722 26.1444 11.9105 26.0653Z" fill="#171717"/>
<path d="M24.2657 13.5332C24.3422 13.5404 24.3829 13.55 24.3829 13.55C24.3829 13.55 24.3422 13.5428 24.2657 13.5332Z" fill="#171717"/>
<path d="M14.0163 22.1416C13.9231 22.2948 13.8322 22.4529 13.739 22.6109C13.8322 22.4505 13.9255 22.2948 14.0163 22.1416Z" fill="#171717"/>
<path d="M14.9318 20.6855C14.8004 20.8843 14.6689 21.0878 14.535 21.2985C14.6665 21.0878 14.8004 20.8843 14.9318 20.6855Z" fill="#171717"/>
<path d="M24.2633 13.5336C21.873 11.8384 18.412 12.7099 17.1858 15.5233L14.9604 20.6401C14.9724 20.6209 14.9844 20.6042 14.9963 20.585C15.1325 20.3815 15.2664 20.1828 15.4003 19.9912C15.4026 19.9888 15.4026 19.9888 15.405 19.9864C15.5461 19.7853 15.6847 19.5913 15.8233 19.4022C15.8401 19.3806 15.8544 19.3591 15.8711 19.3399C16.005 19.158 16.1388 18.9808 16.2727 18.8084C16.2751 18.806 16.2751 18.8036 16.2775 18.8012C16.4161 18.624 16.5524 18.4516 16.6886 18.2864C16.7005 18.2721 16.7125 18.2577 16.7245 18.2433C16.8559 18.0853 16.985 17.9297 17.1141 17.7812C17.1188 17.7764 17.1212 17.7716 17.126 17.7692C17.2599 17.616 17.3913 17.4675 17.5228 17.3239C17.5324 17.3119 17.5419 17.3023 17.5515 17.2928C17.6758 17.1563 17.8001 17.027 17.922 16.9001C17.9291 16.8929 17.9363 16.8857 17.9435 16.8785C18.0702 16.7468 18.1968 16.6199 18.3235 16.5002C18.3331 16.4906 18.3403 16.4835 18.3498 16.4763C18.4669 16.3637 18.5841 16.2536 18.6988 16.1482C18.7084 16.1387 18.7203 16.1291 18.7299 16.1195C18.8494 16.0094 18.9689 15.904 19.0884 15.8035C19.098 15.7963 19.1051 15.7891 19.1147 15.7819C19.2246 15.6885 19.3322 15.5999 19.4374 15.5161C19.4517 15.5042 19.4661 15.4946 19.4804 15.4826C19.5927 15.394 19.7051 15.3078 19.815 15.224C19.8246 15.2168 19.8342 15.2121 19.8413 15.2049C19.9417 15.1306 20.0397 15.0612 20.1377 14.9918C20.1544 14.9798 20.1736 14.9678 20.1903 14.9559C20.2931 14.884 20.3959 14.817 20.4963 14.7523C20.5082 14.7452 20.5178 14.738 20.5297 14.7332C20.6182 14.6757 20.7066 14.623 20.7926 14.5704C20.8142 14.5584 20.8357 14.544 20.8572 14.5321C20.9504 14.477 21.0436 14.4243 21.1344 14.3764C21.1488 14.3692 21.1607 14.3621 21.1751 14.3549C21.254 14.3142 21.3305 14.2735 21.4045 14.2351C21.4308 14.2232 21.4547 14.2112 21.4786 14.1968C21.5623 14.1561 21.6436 14.1178 21.7225 14.0819C21.7392 14.0747 21.7559 14.0675 21.775 14.0604C21.8396 14.0316 21.9017 14.0053 21.9639 13.979C21.9925 13.967 22.0212 13.955 22.0499 13.943C22.1097 13.9191 22.1694 13.8975 22.2292 13.876C22.2626 13.864 22.2961 13.8521 22.3296 13.8401C22.3798 13.8233 22.4276 13.8066 22.4754 13.7922C22.5088 13.7826 22.5399 13.7706 22.571 13.7611C22.6116 13.7491 22.6499 13.7371 22.6881 13.7275C22.7407 13.7132 22.7933 13.6988 22.8435 13.6868C22.8722 13.6797 22.9032 13.6725 22.9295 13.6653C22.9678 13.6557 23.0036 13.6485 23.0395 13.6413C23.0586 13.6366 23.0777 13.6342 23.0968 13.6294C23.1757 13.6126 23.2498 13.5983 23.3215 13.5863C23.3239 13.5863 23.3263 13.5863 23.3287 13.5863C23.3717 13.5791 23.4124 13.5743 23.4506 13.5671C23.4506 13.5671 23.4506 13.5671 23.453 13.5671C23.8354 13.5073 24.1175 13.5192 24.2633 13.5336Z" fill="#DABC64"/>
<path d="M20.1282 14.9893C20.0302 15.0563 19.9322 15.1281 19.8318 15.2024C19.9322 15.1281 20.0326 15.0563 20.1282 14.9893Z" fill="#DABC64"/>
<path d="M20.7855 14.5654C20.6995 14.6181 20.611 14.6708 20.5226 14.7282C20.611 14.6708 20.6971 14.6181 20.7855 14.5654Z" fill="#DABC64"/>
<path d="M20.4891 14.7471C20.3887 14.8117 20.2859 14.8788 20.1831 14.9506C20.2859 14.8812 20.3887 14.8117 20.4891 14.7471Z" fill="#DABC64"/>
<path d="M22.222 13.873C22.1622 13.8946 22.1049 13.9161 22.0427 13.9401C22.1049 13.9161 22.1646 13.8922 22.222 13.873Z" fill="#DABC64"/>
<path d="M22.9248 13.6602C22.8961 13.6673 22.8674 13.6745 22.8387 13.6817C22.865 13.6745 22.8961 13.6673 22.9248 13.6602Z" fill="#DABC64"/>
<path d="M21.1272 14.3711C21.0364 14.4214 20.9432 14.4717 20.85 14.5267C20.9432 14.4717 21.0364 14.419 21.1272 14.3711Z" fill="#DABC64"/>
<path d="M21.9566 13.9736C21.8945 14 21.83 14.0263 21.7678 14.055C21.8324 14.0263 21.8945 14 21.9566 13.9736Z" fill="#DABC64"/>
<path d="M22.681 13.7227C22.6427 13.7346 22.6045 13.7442 22.5638 13.7562C22.6045 13.7466 22.6427 13.7346 22.681 13.7227Z" fill="#DABC64"/>
<path d="M21.7152 14.0791C21.6364 14.115 21.5527 14.1533 21.4714 14.194C21.5551 14.1533 21.6364 14.115 21.7152 14.0791Z" fill="#DABC64"/>
<path d="M22.4682 13.7871C22.4204 13.8015 22.3726 13.8182 22.3224 13.835C22.3726 13.8182 22.4228 13.8039 22.4682 13.7871Z" fill="#DABC64"/>
<path d="M21.395 14.2305C21.3185 14.2688 21.242 14.3071 21.1655 14.3502C21.2444 14.3071 21.3209 14.2688 21.395 14.2305Z" fill="#DABC64"/>
<path d="M16.2727 18.8086C16.1412 18.9786 16.0073 19.1582 15.8711 19.3401C16.0073 19.1558 16.1388 18.9786 16.2727 18.8086Z" fill="#DABC64"/>
<path d="M17.1117 17.7812C16.9826 17.9297 16.8535 18.0853 16.722 18.2434C16.8535 18.0829 16.9826 17.9297 17.1117 17.7812Z" fill="#DABC64"/>
<path d="M15.8258 19.4023C15.6871 19.5915 15.5485 19.7854 15.4075 19.9866C15.5461 19.7854 15.6871 19.5915 15.8258 19.4023Z" fill="#DABC64"/>
<path d="M17.9387 16.8764C18.0654 16.7447 18.1921 16.6178 18.3188 16.498C18.1945 16.6178 18.0678 16.7447 17.9387 16.8764Z" fill="#DABC64"/>
<path d="M15.4026 19.9912C15.2688 20.1828 15.1325 20.3815 14.9987 20.585C15.1325 20.3839 15.2688 20.1828 15.4026 19.9912Z" fill="#DABC64"/>
<path d="M19.8055 15.2217C19.6955 15.3031 19.5832 15.3893 19.4708 15.4803C19.5856 15.3893 19.6955 15.3031 19.8055 15.2217Z" fill="#DABC64"/>
<path d="M18.6941 16.1455C18.5793 16.2509 18.4622 16.3586 18.3451 16.4735C18.4622 16.3586 18.5769 16.2485 18.6941 16.1455Z" fill="#DABC64"/>
<path d="M19.4302 15.5117C19.3227 15.5979 19.2151 15.6865 19.1075 15.7775C19.2175 15.6865 19.3251 15.5979 19.4302 15.5117Z" fill="#DABC64"/>
<path d="M17.9196 16.8975C17.7977 17.0244 17.6734 17.1537 17.5491 17.2901C17.6734 17.1537 17.7977 17.022 17.9196 16.8975Z" fill="#DABC64"/>
<path d="M61.336 16.7704V17.6084H65.1843V20.2303H61.4412V31.5053H58.1689V20.2327H55.8647V17.6108H58.1689V16.7201C58.1689 13.7822 59.9234 11.8691 63.1693 11.8691C64.2951 11.8691 65.3946 12.1062 66.1261 12.6305L65.2106 15.0943C64.7134 14.7543 64.0848 14.5173 63.4036 14.5173C62.0411 14.5149 61.336 15.2763 61.336 16.7704Z" fill="#DABC64"/>
<path d="M77.5634 17.3477V20.4675C77.2766 20.4148 77.04 20.3885 76.8033 20.3885C74.3175 20.3885 72.7471 21.8562 72.7471 24.7151V31.5055H69.4749V17.5033H72.5893V19.5481C73.5311 18.0827 75.2329 17.3477 77.5634 17.3477Z" fill="#DABC64"/>
<path d="M93.2959 25.5555H82.3271C82.7191 27.6003 84.421 28.9124 86.8566 28.9124C88.427 28.9124 89.658 28.4144 90.6523 27.392L92.4068 29.4105C91.1495 30.9046 89.1871 31.6923 86.7801 31.6923C82.0953 31.6923 79.0573 28.6778 79.0573 24.5068C79.0573 20.3382 82.1192 17.3477 86.283 17.3477C90.3655 17.3477 93.3509 20.2065 93.3509 24.5858C93.3461 24.8468 93.3222 25.2395 93.2959 25.5555ZM82.3008 23.3791H90.2316C89.9687 21.3606 88.4246 19.9695 86.2782 19.9695C84.1604 19.9695 82.6139 21.3343 82.3008 23.3791Z" fill="#DABC64"/>
<path d="M94.8903 30.1168L96.1475 27.6267C97.3785 28.4408 99.262 29.0154 101.016 29.0154C103.084 29.0154 103.949 28.4384 103.949 27.4686C103.949 24.7941 95.3109 27.3106 95.3109 21.727C95.3109 19.0788 97.694 17.3477 101.463 17.3477C103.323 17.3477 105.443 17.793 106.698 18.5544L105.441 21.0446C104.107 20.2568 102.771 19.9958 101.437 19.9958C99.4485 19.9958 98.5043 20.6519 98.5043 21.5689C98.5043 24.4015 107.143 21.8826 107.143 27.3633C107.143 29.9851 104.733 31.6899 100.809 31.6899C98.478 31.6899 96.1475 31.0099 94.8903 30.1168Z" fill="#DABC64"/>
<path d="M123.738 23.4839V31.5074H120.466V23.9029C120.466 21.4128 119.235 20.206 117.141 20.206C114.811 20.206 113.24 21.6211 113.24 24.4273V31.5074H109.968V12.0508H113.24V19.1309C114.313 17.9768 115.963 17.3471 117.899 17.3471C121.25 17.3471 123.738 19.2626 123.738 23.4839Z" fill="#DABC64"/>
<path d="M126.876 24.5068C126.876 20.3119 130.017 17.3477 134.442 17.3477C137.164 17.3477 139.337 18.4754 140.41 20.5992L137.898 22.067C137.061 20.7309 135.804 20.1275 134.415 20.1275C132.006 20.1275 130.175 21.806 130.175 24.5068C130.175 27.234 132.008 28.8861 134.415 28.8861C135.802 28.8861 137.059 28.2827 137.898 26.9467L140.41 28.4144C139.337 30.5119 137.164 31.6923 134.442 31.6923C130.017 31.6899 126.876 28.7017 126.876 24.5068Z" fill="#DABC64"/>
<path d="M141.875 24.5068C141.875 20.3119 145.016 17.3477 149.309 17.3477C153.654 17.3477 156.769 20.3119 156.769 24.5068C156.769 28.7017 153.654 31.6923 149.309 31.6923C145.016 31.6899 141.875 28.7017 141.875 24.5068ZM153.473 24.5068C153.473 21.8323 151.692 20.1275 149.311 20.1275C146.955 20.1275 145.176 21.8323 145.176 24.5068C145.176 27.1813 146.957 28.8861 149.311 28.8861C151.692 28.8861 153.473 27.1813 153.473 24.5068Z" fill="#DABC64"/>
<path d="M159.465 13.2314C159.465 12.13 160.354 11.2656 161.559 11.2656C162.764 11.2656 163.653 12.0797 163.653 13.1548C163.653 14.3089 162.79 15.1996 161.559 15.1996C160.354 15.1972 159.465 14.3328 159.465 13.2314ZM159.91 17.5053H163.182V31.5076H159.91V17.5053Z" fill="#DABC64"/>
<path d="M181.243 23.484V31.5075H177.97V23.903C177.97 21.4129 176.739 20.2061 174.646 20.2061C172.315 20.2061 170.745 21.6212 170.745 24.4274V31.5075H167.472V17.5052H170.587V19.3154C171.66 18.0296 173.362 17.3496 175.403 17.3496C178.757 17.3472 181.243 19.2627 181.243 23.484Z" fill="#DABC64"/>
<path d="M183.807 30.1168L185.065 27.6267C186.296 28.4408 188.179 29.0154 189.934 29.0154C192.001 29.0154 192.866 28.4384 192.866 27.4686C192.866 24.7941 184.228 27.3106 184.228 21.727C184.228 19.0788 186.611 17.3477 190.381 17.3477C192.24 17.3477 194.36 17.793 195.615 18.5544L194.358 21.0446C193.022 20.2568 191.688 19.9958 190.352 19.9958C188.363 19.9958 187.419 20.6519 187.419 21.5689C187.419 24.4015 196.057 21.8826 196.057 27.3633C196.057 29.9851 193.648 31.6899 189.723 31.6899C187.393 31.6899 185.065 31.0099 183.807 30.1168Z" fill="#DABC64"/>
</g>
<defs>
<clipPath id="clip0_6_2277">
<rect width="196" height="51" fill="white"/>
</clipPath>
</defs>
</svg>
