<svg width="18" height="18" viewBox="0 0 18 18" fill="none" xmlns="http://www.w3.org/2000/svg">
<path d="M15.0871 4.42506C15.0262 4.34422 14.9611 4.26661 14.8921 4.19256C14.9615 4.00764 15.0142 3.81687 15.0496 3.62256C15.1541 2.9117 15.0633 2.18582 14.7871 1.52256C14.7871 1.52256 13.9471 1.26006 12.0196 2.55756C11.2013 2.33161 10.356 2.21807 9.50707 2.22006C8.65571 2.21856 7.80804 2.33209 6.98707 2.55756C5.05957 1.24506 4.21957 1.52256 4.21957 1.52256C3.94663 2.17879 3.85594 2.89655 3.95707 3.60006C3.99266 3.80245 4.04792 4.0009 4.12207 4.19256C4.05457 4.26756 3.98707 4.35006 3.92707 4.42506C3.36741 5.12707 3.07033 6.00241 3.08707 6.90006C3.08529 7.11295 3.09531 7.32577 3.11707 7.53756C3.35707 10.8601 5.56957 11.6326 7.67707 11.8726C7.37878 12.1499 7.17652 12.5151 7.09957 12.9151C7.02986 13.1818 6.99706 13.4569 7.00207 13.7326V14.7151C6.16282 14.7901 5.30182 14.6678 5.03482 13.9193C4.74821 13.2029 4.27288 12.5775 3.65932 12.1096C3.61448 12.0853 3.57182 12.0572 3.53182 12.0256C3.47795 11.884 3.38249 11.762 3.258 11.6756C3.13351 11.5893 2.98582 11.5426 2.83432 11.5418H2.83057C2.63231 11.5418 2.44211 11.6203 2.30156 11.7601C2.16102 11.9 2.08156 12.0898 2.08057 12.2881C2.07832 12.8971 2.68807 13.2908 2.93782 13.4243C3.22961 13.7183 3.46433 14.0639 3.63007 14.4436C3.90307 15.2108 4.70182 16.3771 6.97957 16.2256L6.98107 16.2991L6.98407 16.5001C6.98407 16.699 7.06309 16.8897 7.20374 17.0304C7.3444 17.171 7.53516 17.2501 7.73407 17.2501H11.2696C11.4685 17.2501 11.6593 17.171 11.7999 17.0304C11.9406 16.8897 12.0196 16.699 12.0196 16.5001C12.0196 16.5001 12.0256 14.1301 12.0256 13.7326C12.0306 13.4569 11.9978 13.1818 11.9281 12.9151L11.9266 12.9106L11.9296 12.9151C11.9228 12.8888 11.9131 12.8678 11.9056 12.8423C11.822 12.4707 11.6286 12.1328 11.3506 11.8726L11.3596 11.8883L11.3446 11.8733C13.4521 11.6333 15.6496 10.8458 15.8896 7.53831C15.9113 7.32652 15.9214 7.1137 15.9196 6.90081C15.9329 6.00494 15.6391 5.13077 15.0871 4.42506Z" fill="#111111"/>
</svg>
