<svg width="186" height="25" viewBox="0 0 186 25" fill="none" xmlns="http://www.w3.org/2000/svg">
<path d="M0 13.2195C0 11.1279 0.464494 9.2597 1.39348 7.61477C2.34255 5.94965 3.62496 4.66021 5.24049 3.74638C6.87621 2.81227 8.70375 2.34521 10.7232 2.34521C13.086 2.34521 15.1558 2.95442 16.933 4.17282C18.7101 5.39128 19.952 7.0767 20.6589 9.2292H15.7819C15.2972 8.21385 14.6106 7.45238 13.7221 6.94471C12.8538 6.43703 11.844 6.18324 10.6929 6.18324C9.4611 6.18324 8.36047 6.47763 7.39111 7.0665C6.44204 7.63507 5.69484 8.44744 5.1496 9.50339C4.62454 10.5593 4.36202 11.798 4.36202 13.2195C4.36202 14.6207 4.62454 15.8594 5.1496 16.9357C5.69484 17.9916 6.44204 18.814 7.39111 19.4028C8.36047 19.9715 9.4611 20.2558 10.6929 20.2558C11.844 20.2558 12.8538 20.0019 13.7221 19.4942C14.6106 18.9663 15.2972 18.1946 15.7819 17.1792H20.6589C19.952 19.3521 18.7101 21.0478 16.933 22.2661C15.176 23.4643 13.1061 24.0632 10.7232 24.0632C8.70375 24.0632 6.87621 23.6063 5.24049 22.6926C3.62496 21.7584 2.34255 20.469 1.39348 18.8242C0.464494 17.1792 0 15.311 0 13.2195Z" fill="#111111"/>
<path d="M31.7268 24.1555C30.1112 24.1555 28.6573 23.8001 27.3648 23.0895C26.0724 22.3584 25.0525 21.333 24.3054 20.013C23.5784 18.6931 23.2148 17.17 23.2148 15.4439C23.2148 13.7179 23.5884 12.1949 24.3356 10.8749C25.103 9.55499 26.1431 8.53964 27.4556 7.82897C28.7683 7.0979 30.2325 6.73242 31.848 6.73242C33.4635 6.73242 34.9276 7.0979 36.2402 7.82897C37.5529 8.53964 38.5828 9.55499 39.3304 10.8749C40.0975 12.1949 40.4805 13.7179 40.4805 15.4439C40.4805 17.17 40.0871 18.6931 39.2994 20.013C38.5323 21.333 37.4822 22.3584 36.1493 23.0895C34.8367 23.8001 33.3625 24.1555 31.7268 24.1555ZM31.7268 20.4394C32.4942 20.4394 33.211 20.2567 33.8775 19.8911C34.564 19.5053 35.1094 18.9368 35.5132 18.1854C35.9171 17.434 36.119 16.5202 36.119 15.4439C36.119 13.8397 35.695 12.6112 34.8469 11.7583C34.0188 10.8851 32.999 10.4486 31.7873 10.4486C30.5757 10.4486 29.5559 10.8851 28.7279 11.7583C27.9201 12.6112 27.5163 13.8397 27.5163 15.4439C27.5163 17.0481 27.9101 18.2869 28.6977 19.1601C29.5054 20.013 30.5152 20.4394 31.7268 20.4394Z" fill="#111111"/>
<path d="M45.7413 4.99551C44.9939 4.99551 44.3686 4.76191 43.8634 4.29488C43.379 3.80751 43.1367 3.20846 43.1367 2.49773C43.1367 1.78699 43.379 1.1981 43.8634 0.731037C44.3686 0.243679 44.9939 0 45.7413 0C46.4887 0 47.1046 0.243679 47.5891 0.731037C48.0943 1.1981 48.3469 1.78699 48.3469 2.49773C48.3469 3.20846 48.0943 3.80751 47.5891 4.29488C47.1046 4.76191 46.4887 4.99551 45.7413 4.99551ZM47.8314 7.00581V23.8807H43.5912V7.00581H47.8314Z" fill="#111111"/>
<path d="M61.3226 6.76172C63.3216 6.76172 64.9376 7.40139 66.1694 8.68073C67.4013 9.93978 68.0173 11.7064 68.0173 13.9808V23.8803H63.7761V14.5596C63.7761 13.2193 63.4427 12.1938 62.7761 11.4831C62.1104 10.752 61.2015 10.3865 60.0504 10.3865C58.8785 10.3865 57.95 10.752 57.2636 11.4831C56.5969 12.1938 56.2636 13.2193 56.2636 14.5596V23.8803H52.0234V7.00541H56.2636V9.10722C56.8288 8.37615 57.5462 7.80757 58.4148 7.40139C59.303 6.97491 60.2719 6.76172 61.3226 6.76172Z" fill="#111111"/>
<path d="M95.0792 2.61963V23.8808H90.839V10.0519L85.1744 23.8808H81.9632L76.2686 10.0519V23.8808H72.0273V2.61963H76.8441L83.5688 18.4285L90.2934 2.61963H95.0792Z" fill="#F3DE38"/>
<path d="M106.719 24.1556C105.104 24.1556 103.65 23.8002 102.357 23.0896C101.065 22.3585 100.045 21.3331 99.2981 20.0131C98.5704 18.6932 98.207 17.1702 98.207 15.444C98.207 13.718 98.5807 12.195 99.3281 10.875C100.095 9.5551 101.136 8.53974 102.448 7.82908C103.761 7.09801 105.225 6.73242 106.841 6.73242C108.455 6.73242 109.92 7.09801 111.233 7.82908C112.546 8.53974 113.576 9.5551 114.322 10.875C115.09 12.195 115.473 13.718 115.473 15.444C115.473 17.1702 115.08 18.6932 114.292 20.0131C113.525 21.3331 112.474 22.3585 111.142 23.0896C109.829 23.8002 108.355 24.1556 106.719 24.1556ZM106.719 20.4395C107.487 20.4395 108.204 20.2567 108.87 19.8912C109.557 19.5054 110.101 18.9369 110.505 18.1855C110.91 17.4341 111.112 16.5203 111.112 15.444C111.112 13.8398 110.687 12.6113 109.84 11.7584C109.011 10.8852 107.992 10.4487 106.78 10.4487C105.568 10.4487 104.549 10.8852 103.721 11.7584C102.913 12.6113 102.508 13.8398 102.508 15.444C102.508 17.0483 102.903 18.287 103.69 19.1602C104.498 20.0131 105.507 20.4395 106.719 20.4395Z" fill="#F3DE38"/>
<path d="M126.036 24.1556C124.42 24.1556 122.965 23.8002 121.674 23.0896C120.381 22.3585 119.361 21.3331 118.615 20.0131C117.887 18.6932 117.523 17.1702 117.523 15.444C117.523 13.718 117.897 12.195 118.645 10.875C119.412 9.5551 120.452 8.53974 121.765 7.82908C123.077 7.09801 124.541 6.73242 126.157 6.73242C127.772 6.73242 129.237 7.09801 130.549 7.82908C131.862 8.53974 132.891 9.5551 133.638 10.875C134.407 12.195 134.79 13.718 134.79 15.444C134.79 17.1702 134.396 18.6932 133.608 20.0131C132.841 21.3331 131.791 22.3585 130.458 23.0896C129.146 23.8002 127.671 24.1556 126.036 24.1556ZM126.036 20.4395C126.803 20.4395 127.519 20.2567 128.186 19.8912C128.872 19.5054 129.418 18.9369 129.822 18.1855C130.225 17.4341 130.428 16.5203 130.428 15.444C130.428 13.8398 130.004 12.6113 129.156 11.7584C128.328 10.8852 127.308 10.4487 126.096 10.4487C124.885 10.4487 123.865 10.8852 123.037 11.7584C122.228 12.6113 121.825 13.8398 121.825 15.444C121.825 17.0483 122.219 18.287 123.006 19.1602C123.814 20.0131 124.824 20.4395 126.036 20.4395Z" fill="#F3DE38"/>
<path d="M147.19 6.76172C149.19 6.76172 150.805 7.40139 152.037 8.68073C153.269 9.93978 153.884 11.7064 153.884 13.9808V23.8803H149.644V14.5596C149.644 13.2192 149.311 12.1938 148.644 11.483C147.978 10.752 147.069 10.3865 145.918 10.3865C144.747 10.3865 143.818 10.752 143.131 11.483C142.465 12.1938 142.132 13.2192 142.132 14.5596V23.8803H137.891V7.00541H142.132V9.10711C142.697 8.37615 143.414 7.80757 144.282 7.40139C145.171 6.97491 146.14 6.76172 147.19 6.76172Z" fill="#F3DE38"/>
<path d="M173.519 15.0785C173.519 15.6877 173.478 16.236 173.398 16.7234H161.129C161.23 17.9418 161.654 18.8962 162.402 19.5866C163.148 20.2771 164.067 20.6223 165.157 20.6223C166.733 20.6223 167.854 19.942 168.52 18.5815H173.094C172.61 20.206 171.68 21.5463 170.307 22.6022C168.934 23.6379 167.247 24.1556 165.248 24.1556C163.634 24.1556 162.179 23.8002 160.887 23.0896C159.615 22.3585 158.615 21.3331 157.888 20.0131C157.181 18.6932 156.828 17.1702 156.828 15.444C156.828 13.6977 157.181 12.1645 157.888 10.8445C158.594 9.5247 159.584 8.50934 160.856 7.79857C162.128 7.08781 163.593 6.73242 165.248 6.73242C166.844 6.73242 168.268 7.07771 169.52 7.76808C170.792 8.45855 171.771 9.4434 172.458 10.7227C173.165 11.9818 173.519 13.4337 173.519 15.0785ZM169.126 13.8601C169.106 12.7635 168.712 11.8904 167.944 11.2405C167.177 10.5704 166.238 10.2354 165.127 10.2354C164.078 10.2354 163.188 10.5602 162.462 11.2101C161.755 11.8396 161.321 12.723 161.159 13.8601H169.126Z" fill="#F3DE38"/>
<path d="M180.85 9.62499C181.395 8.73153 182.102 8.03086 182.971 7.52318C183.859 7.01561 184.868 6.76172 186 6.76172V11.2393H184.879C183.546 11.2393 182.536 11.5541 181.85 12.1837C181.183 12.8131 180.85 13.9097 180.85 15.4733V23.8803H176.609V7.00541H180.85V9.62499Z" fill="#F3DE38"/>
</svg>
