<svg width="154" height="51" viewBox="0 0 154 51" fill="none" xmlns="http://www.w3.org/2000/svg">
<g clip-path="url(#clip0_6_2555)">
<path d="M25.7216 28.8813C27.5694 28.8813 29.0673 27.3931 29.0673 25.5573C29.0673 23.7216 27.5694 22.2334 25.7216 22.2334C23.8739 22.2334 22.376 23.7216 22.376 25.5573C22.376 27.3931 23.8739 28.8813 25.7216 28.8813Z" fill="#09B0E8"/>
<path fill-rule="evenodd" clip-rule="evenodd" d="M25.6667 47.43C37.8574 47.43 47.74 37.6116 47.74 25.5C47.74 13.3884 37.8574 3.57 25.6667 3.57C13.4759 3.57 3.59333 13.3884 3.59333 25.5C3.59333 37.6116 13.4759 47.43 25.6667 47.43ZM25.6667 51C39.842 51 51.3333 39.5833 51.3333 25.5C51.3333 11.4167 39.842 0 25.6667 0C11.4914 0 0 11.4167 0 25.5C0 39.5833 11.4914 51 25.6667 51Z" fill="url(#paint0_linear_6_2555)"/>
<path d="M70.236 7.90625H75.1949V43.0147H70.236V7.90625ZM72.7155 38.3304H92.9401V43.0147H72.7155V38.3304Z" fill="#E8F0FF"/>
<path d="M108.424 43.3767C106.723 43.3767 105.111 43.2157 103.587 42.8939C102.064 42.5718 100.638 42.089 99.3089 41.4451C97.9962 40.8012 96.7646 39.9963 95.614 39.0304L98.7012 35.2637C100.046 36.4227 101.529 37.2919 103.15 37.8715C104.77 38.451 106.528 38.7406 108.424 38.7406C110.985 38.7406 112.97 38.2738 114.38 37.3401C115.79 36.3905 116.495 35.0544 116.495 33.3319V33.3079C116.495 32.0844 116.171 31.1185 115.523 30.4103C114.89 29.686 114.064 29.1546 113.043 28.8166C112.038 28.4625 110.734 28.1407 109.129 27.8509C109.081 27.8347 109.024 27.8266 108.959 27.8266C108.911 27.8266 108.862 27.8186 108.813 27.8026L108.449 27.7301C106.083 27.3276 104.154 26.877 102.663 26.3779C101.189 25.8628 99.9247 24.9371 98.8713 23.6011C97.8179 22.2489 97.2912 20.3333 97.2912 17.8543V17.8302C97.2912 15.657 97.7773 13.8058 98.7497 12.2766C99.7383 10.7312 101.172 9.55613 103.052 8.75126C104.932 7.94639 107.193 7.54395 109.834 7.54395C111.098 7.54395 112.338 7.68077 113.554 7.95444C114.785 8.22809 115.992 8.63857 117.175 9.18589C118.375 9.71709 119.55 10.3932 120.7 11.2142L117.88 15.1258C116.535 14.1439 115.19 13.4115 113.845 12.9285C112.516 12.4295 111.179 12.18 109.834 12.18C107.42 12.18 105.54 12.6629 104.195 13.6288C102.866 14.5785 102.202 15.9307 102.202 17.6853V17.7094C102.202 18.9168 102.542 19.8665 103.223 20.5588C103.919 21.2509 104.778 21.766 105.799 22.1041C106.836 22.4259 108.27 22.764 110.102 23.1183C110.167 23.1343 110.223 23.1503 110.272 23.1665C110.337 23.1665 110.401 23.1745 110.466 23.1906C110.547 23.2068 110.637 23.2228 110.734 23.2388C110.831 23.255 110.92 23.2711 111.001 23.2873C113.14 23.7219 114.923 24.237 116.349 24.8326C117.791 25.4282 118.99 26.3941 119.947 27.7301C120.919 29.0501 121.405 30.861 121.405 33.1629V33.2113C121.405 35.3522 120.895 37.1873 119.874 38.7166C118.853 40.2297 117.37 41.3888 115.425 42.1935C113.497 42.9824 111.163 43.3767 108.424 43.3767Z" fill="#E8F0FF"/>
<path d="M130.156 23.4802H142.213C143.153 23.4802 143.988 23.2549 144.717 22.8041C145.446 22.3535 146.005 21.7176 146.394 20.8965C146.799 20.0595 147.002 19.1017 147.002 18.0232C147.002 16.9447 146.799 15.9949 146.394 15.1739C146.005 14.3369 145.446 13.693 144.717 13.2423C144.004 12.7915 143.169 12.5662 142.213 12.5662H130.156V7.88184H142.019C144.061 7.88184 145.851 8.30036 147.391 9.13742C148.947 9.97449 150.146 11.1657 150.988 12.711C151.847 14.2403 152.277 16.011 152.277 18.0232C152.277 20.0353 151.847 21.8141 150.988 23.3594C150.13 24.8887 148.922 26.0719 147.366 26.909C145.827 27.746 144.044 28.1645 142.019 28.1645H130.156V23.4802ZM127.993 7.88184H132.952V43.0145H127.993V7.88184ZM139.782 27.0781L144.717 25.9673L153.76 43.0145H147.877L139.782 27.0781Z" fill="#E8F0FF"/>
</g>
<defs>
<linearGradient id="paint0_linear_6_2555" x1="4.01042" y1="11.1563" x2="44.2248" y2="44.1645" gradientUnits="userSpaceOnUse">
<stop stop-color="#08AEEA"/>
<stop offset="1" stop-color="#2AF598"/>
</linearGradient>
<clipPath id="clip0_6_2555">
<rect width="154" height="51" fill="white"/>
</clipPath>
</defs>
</svg>
