<svg width="18" height="18" viewBox="0 0 18 18" fill="none" xmlns="http://www.w3.org/2000/svg">
<path d="M16.5 4.81253H15.9067C15.7767 4.83746 15.6569 4.9002 15.5623 4.99289C15.4677 5.08557 15.4026 5.2041 15.375 5.33363V12.7063C15.4041 12.8311 15.4706 12.944 15.5656 13.03C15.6607 13.116 15.7797 13.171 15.9067 13.1875H16.5V14.9376H11.125V13.1875H12.2501V5.43752H12.1949L9.56779 14.9376H7.53384L4.94063 5.43752H4.875V13.1875H6V14.9376H1.5V13.1875H2.07626C2.20633 13.1741 2.329 13.1205 2.4273 13.0343C2.52561 12.9481 2.5947 12.8335 2.625 12.7063V5.33357C2.59646 5.20164 2.52884 5.08137 2.43096 4.98842C2.33308 4.89548 2.20948 4.83416 2.07626 4.81248H1.5V3.0625H7.127L8.97445 9.93753H9.02545L10.8898 3.0625H16.5V4.81253Z" fill="#6563FF"/>
</svg>
