<svg width="20" height="20" viewBox="0 0 20 20" fill="none" xmlns="http://www.w3.org/2000/svg">
<g id="person (3) 1">
<g id="Layer 2">
<path id="person" d="M9.99935 9.16667C10.6586 9.16667 11.3031 8.97117 11.8512 8.6049C12.3994 8.23863 12.8267 7.71803 13.0789 7.10895C13.3312 6.49986 13.3973 5.82964 13.2686 5.18303C13.14 4.53643 12.8225 3.94249 12.3564 3.47631C11.8902 3.01014 11.2963 2.69267 10.6497 2.56405C10.003 2.43543 9.33282 2.50144 8.72374 2.75374C8.11465 3.00603 7.59406 3.43327 7.22778 3.98143C6.86151 4.5296 6.66602 5.17406 6.66602 5.83334C6.66602 6.71739 7.01721 7.56524 7.64233 8.19036C8.26745 8.81548 9.11529 9.16667 9.99935 9.16667ZM14.9993 17.5C15.2204 17.5 15.4323 17.4122 15.5886 17.2559C15.7449 17.0996 15.8327 16.8877 15.8327 16.6667C15.8327 15.1196 15.2181 13.6358 14.1241 12.5419C13.0302 11.4479 11.5464 10.8333 9.99935 10.8333C8.45225 10.8333 6.96852 11.4479 5.87456 12.5419C4.7806 13.6358 4.16602 15.1196 4.16602 16.6667C4.16602 16.8877 4.25381 17.0996 4.41009 17.2559C4.56637 17.4122 4.77834 17.5 4.99935 17.5H14.9993Z" fill="#6C6C67"/>
</g>
</g>
</svg>
