<svg width="20" height="20" viewBox="0 0 20 20" fill="none" xmlns="http://www.w3.org/2000/svg">
<path d="M15 6.25001C15 5.09429 14.6185 3.97087 13.9147 3.05399C13.211 2.13711 12.2243 1.478 11.1077 1.17889C9.99103 0.879773 8.80687 0.957367 7.73885 1.39964C6.67083 1.84191 5.77862 2.62414 5.2006 3.62501C5.00188 3.9696 4.94816 4.37897 5.05127 4.76314C5.15438 5.14731 5.40586 5.47481 5.75044 5.67366C6.09501 5.8725 6.50447 5.92641 6.88879 5.82353C7.2731 5.72064 7.60083 5.46939 7.7999 5.12501C7.99771 4.78328 8.28184 4.4995 8.62384 4.30206C8.96584 4.10463 9.35372 4.00047 9.74865 4.00001C10.3455 4.00001 10.918 4.23706 11.34 4.65902C11.7621 5.08097 11.9992 5.65327 11.9992 6.25001C11.9992 6.84674 11.7621 7.41904 11.34 7.841C10.918 8.26295 10.3455 8.50001 9.74865 8.50001H9.74499C9.6486 8.50966 9.55345 8.52911 9.46101 8.55806C9.35991 8.56855 9.2601 8.58898 9.16301 8.61903C9.0804 8.6639 9.00226 8.71656 8.92968 8.77631C8.84351 8.82317 8.7621 8.87831 8.68661 8.94093C8.61915 9.02143 8.56028 9.10875 8.51098 9.20148C8.45631 9.26913 8.40776 9.3415 8.36592 9.41774C8.33331 9.52112 8.31176 9.62767 8.30163 9.7356C8.2755 9.82185 8.25763 9.91038 8.24826 10V11.5L8.25174 11.517L8.25339 12.2537C8.25442 12.6508 8.41295 13.0314 8.69421 13.3119C8.97546 13.5924 9.3565 13.7499 9.75378 13.75H9.75744C10.1554 13.749 10.5366 13.59 10.8173 13.3081C11.098 13.0261 11.2551 12.6442 11.2542 12.2463L11.2519 11.2543C12.3315 10.9334 13.279 10.2734 13.9541 9.37211C14.6292 8.47077 14.9959 7.37602 15 6.25001ZM8.69441 16.435C8.48375 16.6439 8.33977 16.9105 8.28066 17.2012C8.22155 17.4919 8.24998 17.7935 8.36234 18.0681C8.47471 18.3426 8.66596 18.5777 8.91193 18.7435C9.15791 18.9094 9.44755 18.9987 9.74425 19C10.1422 18.9968 10.5237 18.8411 10.8102 18.565C11.0887 18.2804 11.2446 17.8982 11.2446 17.5001C11.2446 17.102 11.0887 16.7197 10.8102 16.4351C10.523 16.1675 10.145 16.0187 9.75233 16.0187C9.35971 16.0187 8.98167 16.1674 8.69441 16.435Z" fill="#6C6C67"/>
</svg>
