<svg width="18" height="18" viewBox="0 0 18 18" fill="none" xmlns="http://www.w3.org/2000/svg">
<g clip-path="url(#clip0_1385_3468)">
<path d="M6.75 10.6876L6.1875 10.6865V10.6876H6.75ZM11.8125 10.6876H12.375L11.8125 10.6865V10.6876Z" fill="#FAFAFA"/>
<path d="M18.0788 8.99993C18.0788 7.75906 17.0696 6.74993 15.8288 6.74993C15.3326 6.74993 14.8613 6.91193 14.4765 7.20556C13.221 6.33368 11.5763 5.81393 9.82688 5.68231L10.7708 3.46831L13.5169 4.10956C13.6046 4.95893 14.3156 5.62493 15.1875 5.62493C16.1179 5.62493 16.875 4.86781 16.875 3.93743C16.875 3.00706 16.1179 2.24993 15.1875 2.24993C14.598 2.24993 14.0794 2.55481 13.7779 3.01493L10.5683 2.26456C10.4391 2.23408 10.3034 2.25022 10.185 2.31013C10.0667 2.37003 9.97329 2.46984 9.92138 2.59193L8.61638 5.65193C6.72751 5.71718 4.92751 6.24931 3.56851 7.17631C3.23237 6.93422 2.83599 6.78952 2.42295 6.75813C2.00991 6.72673 1.59621 6.80986 1.22735 6.99836C0.858492 7.18686 0.548762 7.47343 0.332226 7.82656C0.11569 8.17969 0.000735613 8.5857 5.28616e-06 8.99993C-0.000858271 9.39637 0.104097 9.78586 0.304037 10.1282C0.503977 10.4705 0.791657 10.7533 1.13738 10.9473C1.1287 11.0479 1.12457 11.1489 1.12501 11.2499C1.12501 14.3516 4.65751 16.8749 9.00001 16.8749C13.3414 16.8749 16.875 14.3516 16.875 11.2499C16.875 11.1622 16.8716 11.0756 16.866 10.9889C17.232 10.8016 17.5391 10.5167 17.7531 10.1656C17.9672 9.81455 18.0799 9.4111 18.0788 8.99993Z" fill="#FF9800"/>
<path d="M15.1875 4.5C15.4982 4.5 15.75 4.24816 15.75 3.9375C15.75 3.62684 15.4982 3.375 15.1875 3.375C14.8768 3.375 14.625 3.62684 14.625 3.9375C14.625 4.24816 14.8768 4.5 15.1875 4.5Z" fill="#FAFAFA"/>
<path d="M6.1875 11.8125C6.80882 11.8125 7.3125 11.3088 7.3125 10.6875C7.3125 10.0662 6.80882 9.5625 6.1875 9.5625C5.56618 9.5625 5.0625 10.0662 5.0625 10.6875C5.0625 11.3088 5.56618 11.8125 6.1875 11.8125Z" fill="#FAFAFA"/>
<path d="M11.5985 14.4191C10.843 14.9664 9.93384 15.2611 9.00089 15.2611C8.06793 15.2611 7.15882 14.9664 6.40326 14.4191C6.34158 14.3765 6.28902 14.3221 6.24867 14.259C6.20832 14.1958 6.181 14.1252 6.1683 14.0514C6.15559 13.9776 6.15778 13.9019 6.17471 13.8289C6.19165 13.7559 6.223 13.6871 6.26692 13.6263C6.31084 13.5656 6.36644 13.5143 6.43047 13.4754C6.4945 13.4365 6.56567 13.4107 6.63978 13.3997C6.71389 13.3887 6.78946 13.3925 6.86206 13.4111C6.93465 13.4297 7.0028 13.4626 7.06251 13.5078C7.62604 13.9169 8.30454 14.1372 9.00089 14.1372C9.69724 14.1372 10.3757 13.9169 10.9393 13.5078C10.999 13.4626 11.0671 13.4297 11.1397 13.4111C11.2123 13.3925 11.2879 13.3887 11.362 13.3997C11.4361 13.4107 11.5073 13.4365 11.5713 13.4754C11.6353 13.5143 11.6909 13.5656 11.7349 13.6263C11.7788 13.6871 11.8101 13.7559 11.8271 13.8289C11.844 13.9019 11.8462 13.9776 11.8335 14.0514C11.8208 14.1252 11.7934 14.1958 11.7531 14.259C11.7128 14.3221 11.6602 14.3765 11.5985 14.4191Z" fill="#FAFAFA"/>
<path d="M11.8125 11.8125C12.4338 11.8125 12.9375 11.3088 12.9375 10.6875C12.9375 10.0662 12.4338 9.5625 11.8125 9.5625C11.1912 9.5625 10.6875 10.0662 10.6875 10.6875C10.6875 11.3088 11.1912 11.8125 11.8125 11.8125Z" fill="#FAFAFA"/>
</g>
<defs>
<clipPath id="clip0_1385_3468">
<rect width="18" height="18" fill="white"/>
</clipPath>
</defs>
</svg>
