<svg width="188" height="31" viewBox="0 0 188 31" fill="none" xmlns="http://www.w3.org/2000/svg">
<g clip-path="url(#clip0_6_2460)">
<path d="M12.7715 1.71484C8.98241 8.73097 0.453979 6.17911 0.453979 6.17911C0.453979 26.5819 12.7715 30.087 12.7715 30.087C12.7715 30.087 25.089 26.5819 25.089 6.17911C25.089 6.17911 16.5605 8.73097 12.7715 1.71484Z" fill="white"/>
<path d="M12.7717 30.5629L12.6462 30.5268C12.5207 30.4906 0 26.6899 0 6.17846V5.57518L0.597648 5.75013C0.932331 5.84665 8.82127 8.10291 12.3833 1.52717L12.7837 0.785156L13.1841 1.52717C16.77 8.16324 24.8861 5.79236 24.9697 5.75013L25.5674 5.57518V6.17846C25.5674 16.8626 22.1548 22.9074 19.2921 26.0866C16.1603 29.5676 13.0526 30.4845 12.9211 30.5208L12.7717 30.5629ZM0.914383 6.76366C1.12953 24.9887 11.5107 29.1634 12.7717 29.6038C14.0268 29.1634 24.4139 24.9525 24.6291 6.76366C22.6569 7.17389 16.2261 8.03052 12.7717 2.61911C9.31733 8.03052 2.88662 7.17389 0.914383 6.76366Z" fill="#2537D7"/>
<path d="M12.4313 28.1019L11.1583 29.3869C11.4572 29.5438 11.7201 29.6705 11.9472 29.773L12.7241 28.9827L12.766 29.025L12.8078 28.9827L13.5908 29.773C13.8178 29.6765 14.0868 29.5437 14.3797 29.3929L13.1067 28.1019C13.0171 28.0117 12.8956 27.9609 12.769 27.9609C12.6424 27.9609 12.5209 28.0117 12.4313 28.1019Z" fill="#2537D7"/>
<path d="M12.7718 29.0247L12.7299 28.9824L11.953 29.7727C12.2219 29.8929 12.4973 29.9977 12.7778 30.0864C13.0573 30.0004 13.3308 29.8956 13.5966 29.7727L12.8136 28.9824L12.7718 29.0247Z" fill="#2537D7"/>
<path d="M13.1181 6.81858L15.2458 4.67696C14.8133 4.33948 14.4131 3.96179 14.0505 3.54883L13.1241 4.47787C13.078 4.52493 13.0231 4.56228 12.9625 4.58777C12.902 4.61328 12.837 4.6264 12.7715 4.6264C12.7059 4.6264 12.641 4.61328 12.5805 4.58777C12.52 4.56228 12.465 4.52493 12.4188 4.47787L11.4985 3.55486C11.1359 3.96782 10.7357 4.34552 10.3032 4.68299L12.4249 6.81858C12.5175 6.90997 12.642 6.96112 12.7715 6.96112C12.9011 6.96112 13.0254 6.90997 13.1181 6.81858Z" fill="#2537D7"/>
<path d="M13.1065 10.6069L17.6785 5.99788C17.1313 5.80413 16.6047 5.55556 16.1066 5.25586L12.8076 8.58593L12.7658 8.62213L12.7239 8.58593L9.43091 5.26186C8.93157 5.55913 8.40527 5.80763 7.85913 6.00392L12.4311 10.6069C12.4751 10.6524 12.5276 10.6884 12.5856 10.7131C12.6436 10.7377 12.7059 10.7503 12.7688 10.7503C12.8317 10.7503 12.894 10.7377 12.952 10.7131C13.0099 10.6884 13.0624 10.6524 13.1065 10.6069Z" fill="#2537D7"/>
<path d="M13.1061 3.24079L13.4826 2.86073C13.2203 2.49942 12.9827 2.12049 12.7715 1.72656C12.5604 2.12384 12.3207 2.50493 12.0543 2.86676L12.4308 3.24079C12.5204 3.33105 12.6418 3.38175 12.7684 3.38175C12.8951 3.38175 13.0165 3.33105 13.1061 3.24079Z" fill="#2537D7"/>
<path d="M25.0056 8.83923C25.0056 8.62205 25.0056 8.40485 25.0415 8.18164C24.96 8.26956 24.9117 8.38364 24.9052 8.50386C24.8986 8.62409 24.9341 8.74281 25.0056 8.83923Z" fill="#2537D7"/>
<path d="M13.9672 27.4383L15.3418 28.8258C15.7662 28.5544 16.2203 28.2226 16.7044 27.8606L16.2861 27.4383C16.2394 27.3917 16.2024 27.3363 16.1772 27.2752C16.152 27.2141 16.139 27.1485 16.139 27.0824C16.139 27.0162 16.152 26.9506 16.1772 26.8895C16.2024 26.8284 16.2394 26.773 16.2861 26.7264L22.2626 20.7238C22.833 19.504 23.3086 18.2414 23.6849 16.9473L13.9672 26.7264C13.8759 26.822 13.825 26.9496 13.825 27.0824C13.825 27.2151 13.8759 27.3427 13.9672 27.4383Z" fill="#2537D7"/>
<path d="M17.6484 27.0704C18.4543 26.3331 19.1943 25.5255 19.8598 24.6572L17.792 26.7687C17.7125 26.8505 17.662 26.9566 17.6484 27.0704Z" fill="#2537D7"/>
<path d="M11.6842 26.7268L1.823 16.7666C2.18296 18.0413 2.64052 19.2859 3.1916 20.4889L9.36531 26.7268C9.41193 26.7733 9.44893 26.8288 9.4742 26.8899C9.49946 26.9509 9.51246 27.0165 9.51246 27.0827C9.51246 27.1489 9.49946 27.2144 9.4742 27.2756C9.44893 27.3367 9.41193 27.3921 9.36531 27.4387L8.89318 27.9152C9.33214 28.2593 9.78898 28.5796 10.2618 28.8745L11.6842 27.4387C11.7308 27.3921 11.7678 27.3367 11.793 27.2756C11.8183 27.2144 11.8314 27.1489 11.8314 27.0827C11.8314 27.0165 11.8183 26.9509 11.793 26.8899C11.7678 26.8288 11.7308 26.7733 11.6842 26.7268Z" fill="#2537D7"/>
<path d="M4.64947 12.9535C4.74077 12.8579 4.79181 12.7304 4.79181 12.5976C4.79181 12.4648 4.74077 12.3372 4.64947 12.2416L0.465942 8.04883C0.501801 8.92359 0.567572 9.75613 0.645266 10.5645L2.3067 12.2416C2.35332 12.2882 2.39033 12.3436 2.41559 12.4048C2.44085 12.4659 2.45385 12.5314 2.45385 12.5976C2.45385 12.6637 2.44085 12.7294 2.41559 12.7904C2.39033 12.8515 2.35332 12.9069 2.3067 12.9535L1.18313 14.0998C1.3146 14.7694 1.45807 15.4149 1.61943 16.0362C1.63965 15.9926 1.66577 15.952 1.69709 15.9156L4.64947 12.9535Z" fill="#2537D7"/>
<path d="M7.88311 26.7683L5.30127 24.1621C6.09202 25.2661 7.00206 26.2778 8.01458 27.1785C8.02432 27.1046 8.01759 27.0294 7.99484 26.9584C7.9721 26.8874 7.93391 26.8225 7.88311 26.7683Z" fill="#2537D7"/>
<path d="M7.10631 16.8022L12.533 22.2799C12.579 22.327 12.634 22.3643 12.6945 22.3899C12.7551 22.4154 12.82 22.4285 12.8856 22.4285C12.9512 22.4285 13.016 22.4154 13.0766 22.3899C13.1371 22.3643 13.1921 22.327 13.2382 22.2799L22.7049 12.7301C22.7972 12.6362 22.8491 12.5093 22.8491 12.3772C22.8491 12.2449 22.7972 12.118 22.7049 12.0242L20.4458 9.61109C20.3991 9.56294 20.3432 9.52468 20.2817 9.49857C20.2201 9.47245 20.154 9.45898 20.0872 9.45898C20.0204 9.45898 19.9544 9.47245 19.8928 9.49857C19.8311 9.52468 19.7754 9.56294 19.7287 9.61109L13.2382 16.1688C13.1916 16.216 13.1361 16.2535 13.0751 16.279C13.0141 16.3047 12.9486 16.3178 12.8826 16.3178C12.8165 16.3178 12.7511 16.3047 12.69 16.279C12.629 16.2535 12.5736 16.216 12.5269 16.1688L10.1364 13.7556C10.0903 13.7085 10.0353 13.6712 9.97479 13.6457C9.91427 13.6202 9.84935 13.607 9.78377 13.607C9.71818 13.607 9.65326 13.6202 9.59273 13.6457C9.53221 13.6712 9.47727 13.7085 9.43113 13.7556L7.1123 16.0963C7.01917 16.1893 6.96623 16.3158 6.96511 16.448C6.96399 16.5803 7.01477 16.7076 7.10631 16.8022ZM9.42519 16.0903C9.47132 16.0432 9.52623 16.0059 9.58675 15.9804C9.64727 15.9549 9.7122 15.9418 9.77778 15.9418C9.84337 15.9418 9.90829 15.9549 9.96881 15.9804C10.0293 16.0059 10.0843 16.0432 10.1304 16.0903L12.521 18.5034C12.6166 18.596 12.7441 18.6476 12.8766 18.6476C13.0091 18.6476 13.1365 18.596 13.2322 18.5034L19.6987 11.9759C19.7923 11.8816 19.9191 11.8285 20.0513 11.8285C20.1836 11.8285 20.3104 11.8816 20.4039 11.9759C20.4975 12.0704 20.55 12.1984 20.55 12.3319C20.55 12.4654 20.4975 12.5934 20.4039 12.6878L13.2322 19.9271C13.1375 20.0193 13.0111 20.0709 12.8795 20.0709C12.748 20.0709 12.6216 20.0193 12.5269 19.9271L9.41921 16.7841C9.33125 16.6901 9.28276 16.5653 9.28387 16.436C9.28499 16.3066 9.33563 16.1827 9.42519 16.0903Z" fill="#2537D7"/>
<path d="M22.7164 6.58307L21.2522 8.06716C21.2055 8.11372 21.1685 8.16914 21.1432 8.23024C21.118 8.29133 21.105 8.3569 21.105 8.4231C21.105 8.48931 21.118 8.55484 21.1432 8.61594C21.1685 8.67703 21.2055 8.73246 21.2522 8.77902L24.2762 11.8377C24.3229 11.8842 24.3599 11.9397 24.3851 12.0007C24.4103 12.0618 24.4233 12.1274 24.4233 12.1936C24.4233 12.2598 24.4103 12.3253 24.3851 12.3864C24.3599 12.4476 24.3229 12.5029 24.2762 12.5495L13.2376 23.6921C13.143 23.7843 13.0166 23.8357 12.885 23.8357C12.7535 23.8357 12.6271 23.7843 12.5324 23.6921L5.56386 16.6518C5.51724 16.6053 5.48023 16.5498 5.45497 16.4887C5.42972 16.4276 5.41671 16.3621 5.41671 16.2959C5.41671 16.2297 5.42972 16.1641 5.45497 16.103C5.48023 16.0419 5.51724 15.9865 5.56386 15.9399L8.5521 12.9235C8.59891 12.8765 8.63605 12.8205 8.66138 12.7589C8.68672 12.6973 8.69976 12.6313 8.69976 12.5646C8.69976 12.4979 8.68672 12.4318 8.66138 12.3703C8.63605 12.3087 8.59891 12.2527 8.5521 12.2056L2.98202 6.58912C2.12988 6.53382 1.28517 6.3944 0.459961 6.17285C0.459961 6.24525 0.459961 6.31163 0.459961 6.38402L6.22724 12.2056C6.27404 12.2527 6.31119 12.3087 6.33653 12.3703C6.36187 12.4318 6.37491 12.4979 6.37491 12.5646C6.37491 12.6313 6.36187 12.6973 6.33653 12.7589C6.31119 12.8205 6.27404 12.8765 6.22724 12.9235L3.239 15.9399C3.19238 15.9865 3.15538 16.0419 3.13012 16.103C3.10486 16.1641 3.09185 16.2297 3.09185 16.2959C3.09185 16.3621 3.10486 16.4276 3.13012 16.4887C3.15538 16.5498 3.19238 16.6053 3.239 16.6518L12.5265 26.0268C12.5726 26.0738 12.6276 26.1112 12.688 26.1366C12.7485 26.1622 12.8135 26.1753 12.8791 26.1753C12.9447 26.1753 13.0096 26.1622 13.0701 26.1366C13.1307 26.1112 13.1855 26.0738 13.2317 26.0268L24.1746 14.9868C24.5249 13.3962 24.7705 11.7838 24.9098 10.1605L23.559 8.79714C23.4677 8.70156 23.4167 8.57396 23.4167 8.44118C23.4167 8.30842 23.4677 8.18085 23.559 8.08527L25.077 6.55292C25.077 6.43227 25.077 6.31766 25.077 6.19701C24.3034 6.39747 23.5133 6.52667 22.7164 6.58307Z" fill="#2537D7"/>
<path d="M13.2381 14.5036L21.0493 6.61867C20.3543 6.59534 19.6626 6.51261 18.9815 6.37134L13.2381 12.1688C13.1434 12.261 13.017 12.3125 12.8854 12.3125C12.7539 12.3125 12.6275 12.261 12.5328 12.1688L6.74756 6.3291C6.07963 6.48276 5.39976 6.57764 4.71558 6.61267L12.5328 14.5036C12.579 14.5506 12.6338 14.588 12.6944 14.6134C12.7549 14.6389 12.8199 14.652 12.8854 14.652C12.951 14.652 13.0159 14.6389 13.0764 14.6134C13.137 14.588 13.1919 14.5506 13.2381 14.5036Z" fill="#2537D7"/>
<path d="M53.6975 17.4214C53.113 16.8551 52.4345 16.3902 51.6909 16.0466C50.7577 15.6136 49.7738 15.2947 48.761 15.0972L47.0553 14.7371C46.6214 14.655 46.1943 14.5411 45.7777 14.3966C45.4665 14.2941 45.1697 14.1533 44.8948 13.9776C44.6891 13.8426 44.5175 13.6635 44.3931 13.4538C44.288 13.2518 44.2418 13.0253 44.2593 12.7992C44.2611 12.5121 44.3547 12.2328 44.5269 12.0004C44.7425 11.7447 45.0278 11.554 45.3496 11.4505C45.8084 11.3002 46.291 11.2315 46.7743 11.2475C47.5021 11.1933 48.2262 11.3901 48.8212 11.804C49.0492 11.998 49.2341 12.2359 49.3642 12.5028C49.4941 12.7699 49.5667 13.0601 49.5771 13.3556H54.9751C54.9982 12.1183 54.6468 10.9018 53.9651 9.85951C53.2651 8.83777 52.281 8.03354 51.129 7.54186C49.7553 6.96246 48.2698 6.68102 46.7743 6.71692C45.2766 6.6876 43.789 6.96409 42.4064 7.52875C41.222 8.00773 40.1931 8.79303 39.4299 9.80057C38.7086 10.788 38.3352 11.9785 38.3663 13.192C38.3277 13.8948 38.4494 14.5971 38.7225 15.2482C38.9955 15.8993 39.413 16.4829 39.9448 16.9566C41.1995 17.967 42.6994 18.6435 44.2994 18.9207L46.3664 19.3593C46.9933 19.4865 47.6086 19.6639 48.2059 19.8896C48.5802 20.0283 48.9151 20.2528 49.1824 20.5443C49.3799 20.7738 49.4908 21.0628 49.4968 21.3627C49.4901 21.6847 49.3749 21.9955 49.169 22.2467C48.9253 22.5283 48.6054 22.7371 48.246 22.849C47.7596 23.0108 47.2476 23.0861 46.7342 23.0716C46.1003 23.0863 45.47 22.9749 44.8814 22.7442C44.3938 22.5434 43.9758 22.2092 43.6774 21.7818C43.3804 21.3081 43.2165 20.766 43.2023 20.2105H37.8512C37.794 21.6832 38.1852 23.1394 38.975 24.394C39.7356 25.5006 40.8299 26.3474 42.1055 26.8165C43.6145 27.369 45.2171 27.6356 46.8279 27.6021C48.3683 27.6385 49.902 27.3919 51.3497 26.8754C52.5061 26.4638 53.5133 25.7284 54.246 24.7608C54.9486 23.7635 55.3093 22.5736 55.2761 21.3627C55.2777 20.6307 55.1486 19.904 54.8949 19.2153C54.6299 18.5412 54.2218 17.9298 53.6975 17.4214Z" fill="#2537D7"/>
<path d="M67.4902 6.99219L60.6273 27.3405H66.7143L67.9183 23.4123H74.7746L75.972 27.3405H82.0658L75.2027 6.99219H67.4902ZM69.196 19.3138L71.2629 12.5965H71.4302L73.497 19.3138H69.196Z" fill="#2537D7"/>
<path d="M88.7346 27.3405H94.3801V19.3924H102.461V14.947H94.3801V11.4442H103.357V6.99219H88.7346V27.3405Z" fill="#2537D7"/>
<path d="M110.139 27.3405H125.083V22.895H115.786V19.3924H124.354V14.947H115.786V11.4442H125.123V6.99219H110.139V27.3405Z" fill="#2537D7"/>
<path d="M132.073 11.4442H138.327V27.3405H143.892V11.4442H150.139V6.99219H132.073V11.4442Z" fill="#2537D7"/>
<path d="M162.615 6.99219H156.97V27.3405H162.615V6.99219Z" fill="#2537D7"/>
<path d="M182.355 6.99219V17.6443H182.194L174.802 6.99219H170.013V27.3405H175.658V16.6557H175.779L183.291 27.3405H188V6.99219H182.355Z" fill="#2537D7"/>
</g>
<defs>
<clipPath id="clip0_6_2460">
<rect width="188" height="31" fill="white"/>
</clipPath>
</defs>
</svg>
